<svg width="390" height="390" viewBox="0 0 390 390" fill="none" xmlns="http://www.w3.org/2000/svg">
<g clip-path="url(#clip0_625_6523)">
<path d="M321.672 258.477H342.326V249.748H321.672V258.477Z" fill="#EBEBEB"/>
<path d="M333.2 269.482L343.621 269.264L348.754 269.178C350.462 269.139 352.154 269.147 353.863 269.139L353.512 269.49L353.473 260.762L353.863 261.152L343.535 261.105C340.096 261.105 336.648 261.019 333.208 260.98L333.419 260.77C333.403 262.197 333.349 263.632 333.317 265.091L333.208 269.498L333.2 269.482ZM333.2 269.482L333.091 265.161C333.052 263.703 333.005 262.228 332.99 260.754V260.544H333.2C336.64 260.505 340.088 260.419 343.528 260.411L353.855 260.364H354.245V260.754L354.198 269.482V269.833H353.847C352.108 269.818 350.36 269.826 348.629 269.787L343.434 269.701L333.2 269.482Z" fill="#EBEBEB"/>
<path d="M181.069 183.752L191.49 183.534L196.622 183.448C198.33 183.409 200.023 183.417 201.731 183.401L201.38 183.752L201.341 175.024L201.731 175.414L191.404 175.367C187.964 175.367 184.517 175.282 181.077 175.243L181.287 175.032C181.272 176.459 181.217 177.895 181.186 179.353L181.077 183.76L181.069 183.752ZM181.069 183.752L180.96 179.431C180.921 177.973 180.874 176.498 180.858 175.024V174.814H181.069C184.509 174.775 187.956 174.689 191.396 174.681L201.723 174.634H202.113V175.024L202.067 183.752V184.103H201.716C199.976 184.088 198.229 184.096 196.497 184.057L191.303 183.971L181.069 183.752Z" fill="#EBEBEB"/>
<path d="M192.59 194.758H213.244V186.03H192.59V194.758Z" fill="#EBEBEB"/>
<path d="M169.369 194.758L179.79 194.54L184.922 194.454C186.631 194.415 188.323 194.423 190.031 194.407L189.68 194.758L189.641 186.03L190.031 186.42L179.704 186.373C176.264 186.373 172.817 186.288 169.377 186.249L169.588 186.038C169.572 187.465 169.517 188.901 169.486 190.359L169.377 194.766L169.369 194.758ZM169.369 194.758L169.26 190.437C169.221 188.979 169.174 187.504 169.159 186.03V185.82H169.369C172.809 185.781 176.257 185.695 179.696 185.687L190.024 185.64H190.414V186.03L190.367 194.758V195.109H190.016C188.276 195.094 186.529 195.102 184.798 195.063L179.603 194.977L169.369 194.758Z" fill="#EBEBEB"/>
<path d="M212.87 84.209H233.524V75.4808H212.87V84.209Z" fill="#EBEBEB"/>
<path d="M36.1452 269.482L46.566 269.264L51.6984 269.178C53.4066 269.139 55.0992 269.147 56.8074 269.139L56.4564 269.49L56.4174 260.762L56.8074 261.152L46.4802 261.105C43.0404 261.105 39.5928 261.019 36.153 260.98L36.3636 260.77C36.348 262.197 36.2934 263.632 36.2622 265.091L36.153 269.498L36.1452 269.482ZM36.1452 269.482L36.036 265.161C35.997 263.703 35.9502 262.228 35.9346 260.754V260.544H36.1452C39.585 260.505 43.0326 260.419 46.4724 260.411L56.7996 260.364H57.1896V260.754L57.1428 269.482V269.833H56.7918C55.0524 269.818 53.3052 269.826 51.5736 269.787L46.3788 269.701L36.1452 269.482Z" fill="#EBEBEB"/>
<path d="M47.6657 48.5162L58.0865 48.2977L63.2189 48.212C64.9271 48.173 66.6197 48.1807 68.3279 48.1652L67.9769 48.5162L67.9379 39.7879L68.3279 40.1779L58.0007 40.1312C54.5609 40.1312 51.1133 40.0454 47.6735 40.0064L47.8841 39.7958C47.8685 41.2232 47.8139 42.6584 47.7827 44.117L47.6735 48.5239L47.6657 48.5162ZM47.6657 48.5162L47.5565 44.195C47.5175 42.7364 47.4707 41.2621 47.4551 39.7879V39.5774H47.6657C51.1055 39.5384 54.5531 39.4526 57.9929 39.4448L68.3201 39.3979H68.7101V39.7879L68.6633 48.5162V48.8672H68.3123C66.5729 48.8516 64.8257 48.8594 63.0941 48.8204L57.8993 48.7345L47.6657 48.5162Z" fill="#EBEBEB"/>
<path d="M36.1454 59.522H56.7998V50.7938H36.1454V59.522Z" fill="#EBEBEB"/>
<path d="M333.2 48.5162L343.621 48.2977L348.754 48.212C350.462 48.173 352.154 48.1807 353.863 48.1652L353.512 48.5162L353.473 39.7879L353.863 40.1779L343.535 40.1312C340.096 40.1312 336.648 40.0454 333.208 40.0064L333.419 39.7958C333.403 41.2232 333.349 42.6584 333.317 44.117L333.208 48.5239L333.2 48.5162ZM333.2 48.5162L333.091 44.195C333.052 42.7364 333.005 41.2621 332.99 39.7879V39.5774H333.2C336.64 39.5384 340.088 39.4526 343.528 39.4448L353.855 39.3979H354.245V39.7879L354.198 48.5162V48.8672H353.847C352.108 48.8516 350.36 48.8594 348.629 48.8204L343.434 48.7345L333.2 48.5162Z" fill="#EBEBEB"/>
<path d="M173.207 297.781H117.086V359.923H173.207V297.781Z" fill="#EBEBEB"/>
<path d="M88.1011 359.931H117.078L117.078 297.781H88.1011V359.931Z" fill="#DBDBDB"/>
<path d="M90.1055 355.649C92.2505 351.226 94.3799 346.796 96.4859 342.35L102.773 328.981L108.981 315.557C111.041 311.072 113.076 306.579 115.097 302.063C112.952 306.486 110.822 310.916 108.716 315.362L102.429 328.731L96.2207 342.155C94.1615 346.64 92.1257 351.133 90.1055 355.649Z" fill="#EBEBEB"/>
<path d="M90.1055 302.063C92.1257 306.571 94.1615 311.072 96.2207 315.557L102.429 328.981L108.716 342.35C110.822 346.796 112.952 351.234 115.097 355.649C113.076 351.141 111.041 346.64 108.981 342.155L102.773 328.731L96.4859 315.362C94.3799 310.916 92.2505 306.478 90.1055 302.063Z" fill="#EBEBEB"/>
<path d="M173.207 203.923H117.086V261.784H173.207V203.923Z" fill="#EBEBEB"/>
<path d="M88.1011 261.792H117.078V203.923H88.1011V261.792Z" fill="#DBDBDB"/>
<path d="M140.376 217.355H141.57H142.459L142.974 216.325L143.684 217.355L144.651 215.226L145.571 217.355H148.2H149.401L149.83 215.935L150.236 217.355H151.016V203.923H140.376V217.355Z" fill="#DBDBDB"/>
<path d="M90.1055 258.102C92.2505 253.984 94.3799 249.858 96.4859 245.716L102.773 233.267L108.981 220.764C111.041 216.591 113.076 212.402 115.097 208.198C112.952 212.308 110.822 216.442 108.716 220.584L102.429 233.033L96.2207 245.536C94.1615 249.709 92.1257 253.898 90.1055 258.102Z" fill="#EBEBEB"/>
<path d="M90.1055 208.206C92.1257 212.41 94.1615 216.598 96.2207 220.771L102.429 233.275L108.716 245.724C110.822 249.865 112.952 253.992 115.097 258.11C113.076 253.906 111.041 249.717 108.981 245.544L102.773 233.041L96.4859 220.592C94.3799 216.45 92.2505 212.324 90.1055 208.206Z" fill="#EBEBEB"/>
<path d="M120.775 258.196H127.007V251.964H120.775V258.196Z" fill="white"/>
<path d="M169.463 261.792H113.342V297.781H169.463V261.792Z" fill="#DBDBDB"/>
<path d="M84.3726 297.781H113.35V261.792H84.3726V297.781Z" fill="#C7C7C7"/>
<path d="M136.64 275.223H137.826H138.723L139.23 274.186L139.947 275.223L140.915 273.094L141.835 275.223H144.456H145.657L146.094 273.803L146.499 275.223H147.279V261.792H136.64V275.223Z" fill="white"/>
<path d="M86.3613 295.644C88.5063 293.031 90.6357 290.402 92.7417 287.773L99.0285 279.864L105.237 271.916C107.297 269.264 109.332 266.604 111.353 263.929C109.208 266.542 107.078 269.163 104.972 271.799L98.6853 279.708L92.4765 287.656C90.4173 290.308 88.3815 292.968 86.3613 295.644Z" fill="#DBDBDB"/>
<path d="M86.3613 263.929C88.3815 266.596 90.4173 269.264 92.4765 271.916L98.6853 279.864L104.972 287.773C107.078 290.402 109.208 293.031 111.353 295.644C109.332 292.976 107.297 290.308 105.237 287.656L99.0285 279.716L92.7417 271.807C90.6357 269.178 88.5063 266.55 86.3613 263.937V263.929Z" fill="#DBDBDB"/>
<path d="M346.804 305.565H290.683V359.931H346.804V305.565Z" fill="#DBDBDB"/>
<path d="M261.713 359.931H290.69V305.565H261.713V359.931Z" fill="#C7C7C7"/>
<path d="M313.981 318.997H315.167H316.064L316.571 317.959L317.288 318.997L318.255 316.867L319.176 318.997H321.797H322.998L323.435 317.577L323.84 318.997H324.62V305.565H313.981V318.997Z" fill="white"/>
<path d="M263.702 356.694C265.847 352.747 267.977 348.785 270.083 344.807L276.369 332.857L282.578 320.861C284.637 316.851 286.673 312.834 288.693 308.802C286.548 312.749 284.419 316.711 282.313 320.689L276.026 332.639L269.817 344.635C267.758 348.644 265.722 352.661 263.702 356.694Z" fill="#DBDBDB"/>
<path d="M263.702 308.802C265.722 312.834 267.758 316.859 269.817 320.861L276.026 332.857L282.313 344.807C284.419 348.785 286.548 352.747 288.693 356.694C286.673 352.661 284.637 348.636 282.578 344.635L276.369 332.639L270.083 320.689C267.977 316.711 265.847 312.749 263.702 308.802Z" fill="#DBDBDB"/>
<path d="M249.226 36.6211V169.299H340.532V36.6211H249.226ZM337.163 165.93H252.595V39.9907H337.163V165.93Z" fill="#EBEBEB"/>
<path d="M337.163 39.9907H252.595V165.93H337.163V39.9907Z" fill="white"/>
<path d="M252.595 108.545L337.163 108.545V105.175L252.595 105.175V108.545Z" fill="#EBEBEB"/>
<path d="M243.017 178.963H346.733V169.291H243.017V178.963Z" fill="#DBDBDB"/>
<path d="M245.77 182.832L343.988 184.891V178.963H245.77V182.832Z" fill="#EBEBEB"/>
<path d="M252.595 39.9907H337.163V126.516H252.595V39.9907ZM334.043 43.1107H255.715V123.396H334.043V43.1029V43.1107Z" fill="#DBDBDB"/>
<path d="M310.175 39.9907H308.49V123.396H310.175V39.9907Z" fill="#DBDBDB"/>
<path d="M281.268 39.9907H279.583V123.396H281.268V39.9907Z" fill="#DBDBDB"/>
<path d="M49.4678 36.6211V169.299H140.775V36.6211H49.4678ZM137.405 165.93H52.8374V39.9907H137.405V165.93Z" fill="#EBEBEB"/>
<path d="M137.405 39.9907H52.8374V165.93H137.405V39.9907Z" fill="white"/>
<path d="M52.8372 108.545L137.405 108.545V105.175L52.8372 105.175V108.545Z" fill="#EBEBEB"/>
<path d="M43.259 178.963H146.976V169.291H43.259V178.963Z" fill="#DBDBDB"/>
<path d="M46.0122 182.832L144.23 184.891V178.963H46.0122V182.832Z" fill="#EBEBEB"/>
<path d="M52.8374 39.9907H137.405V126.516H52.8374V39.9907ZM134.285 43.1107H55.9574V123.396H134.285V43.1029V43.1107Z" fill="#DBDBDB"/>
<path d="M110.417 39.9907H108.732V123.396H110.417V39.9907Z" fill="#DBDBDB"/>
<path d="M81.51 39.9907H79.8252V123.396H81.51V39.9907Z" fill="#DBDBDB"/>
<path d="M32.3311 359.931L73.0003 359.736L113.669 359.674L195 359.541L276.331 359.674L317 359.736L357.669 359.931L317 360.118L276.331 360.188L195 360.321L113.669 360.188L73.0003 360.118L32.3311 359.931Z" fill="#263238"/>
<path d="M250.575 137.607C251.02 137.873 251.457 138.153 251.893 138.434" stroke="#263238" stroke-width="0.75" stroke-miterlimit="10"/>
<path d="M254.491 140.244C268.601 150.68 279.583 169.657 267.291 188.206C260.044 199.126 247.767 194.633 243.54 190.717C238.867 186.396 243.165 181.966 247.837 184.922C255.934 190.054 257.073 201.926 248.103 210.701C242.26 216.418 234.655 216.777 230.467 216.442" stroke="#263238" stroke-width="0.75" stroke-miterlimit="10"/>
<path d="M228.891 216.271C227.924 216.13 227.354 215.998 227.354 215.998" stroke="#263238" stroke-width="0.75" stroke-miterlimit="10"/>
<path d="M220.982 215.397C220.615 218.54 226.988 220.264 227.464 216.153C227.947 212.043 221.349 212.253 220.982 215.397Z" fill="#263238"/>
<path d="M229.351 220.561C228.758 221.746 226.66 221.902 224.492 220.397C222.323 218.891 220.826 216.278 220.826 216.278C220.826 216.278 223.813 215.92 226.317 216.754C228.821 217.597 229.944 219.367 229.343 220.561H229.351Z" fill="#EBEBEB"/>
<path d="M220.826 216.278C222.058 216.832 223.267 217.433 224.468 218.033C225.669 218.65 226.871 219.258 228.048 219.913C226.816 219.359 225.607 218.759 224.406 218.158C223.205 217.542 222.003 216.934 220.826 216.278Z" fill="#263238"/>
<path d="M226.488 220.537C226.208 220.217 225.966 219.866 225.732 219.515C225.506 219.157 225.279 218.798 225.092 218.416C225.373 218.735 225.615 219.086 225.849 219.437C226.075 219.796 226.301 220.155 226.488 220.537Z" fill="#263238"/>
<path d="M223.86 217.799C224.289 217.674 224.733 217.612 225.17 217.542C225.615 217.487 226.052 217.425 226.496 217.425C226.067 217.55 225.623 217.612 225.186 217.682C224.741 217.737 224.304 217.799 223.86 217.799Z" fill="#263238"/>
<path d="M223.189 218.314C223.041 218.15 222.947 217.963 222.846 217.776C222.76 217.581 222.666 217.394 222.627 217.175C222.776 217.339 222.869 217.526 222.971 217.713C223.056 217.908 223.15 218.096 223.189 218.314Z" fill="#263238"/>
<path d="M230.365 212.394C230.061 211.107 228.056 210.467 225.599 211.434C223.142 212.402 221.083 214.593 221.083 214.593C221.083 214.593 223.907 215.639 226.543 215.397C229.172 215.155 230.677 213.689 230.365 212.394Z" fill="#EBEBEB"/>
<path d="M221.083 214.594C222.409 214.336 223.719 214.032 225.038 213.728C226.348 213.408 227.658 213.096 228.953 212.729C227.627 212.979 226.317 213.291 224.999 213.595C223.688 213.915 222.378 214.227 221.083 214.594Z" fill="#263238"/>
<path d="M227.573 211.754C227.222 212.004 226.91 212.293 226.598 212.573C226.294 212.87 225.989 213.166 225.724 213.494C226.075 213.244 226.387 212.956 226.699 212.675C227.003 212.378 227.308 212.082 227.573 211.754Z" fill="#263238"/>
<path d="M224.375 213.813C224.765 214.032 225.178 214.196 225.591 214.367C226.005 214.523 226.426 214.679 226.855 214.788C226.465 214.57 226.052 214.406 225.638 214.235C225.225 214.079 224.804 213.923 224.375 213.813Z" fill="#263238"/>
<path d="M223.852 213.158C223.673 213.283 223.532 213.439 223.392 213.595C223.259 213.759 223.127 213.93 223.041 214.125C223.22 214.001 223.361 213.845 223.501 213.689C223.634 213.525 223.759 213.353 223.852 213.158Z" fill="#263238"/>
<path d="M220.982 215.397C221.606 215.467 222.058 216.037 221.98 216.661C221.91 217.285 221.341 217.737 220.717 217.659C220.093 217.581 219.64 217.019 219.718 216.395C219.788 215.771 220.358 215.319 220.982 215.397Z" fill="#455A64"/>
<path d="M221.247 213.127C221.871 213.197 222.323 213.767 222.245 214.391C222.167 215.015 221.606 215.467 220.982 215.389C220.358 215.311 219.905 214.749 219.983 214.125C220.054 213.501 220.623 213.049 221.247 213.127Z" fill="#455A64"/>
<path d="M150.524 288.842C150.524 288.842 133.918 322.14 133.91 322.171C132.537 329.051 131.453 335.104 131.188 338.286C131.188 338.302 131.18 338.317 131.188 338.341C131.087 339.542 131.102 340.322 131.274 340.564C131.289 340.587 131.289 340.603 131.305 340.618C133.076 342.412 187.722 354.994 189.774 354.791C191.833 354.596 191.412 348.722 189.68 346.538C187.933 344.354 169.174 330.182 169.174 330.182L185.437 296.829L150.532 288.842H150.524Z" fill="#FFBD9C"/>
<path d="M188.947 354.791C186.896 354.994 133.068 342.404 131.305 340.618C131.29 340.603 131.282 340.587 131.274 340.564C131.102 340.322 131.095 339.534 131.188 338.341C131.188 338.317 131.188 338.31 131.196 338.286C131.461 335.104 132.545 329.043 133.91 322.163C133.91 322.156 136.048 317.889 137.888 314.192L172.364 323.645L169.182 330.182C169.182 330.182 187.122 344.354 188.861 346.538C190.601 348.722 191.014 354.596 188.955 354.791H188.947Z" fill="#EBEBEB"/>
<path d="M189.696 353.917C187.621 354.073 132.842 340.111 131.094 338.255C130.416 337.561 131.991 329.457 134.168 319.73C134.191 319.629 134.214 319.527 134.238 319.426L169.681 328.037L169.517 328.63C169.517 328.63 188.097 343.356 189.797 345.595C191.49 347.826 191.778 353.761 189.696 353.91V353.917Z" fill="#263238"/>
<path d="M189.618 351.632C180.445 349.05 143.185 339.511 133.918 337.654C133.84 337.639 133.832 337.693 133.903 337.709C142.943 340.462 180.274 349.705 189.579 351.78C189.774 351.827 189.813 351.686 189.618 351.632Z" fill="white"/>
<path d="M172.45 329.496C168.987 327.889 164.4 327.319 160.968 329.199C160.836 329.269 160.937 329.457 161.07 329.457C164.946 329.238 168.472 329.371 172.325 329.956C172.598 329.995 172.707 329.613 172.458 329.503L172.45 329.496Z" fill="white"/>
<path d="M174.673 331.742C171.21 330.135 166.624 329.566 163.192 331.446C163.059 331.516 163.16 331.703 163.293 331.703C167.17 331.485 170.695 331.617 174.548 332.202C174.821 332.241 174.931 331.859 174.681 331.75L174.673 331.742Z" fill="white"/>
<path d="M176.888 333.996C173.425 332.389 168.839 331.82 165.407 333.7C165.274 333.77 165.376 333.957 165.508 333.957C169.385 333.739 172.91 333.871 176.764 334.456C177.037 334.495 177.146 334.113 176.896 334.004L176.888 333.996Z" fill="white"/>
<path d="M191.03 352.17C191.911 352.794 190.866 356.039 190.086 356.117C189.314 356.203 129.652 340.712 128.692 340.221C127.733 339.737 129.035 336.188 130.26 336.297C131.485 336.414 191.022 352.163 191.022 352.163L191.03 352.17Z" fill="#F75B00"/>
<path d="M141.718 327.857C138.255 324.862 133.591 330.236 137.062 333.239C140.525 336.235 145.189 330.86 141.718 327.857Z" fill="white"/>
<path d="M138.005 311.532L177.973 321.609C177.973 321.609 215.225 254.381 214.391 237.291C213.236 213.696 185.562 141.242 185.562 141.242H152.428C152.428 141.242 174.424 219.593 174.704 232.775C174.853 239.67 137.998 311.532 137.998 311.532H138.005Z" fill="#455A64"/>
<path d="M179.681 313.497C177.552 312.647 158.527 307.156 144.331 304.153C144.238 304.13 144.207 304.27 144.3 304.301C148.77 305.877 176.974 313.295 179.619 313.661C179.704 313.677 179.775 313.544 179.681 313.505V313.497Z" fill="#263238"/>
<path d="M177.474 215.943C174.837 204.883 172.061 193.853 169.05 182.887C166.031 171.873 162.911 160.875 159.425 149.994C158.996 148.668 158.559 147.342 158.122 146.016C158.052 145.813 157.74 145.907 157.802 146.11C160.899 156.936 164.058 167.755 167.006 178.628C169.955 189.501 172.778 200.405 175.43 211.349C176.085 214.063 176.733 216.77 177.372 219.484C178.028 222.284 178.737 225.1 179.065 227.963C179.377 230.716 179.221 233.446 178.519 236.129C177.825 238.766 176.709 241.254 175.578 243.727C170.797 254.101 166.008 264.467 161.25 274.856C156.484 285.262 155.704 287.633 151.133 298.132C150.564 299.434 149.994 300.737 149.456 302.047C149.417 302.133 149.542 302.203 149.589 302.117C154.815 291.837 155.618 289.357 160.47 278.897C165.353 268.367 170.22 257.837 175.064 247.299C177.248 242.541 179.814 237.689 180.141 232.37C180.485 226.84 178.737 221.27 177.474 215.943Z" fill="#263238"/>
<path d="M179.283 302.008C179.283 302.008 180.562 338.66 180.562 338.691C180.773 345.703 181.077 351.842 181.537 355.009C181.537 355.024 181.537 355.04 181.545 355.063C181.716 356.257 181.904 357.013 182.13 357.216C182.145 357.232 182.153 357.247 182.169 357.263C184.298 358.612 240.372 358.581 242.33 357.926C244.296 357.279 242.556 351.639 240.38 349.908C238.188 348.176 216.715 338.582 216.715 338.582L215.085 301.953L179.275 302.023L179.283 302.008Z" fill="#FFBD9C"/>
<path d="M180.305 331.164C180.305 331.164 180.57 338.668 180.57 338.691C180.78 345.703 181.085 351.842 181.545 355.009C181.545 355.024 181.545 355.04 181.553 355.063C181.794 356.241 181.997 357.013 182.138 357.216C182.153 357.232 182.161 357.247 182.177 357.263C184.306 358.612 240.38 358.581 242.338 357.926C244.304 357.279 242.564 351.639 240.388 349.908C238.196 348.176 216.723 338.582 216.723 338.582L216.559 330.938L180.305 331.18V331.164Z" fill="#EBEBEB"/>
<path d="M242.362 357.848C240.38 358.479 183.854 357.606 181.724 356.202C180.905 355.687 180.554 347.442 180.414 337.466C180.414 337.365 180.414 337.256 180.414 337.154L216.887 337.31L216.863 337.926C216.863 337.926 238.352 347.942 240.529 349.728C242.689 351.506 244.351 357.216 242.362 357.84V357.848Z" fill="#263238"/>
<path d="M241.753 355.64C232.229 355.258 193.775 354.618 184.329 354.962C184.251 354.962 184.251 355.016 184.329 355.024C193.76 355.609 232.214 355.937 241.745 355.796C241.948 355.796 241.948 355.648 241.745 355.64H241.753Z" fill="white"/>
<path d="M219.921 338.09C216.184 337.334 211.59 337.833 208.681 340.461C208.572 340.563 208.712 340.719 208.837 340.688C212.557 339.58 216.021 338.886 219.897 338.566C220.17 338.543 220.186 338.145 219.921 338.09Z" fill="white"/>
<path d="M222.604 339.759C218.868 339.003 214.274 339.51 211.364 342.13C211.255 342.232 211.396 342.388 211.52 342.357C215.241 341.249 218.704 340.555 222.581 340.235C222.854 340.212 222.869 339.814 222.604 339.759Z" fill="white"/>
<path d="M225.28 341.436C221.543 340.68 216.949 341.179 214.04 343.808C213.931 343.909 214.071 344.065 214.196 344.034C217.916 342.926 221.38 342.232 225.256 341.912C225.529 341.889 225.545 341.491 225.28 341.436Z" fill="white"/>
<path d="M243.251 355.835C244.257 356.241 243.984 359.634 243.251 359.899C242.517 360.156 180.89 358.932 179.844 358.682C178.799 358.433 179.244 354.681 180.461 354.501C181.677 354.33 243.243 355.835 243.243 355.835H243.251Z" fill="#F75B00"/>
<path d="M189.641 343.628C185.578 341.515 182.286 347.833 186.358 349.946C190.421 352.06 193.713 345.742 189.641 343.628Z" fill="white"/>
<path d="M185.156 141.211C185.156 141.211 185.156 141.219 185.149 141.242C185 141.921 176.74 174.579 175.711 175.196C174.541 175.882 205.725 217.846 209.422 238.438C211.786 251.612 217.183 328.403 217.183 328.403H177.466C177.466 328.403 173.573 263.195 172.271 241.698C171.764 233.36 140.486 194.813 137.514 169.112C136.578 161.015 142.397 141.203 142.397 141.203H185.156V141.211Z" fill="#455A64"/>
<path d="M176.467 297.312C175.991 286.509 175.562 275.683 174.774 264.896C174.33 258.78 173.456 252.868 172.848 246.768C172.817 246.449 172.559 246.371 172.567 246.698C172.848 257.548 173.745 268.281 174.322 279.123C174.899 289.926 175.453 292.492 176.061 303.295C176.405 309.41 176.709 315.525 177.185 321.633C177.185 321.726 177.333 321.726 177.333 321.633C177.356 310.783 176.927 308.154 176.459 297.312H176.467Z" fill="#263238"/>
<path d="M209.477 238.891C209.095 236.044 208.619 233.204 207.815 230.443C207.035 227.744 205.889 225.17 204.594 222.682C201.887 217.487 198.806 212.464 195.835 207.41C192.824 202.293 189.766 197.207 186.631 192.176C184.868 189.345 183.097 186.521 181.311 183.698C179.509 180.843 177.598 178.058 175.726 175.25C175.656 175.141 175.477 175.25 175.547 175.36C178.589 180.453 181.6 185.57 184.642 190.671C187.684 195.764 190.679 200.889 193.682 206.014C196.63 211.052 199.586 216.091 202.402 221.2C203.752 223.649 205.039 226.145 205.982 228.782C206.957 231.488 207.535 234.304 207.987 237.136C209.048 243.742 209.914 250.388 211.24 256.94C211.255 257.026 211.388 257.002 211.388 256.916C210.974 250.895 210.257 244.873 209.461 238.891H209.477Z" fill="#263238"/>
<path d="M213.705 321.523C211.427 321.227 194.111 320.626 179.619 321.25C179.517 321.25 179.525 321.391 179.619 321.399C184.345 321.82 211.029 321.999 213.681 321.695C213.767 321.687 213.806 321.539 213.697 321.523H213.705Z" fill="#263238"/>
<path d="M180.906 172.895C176.842 174.291 172.926 176.28 169.174 178.355C169.026 178.433 169.128 178.667 169.284 178.596C173.238 176.896 177.263 175.274 181.116 173.363C181.42 173.214 181.218 172.785 180.906 172.895Z" fill="#263238"/>
<path d="M182.099 145.829C182.091 145.696 181.85 145.665 181.85 145.813C181.881 150.501 181.584 154.627 181.187 159.011C180.999 161.046 179.369 172.294 175.836 171.475C175.243 171.335 174.947 170.757 174.853 169.868C174.744 168.8 175.142 167.481 175.321 166.421C175.711 164.065 176.031 161.702 176.226 159.323C176.6 154.884 176.624 150.446 176.085 146.016C176.07 145.868 175.859 145.883 175.859 146.031C175.859 152.178 175.703 158.309 174.783 164.4C174.338 167.325 172.872 171.732 175.929 172.177C179.049 172.637 181.062 165.258 181.444 163.238C182.505 157.607 182.544 151.53 182.099 145.829Z" fill="#263238"/>
<path d="M175.929 171.779C175.609 172.536 175.352 173.323 175.134 174.111C174.962 174.727 174.736 175.39 174.806 176.03C174.822 176.155 174.985 176.163 175.048 176.085C175.461 175.562 175.633 174.844 175.867 174.22C176.132 173.503 176.421 172.785 176.67 172.052C176.834 171.568 176.124 171.319 175.929 171.779Z" fill="#263238"/>
<path d="M177.59 252.119C177.224 246.573 177.239 240.708 174.884 235.56C173.714 233.009 172.099 230.693 170.563 228.353C168.948 225.888 167.357 223.415 165.789 220.919C159.518 210.959 153.527 200.795 148.044 190.382C145.4 185.367 142.966 180.188 141.64 174.65C140.252 168.854 140.197 162.786 140.915 156.897C141.094 155.422 141.297 153.956 141.547 152.49C141.562 152.381 141.406 152.341 141.383 152.451C140.189 158.082 139.565 163.878 140.08 169.634C140.572 175.18 142.334 180.429 144.659 185.46C147.077 190.694 149.955 195.733 152.794 200.756C155.719 205.928 158.73 211.052 161.834 216.122C164.923 221.169 168.168 226.098 171.389 231.059C172.949 233.462 174.4 235.926 175.188 238.703C175.991 241.519 176.21 244.46 176.397 247.369C177.193 259.646 180.305 300.464 181.405 312.678C181.545 314.231 181.685 315.783 181.826 317.327C181.841 317.467 182.044 317.46 182.044 317.327C181.568 305.073 178.402 264.357 177.59 252.119Z" fill="#263238"/>
<path d="M158.504 151.944C158.488 151.858 158.364 151.889 158.356 151.967C158.239 155.384 158.34 158.902 157.022 162.123C155.821 165.079 153.403 167.154 150.696 168.706C149.136 169.603 147.483 170.36 145.837 171.085C145.72 171.14 145.767 171.327 145.899 171.288C149.05 170.29 152.241 169.205 154.854 167.115C157.646 164.876 158.871 161.624 159.011 158.106C159.089 156.039 158.847 153.988 158.504 151.952V151.944Z" fill="#263238"/>
<path d="M175.82 96.3842C180.274 110.081 192.333 133.411 196.638 136.227C200.453 138.715 218.4 135.938 226.247 134.043C229.188 133.333 222.581 110.978 219.461 111.797C215.709 112.78 204.532 115.299 203.721 114.683C202.824 114.004 191.639 100.175 183.651 92.0006C176.405 84.5906 174.143 91.205 175.828 96.392L175.82 96.3842Z" fill="#FFBD9C"/>
<path d="M224.547 134.214C226.052 134.027 238.79 133.449 244.632 130.259C247.728 128.567 255.708 122.966 254.92 120.954C254.195 119.121 251.628 120.119 251.628 120.119C251.628 120.119 255.154 117.569 254.117 115.026C253.079 112.483 248.844 114.394 248.844 114.394C248.844 114.394 252.268 111.508 251.059 109.051C249.842 106.594 245.903 109.223 245.903 109.223C245.903 109.223 249.156 106.734 247.307 105.128C245.076 103.193 239.593 108.466 235.896 109.698C235.053 109.979 218.447 114.176 218.447 114.176L224.547 134.214Z" fill="#FFBD9C"/>
<path d="M245.763 109.152C241.722 113.013 239.281 114.004 233.891 115.104C233.782 115.127 233.79 115.283 233.907 115.275C239.289 114.683 242.526 113.887 245.966 109.34C246.137 109.121 245.966 108.973 245.771 109.152H245.763Z" fill="#263238"/>
<path d="M248.711 114.3C244.164 117.951 241.527 119.043 235.958 120.603C235.88 120.626 235.911 120.759 235.989 120.743C241.582 119.667 244.788 118.793 248.852 114.558C249.039 114.363 248.914 114.129 248.703 114.3H248.711Z" fill="#263238"/>
<path d="M251.363 120.181C246.706 123.395 243.867 124.721 238.267 125.54C238.134 125.556 238.15 125.751 238.282 125.751C244.07 125.47 247.627 123.84 251.441 120.33C251.698 120.088 251.652 119.979 251.355 120.174L251.363 120.181Z" fill="#263238"/>
<path d="M214.095 114.893C214.095 114.893 218.736 109.644 221.279 107.788C223.829 105.931 235.865 102.499 236.754 105.058C237.9 108.357 231.341 111.711 227.916 112.928C227.916 112.928 230.576 120.564 226.388 123.988C222.199 127.412 214.095 114.893 214.095 114.893Z" fill="#FFBD9C"/>
<path d="M236.777 106.072C235.646 109.839 231.044 111.15 227.815 112.585C227.565 112.694 227.573 112.928 227.69 113.1C228.587 116.376 228.907 121.258 226.614 124.012C226.544 124.09 226.653 124.199 226.731 124.129C229.593 121.508 229.671 116.68 228.455 113.162C231.793 111.742 236.356 110.229 236.816 106.087C236.816 106.064 236.785 106.056 236.777 106.08V106.072Z" fill="#263238"/>
<path d="M224.547 138.067L218.658 111.282L204.103 113.926C198.362 107.351 186.888 94.208 182.24 90.2612C176.787 85.628 173.207 89.1146 175.212 96.1268C179.79 112.164 193.089 135.688 196.592 137.943C201.615 141.18 224.539 138.075 224.539 138.075L224.547 138.067Z" fill="#F75B00"/>
<path opacity="0.1" d="M203.76 122.07C204.43 122.304 205.249 122.234 205.951 122.327C207.488 122.538 208.198 124.839 206.778 125.712C205.257 126.648 203.424 126.797 201.747 126.141C200.179 125.533 198.869 124.02 199.204 122.257C199.501 120.713 201.092 120.268 202.317 121.056C202.816 121.376 203.182 121.875 203.752 122.07H203.76ZM199.735 115.697C199.173 118.357 203.276 120.627 205.374 119.215C206.123 118.708 206.1 117.554 205.429 117.008C204.82 116.508 204.298 116.43 203.752 115.978C203.487 115.76 203.541 115.799 203.253 115.455C202.902 115.026 202.59 114.699 202.09 114.418C201.076 113.856 199.945 114.722 199.735 115.697ZM193.191 115.838C192.348 116.937 192.98 118.591 193.721 119.589C194.454 120.572 195.538 121.212 196.786 121.079C197.73 120.978 198.144 119.667 197.364 119.082C196.872 118.716 196.498 118.224 196.272 117.717C195.905 116.891 195.655 115.83 194.735 115.463C194.205 115.253 193.549 115.362 193.183 115.83L193.191 115.838ZM210.468 133.185C209.368 135.408 212.714 137.935 214.75 137.498C215.428 137.35 216.084 136.461 215.475 135.821C214.992 135.314 214.414 134.901 213.962 134.355C213.408 133.692 213.112 132.842 212.238 132.506C211.544 132.241 210.803 132.506 210.468 133.185ZM179.049 105.924C178.862 105.573 178.605 105.23 178.285 104.98C178.722 106.095 179.182 107.219 179.665 108.342C179.759 107.523 179.392 106.595 179.049 105.924ZM183.394 103.576C183.339 101.649 182.403 99.8398 181.241 98.3422C180.305 97.141 178.69 95.1988 176.967 95.6356C176.561 95.737 176.374 96.1192 176.343 96.4936C176.233 97.8118 177.747 99.2314 178.394 100.277C179.213 101.603 179.798 103.069 180.633 104.387C181.42 105.62 183.425 105.081 183.378 103.576H183.394ZM182.887 111.969C183.503 111.922 184.049 111.516 184.197 110.892C184.345 110.268 184.252 109.683 184.08 109.075C183.94 108.576 183.682 107.921 183.261 107.585C182.622 107.078 181.647 107.258 181.436 108.123C181.327 108.56 181.413 109.052 181.42 109.496C181.42 109.691 181.42 109.894 181.405 110.089C181.389 110.385 181.452 110.674 181.498 110.97C181.6 111.548 182.317 112.008 182.879 111.969H182.887Z" fill="#030402"/>
<path d="M219.446 135.719C218.775 134.136 217.129 127.233 216.739 125.509C216.357 123.817 215.015 116.812 214.618 115.042C214.594 114.948 214.727 114.886 214.75 114.987C215.171 116.734 217.059 123.614 217.464 125.33C217.87 127.054 219.43 133.964 219.539 135.704C219.539 135.766 219.469 135.782 219.454 135.727L219.446 135.719Z" fill="#263238"/>
<path opacity="0.1" d="M205.944 139.401C201.849 139.378 198.261 139.003 196.599 137.935C193.089 135.673 179.798 112.156 175.22 96.119C174.065 92.0942 174.759 89.2316 176.585 88.397L205.952 139.401H205.944Z" fill="black"/>
<path d="M139.924 144.854C140.026 145.002 188.698 151.242 189.213 150.79C189.408 150.626 189.798 146.679 189.798 146.679C189.798 146.679 185.336 93.6857 183.027 90.5813C181.007 87.8591 174.876 85.9013 170.703 87.6719C161.944 91.3847 140.97 138.731 141.196 140.681C141.196 140.681 139.792 144.667 139.917 144.846L139.924 144.854Z" fill="#F75B00"/>
<path opacity="0.1" d="M157.474 138.403C158.145 138.84 159.058 138.981 159.799 139.277C161.421 139.924 161.569 142.631 159.791 143.193C157.872 143.801 155.836 143.466 154.183 142.303C152.638 141.211 151.617 139.207 152.459 137.374C153.2 135.767 155.064 135.72 156.187 136.906C156.648 137.389 156.913 138.037 157.482 138.403H157.474ZM154.807 130.346C153.473 133.099 157.334 136.687 160.009 135.712C160.969 135.361 161.25 134.098 160.665 133.318C160.134 132.608 159.588 132.382 159.112 131.742C158.878 131.43 158.933 131.493 158.715 131.032C158.442 130.463 158.2 130.026 157.724 129.582C156.772 128.692 155.298 129.332 154.807 130.346ZM150.306 127.413C148.848 127.959 148.473 129.925 148.582 131.313C148.692 132.686 149.355 133.942 150.626 134.558C151.585 135.026 152.763 134.02 152.365 132.998C152.116 132.358 152.046 131.664 152.131 131.048C152.272 130.042 152.67 128.872 152.007 127.983C151.624 127.468 150.93 127.179 150.306 127.413ZM166.296 136.695C165.524 136.594 164.806 137.171 164.705 137.928C164.588 138.754 165.157 139.472 165.914 139.729C166.483 139.917 166.975 139.901 167.552 139.737C167.825 139.659 168.051 139.402 168.184 139.176C168.332 138.926 168.418 138.622 168.363 138.333C168.27 137.803 167.856 137.296 167.295 137.202C167.248 137.148 167.193 137.085 167.123 137.031C166.881 136.836 166.6 136.726 166.296 136.687V136.695ZM154.331 117.874C153.028 119.215 153.582 122.265 155.049 123.295C155.899 123.888 157.131 123.466 157.272 122.382C157.318 122.023 157.295 121.805 157.287 121.454C157.287 121.119 157.248 120.9 157.256 120.705C157.295 120.05 157.474 119.325 157.326 118.685C156.983 117.211 155.368 116.797 154.331 117.874ZM145.876 137.249C144.074 139.386 147.046 143.052 149.378 143.122C150.158 143.146 151.117 142.35 150.626 141.492C150.236 140.806 149.713 140.197 149.37 139.48C148.949 138.606 148.848 137.592 147.99 136.992C147.303 136.516 146.422 136.594 145.868 137.249H145.876ZM188.908 136.57C188.37 136.656 187.863 137.015 187.676 137.694C187.426 138.559 187.395 139.332 186.748 140.01C186.093 140.689 185.32 141.11 184.837 141.945C184.416 142.654 185.04 143.707 185.882 143.614C187.231 143.473 188.487 142.748 189.369 141.711C189.244 140.244 189.088 138.505 188.908 136.57ZM184.985 130.135C184.54 131.196 184.626 132.397 184.26 133.505C183.932 134.503 183.55 135.533 183.105 136.485C182.778 137.179 183.433 138.294 184.291 137.92C185.71 137.288 186.763 136.461 187.458 135.026C188.05 133.801 188.706 131.742 188.136 130.44C187.614 129.238 185.625 128.607 184.985 130.143V130.135ZM180.539 140.767C179.845 141.539 179.088 142.358 178.113 142.756C177.185 143.138 176.639 144.058 177.084 145.041C177.536 146.04 178.566 146.188 179.478 145.774C181.108 145.026 182.364 143.723 182.863 141.984C183.246 140.658 181.42 139.784 180.539 140.767ZM173.41 102.547C174.33 102.695 175.196 102.219 175.438 101.283C175.875 99.6061 174.377 97.8745 173.191 96.8293C171.967 95.7529 170.337 94.8325 168.675 95.3707C167.622 95.7139 167.497 96.8527 168.121 97.6249C168.847 98.5297 169.853 99.1927 170.625 100.074C171.46 101.026 172.053 102.321 173.41 102.539V102.547ZM179.377 109.161C180.032 108.217 179.525 106.829 179.057 105.924C178.807 105.448 178.425 105.004 177.949 104.739C177.302 104.38 176.319 104.427 175.953 105.168C175.711 105.651 175.734 106.088 175.859 106.587C175.921 106.837 176.015 107.047 176.124 107.289C176.14 107.32 176.148 107.344 176.155 107.359L176.171 107.422C176.397 108.147 176.538 108.951 177.091 109.504C177.817 110.238 178.87 109.902 179.385 109.153L179.377 109.161ZM183.394 103.576C183.339 101.65 182.403 99.8401 181.241 98.3425C180.305 97.1413 178.69 95.1991 176.967 95.6359C176.561 95.7373 176.374 96.1195 176.343 96.4939C176.233 97.8121 177.747 99.2317 178.394 100.277C179.213 101.603 179.798 103.069 180.633 104.388C181.42 105.62 183.425 105.082 183.378 103.576H183.394ZM177.505 116.93C177.793 116.985 178.09 116.977 178.378 116.907C178.823 116.797 179.158 116.454 179.392 116.088C179.634 115.705 179.673 115.175 179.697 114.738C179.72 114.278 179.533 113.88 179.346 113.482C179.26 113.373 179.174 113.272 179.088 113.163L178.745 112.913C178.433 112.741 178.082 112.695 177.747 112.757C177.123 112.858 176.608 113.319 176.46 113.943C176.35 114.403 176.21 114.855 176.187 115.331C176.21 115.471 176.233 115.62 176.257 115.76C176.311 115.978 176.421 116.173 176.569 116.337C176.795 116.626 177.13 116.875 177.505 116.946V116.93ZM182.887 111.969C183.503 111.922 184.049 111.517 184.197 110.893C184.345 110.269 184.252 109.684 184.08 109.075C183.94 108.576 183.682 107.921 183.261 107.586C182.622 107.079 181.647 107.258 181.436 108.124C181.327 108.561 181.413 109.052 181.42 109.497C181.42 109.692 181.42 109.894 181.405 110.089C181.389 110.386 181.452 110.674 181.498 110.971C181.6 111.548 182.317 112.008 182.879 111.969H182.887Z" fill="#030402"/>
<path d="M180.196 98.8883C177.224 98.6154 173.418 92.2662 172.692 88.2336C172.645 87.9528 173.831 85.6127 175.134 82.6955C175.921 80.9249 176.748 78.9282 177.38 77.0562L188.175 83.85C188.175 83.85 185.703 87.3911 184.626 90.6671C184.54 90.9401 184.478 91.2054 184.447 91.4628C184.439 91.5018 184.431 91.5486 184.423 91.5954C184.174 93.1398 183.066 99.1536 180.188 98.8962L180.196 98.8883Z" fill="#FFBD9C"/>
<path d="M184.447 91.4552C184.447 91.4552 184.439 91.5332 184.423 91.58C184.041 91.5176 183.628 91.4006 183.191 91.2446C176.444 88.811 177.629 79.9502 178.105 77.501L180.804 79.2014L188.175 83.8424C188.175 83.8424 185.702 87.3836 184.634 90.6596C184.548 90.9326 184.486 91.19 184.454 91.4552H184.447Z" fill="#263238"/>
<path d="M178.503 64.5447C176.272 68.5617 175.89 81.4629 178.355 84.8871C181.927 89.8479 189.103 91.7823 193.651 87.1881C198.058 82.7343 198.268 65.9097 195.39 62.6571C191.155 57.8757 181.803 58.6089 178.503 64.5447Z" fill="#FFBD9C"/>
<path d="M188.862 74.9736C188.862 74.9736 188.791 75.0126 188.791 75.0516C188.791 75.9408 188.635 76.9548 187.824 77.22C187.801 77.2278 187.801 77.2746 187.824 77.2668C188.807 77.1654 188.994 75.8082 188.854 74.9658L188.862 74.9736Z" fill="#263238"/>
<path d="M188.105 74.0218C186.685 73.8658 186.475 76.7206 187.793 76.8688C189.088 77.0092 189.298 74.1544 188.105 74.0218Z" fill="#263238"/>
<path d="M193.978 75.2773C193.978 75.2773 194.041 75.3241 194.041 75.3631C193.939 76.2445 193.978 77.2741 194.758 77.6329C194.782 77.6407 194.774 77.6875 194.75 77.6797C193.783 77.4613 193.752 76.0963 193.986 75.2773H193.978Z" fill="#263238"/>
<path d="M194.844 74.4194C196.279 74.4194 196.162 77.2898 194.836 77.282C193.533 77.282 193.65 74.4116 194.844 74.4194Z" fill="#263238"/>
<path d="M189.26 73.4448C188.87 73.5306 188.487 73.5384 188.09 73.5852C187.637 73.632 187.286 73.7178 186.873 73.4994C186.647 73.3824 186.545 73.0236 186.639 72.7974C186.857 72.267 187.388 72.072 187.926 71.994C188.511 71.9082 188.979 71.994 189.486 72.2904C189.977 72.579 189.774 73.3356 189.252 73.4526L189.26 73.4448Z" fill="#263238"/>
<path d="M196.124 71.7598C195.734 71.6662 195.39 71.518 195.008 71.3854C194.579 71.2372 194.228 71.1592 193.947 70.7848C193.799 70.582 193.854 70.2154 194.033 70.0516C194.462 69.6694 195.024 69.7162 195.546 69.88C196.108 70.0516 196.498 70.3324 196.826 70.8238C197.145 71.2996 196.631 71.8924 196.116 71.7676L196.124 71.7598Z" fill="#263238"/>
<path d="M188.214 82.0091C189.369 81.6425 190.804 81.8765 191.709 82.0559C191.81 82.0481 191.919 81.8531 191.943 81.7595L192.013 79.8797C192.247 80.0201 193.471 80.6675 193.471 80.3165C193.495 77.3915 193.51 74.1389 192.918 71.2217C192.902 71.1281 192.754 71.1359 192.754 71.2295C192.621 74.0375 192.988 76.8533 192.902 79.6769C192.512 79.4975 191.88 79.1699 191.521 79.1543C191.42 79.1777 191.553 81.1433 191.498 81.4397C191.498 81.4397 189.751 80.7845 188.23 81.6191C187.832 81.8375 187.668 82.1807 188.222 82.0091H188.214Z" fill="#263238"/>
<path d="M185.905 83.8654C186.1 84.0838 186.295 84.3802 186.615 84.427C186.919 84.4738 187.286 84.3568 187.575 84.2632C187.606 84.2554 187.629 84.2866 187.614 84.31C187.364 84.6298 186.873 84.817 186.467 84.7156C186.077 84.622 185.898 84.2632 185.827 83.8966C185.82 83.842 185.882 83.8264 185.913 83.8654H185.905Z" fill="#263238"/>
<path opacity="0.2" d="M182.27 60.4497C182.153 62.4621 181.678 68.6709 180.718 69.9345C179.798 71.1513 177.707 74.1387 176.662 74.5989C176.803 70.4571 177.442 66.5181 178.519 64.4823C179.4 62.7897 180.718 61.4325 182.27 60.4497Z" fill="#263238"/>
<path d="M193.385 66.5261C192.27 67.6415 190.663 68.1407 189.119 67.7741C187.613 67.4231 186.186 66.2609 185.741 64.7477C185.726 64.7009 185.656 64.7243 185.671 64.7711C186.139 66.3857 187.325 67.7741 189.025 68.1329C190.624 68.4683 192.41 67.8521 193.463 66.6041C193.51 66.5495 193.432 66.4715 193.385 66.5261Z" fill="#263238"/>
<path d="M189.47 54.9664C186.825 54.8338 184.306 56.1208 183.214 57.8524C182.551 58.9054 182.387 60.0052 182.481 61.144C182.481 61.1908 182.582 61.1908 182.582 61.144C182.559 59.35 183.581 57.3766 185.585 56.269C187.504 55.2004 189.977 55.0054 192.028 55.957C193.104 56.4562 193.947 57.2128 194.345 58.102C194.391 58.2034 194.594 58.1566 194.555 58.0552C193.955 56.3548 191.864 55.0912 189.477 54.9742L189.47 54.9664Z" fill="#263238"/>
<path d="M204.383 61.7678C204.056 60.4418 203.229 59.264 202.129 58.4684C200.585 57.353 198.744 57.3686 196.919 57.4232C196.872 57.4232 196.872 57.5012 196.919 57.5012C198.479 57.4622 200.054 57.5012 201.427 58.3358C202.543 59.0066 203.44 60.0674 203.876 61.3076C204.773 63.8738 203.541 66.8924 201.076 68.0624C199.68 68.7254 198.011 68.78 196.583 68.2028C196.529 68.1794 196.482 68.2652 196.537 68.2886C199.15 69.4196 202.387 68.4212 203.783 65.9174C204.477 64.6772 204.734 63.164 204.391 61.7756L204.383 61.7678Z" fill="#263238"/>
<path d="M177.723 67.0642C177.723 67.0642 175.578 62.158 177.871 59.5918C179.174 58.1332 183.089 58.6324 183.089 58.6324C183.089 58.6324 184.525 56.464 187.84 55.9648C191.194 55.4578 194.961 57.6808 194.961 57.6808C194.961 57.6808 198.221 56.1286 201.029 58.024C204.937 60.6682 203.954 66.8536 199.695 68.5384C196.7 69.724 192.972 66.8692 192.972 66.8692C192.59 66.8926 188.557 68.9284 185.897 65.2624C185.897 65.2624 183.362 67.189 181.35 65.551C181.35 65.551 180.11 67.6102 177.715 67.0642H177.723Z" fill="#263238"/>
<path d="M178.994 75.2307C178.994 75.2307 176.951 70.6521 174.931 71.3073C172.91 71.9625 173.901 78.2103 175.89 79.4271C177.887 80.6439 179.041 78.8187 179.041 78.8187L178.987 75.2307H178.994Z" fill="#FFBD9C"/>
<path d="M175.258 73.0938C175.258 73.0938 175.212 73.1327 175.235 73.1483C176.623 74.0453 177.146 75.5976 177.419 77.1498C177.076 76.5024 176.53 76.0812 175.68 76.4712C175.633 76.4946 175.664 76.557 175.703 76.557C176.343 76.5414 176.772 76.7364 177.091 77.3136C177.318 77.7192 177.435 78.2028 177.567 78.6474C177.614 78.7956 177.871 78.7722 177.848 78.6083V78.5694C178.254 76.6584 177.279 73.6788 175.251 73.0938H175.258Z" fill="#263238"/>
<path d="M287.118 84.3176L203.142 110.04L218.283 159.472L302.259 133.749L287.118 84.3176Z" fill="#F75B00"/>
<path opacity="0.2" d="M287.118 84.3176L203.142 110.04L218.283 159.472L302.259 133.749L287.118 84.3176Z" fill="black"/>
<path opacity="0.2" d="M287.107 84.3207L258.886 92.9648L274.027 142.396L302.248 133.752L287.107 84.3207Z" fill="black"/>
<path d="M285.754 86.8374C284.81 91.2132 283.882 95.589 282.985 99.9726L280.317 113.139L277.743 126.329C276.901 130.728 276.082 135.135 275.278 139.55C276.222 135.174 277.15 130.798 278.055 126.415L280.723 113.248L283.297 100.058C284.139 95.6592 284.958 91.2522 285.761 86.8374H285.754Z" fill="#F75B00"/>
<path d="M299.614 132.093C296.478 128.887 293.335 125.689 290.168 122.523L280.652 113.038L271.074 103.623C267.876 100.495 264.654 97.3832 261.417 94.2944C264.553 97.5002 267.696 100.698 270.863 103.865L280.379 113.35L289.958 122.764C293.156 125.892 296.377 129.004 299.614 132.093Z" fill="#F75B00"/>
<path d="M219.267 116.409L219.729 116.268L217.739 109.772L217.277 109.913L219.267 116.409Z" fill="#263238"/>
<path d="M218.168 116.739L218.63 116.597L216.641 110.101L216.178 110.243L218.168 116.739Z" fill="#263238"/>
<path d="M217.052 117.095L217.515 116.953L215.525 110.457L215.063 110.599L217.052 117.095Z" fill="#263238"/>
<path d="M215.954 117.407L216.416 117.265L214.427 110.769L213.965 110.91L215.954 117.407Z" fill="#263238"/>
<path d="M214.855 117.755L215.318 117.613L213.328 111.117L212.866 111.259L214.855 117.755Z" fill="#263238"/>
<path d="M213.747 118.087L214.209 117.946L212.22 111.45L211.757 111.592L213.747 118.087Z" fill="#263238"/>
<path d="M212.641 118.456L213.104 118.314L211.114 111.819L210.651 111.96L212.641 118.456Z" fill="#263238"/>
<path d="M211.532 118.78L211.995 118.639L210.004 112.143L209.541 112.285L211.532 118.78Z" fill="#263238"/>
<path d="M210.427 119.126L210.889 118.985L208.899 112.489L208.437 112.631L210.427 119.126Z" fill="#263238"/>
<path d="M222.41 108.88L220.483 108.927L224.64 107.655L223.018 108.693L223.751 111.079C225.069 110.861 225.958 111.953 226.629 114.145L222.472 115.416C221.801 113.232 221.926 111.82 223.143 111.267L222.41 108.872V108.88Z" fill="#263238"/>
<path d="M226.59 110.541L227.675 110.206L226.7 107.024L229.484 106.173L230.451 109.356L231.543 109.02L230.077 113.092L226.59 110.541Z" fill="#263238"/>
<path opacity="0.1" d="M203.136 110.042L204.376 114.091L262.424 104.52L258.89 92.9683L203.136 110.042Z" fill="black"/>
<path d="M313.131 139.355L284.911 147.997L274.03 142.397L302.25 133.747L313.131 139.355Z" fill="#F75B00"/>
<path opacity="0.2" d="M313.131 139.355L284.911 147.997L274.03 142.397L302.25 133.747L313.131 139.355Z" fill="black"/>
<path d="M212.395 170.204L240.623 161.561L246.496 150.829L218.276 159.471L212.395 170.204Z" fill="#F75B00"/>
<path opacity="0.1" d="M212.395 170.204L240.623 161.561L246.496 150.829L218.276 159.471L212.395 170.204Z" fill="black"/>
<path d="M165.937 102.414C170.063 116.212 181.553 139.83 185.796 142.74C189.548 145.322 207.558 142.974 215.452 141.266C218.408 140.626 212.339 118.115 209.196 118.864C205.421 119.761 194.189 122.007 193.385 121.368C192.512 120.666 181.654 106.571 173.862 98.2097C166.795 90.628 164.377 97.1878 165.937 102.406V102.414Z" fill="#FFBD9C"/>
<path d="M207.574 120.697C207.574 120.697 213.541 113.974 217.768 111.407C223.431 107.975 229.734 107.344 232.386 107.234C237.931 107.016 251.496 110.315 251.223 114.387C250.981 118.076 237.284 113.997 237.284 113.997C237.284 113.997 251.932 115.846 250.817 120.229C249.709 124.613 234.086 118.981 234.086 118.981C234.086 118.981 249.093 121.22 247.229 125.557C245.825 128.833 231.387 124.535 231.387 124.535C231.387 124.535 244.273 126.547 242.97 129.979C241.535 133.778 227.955 130.642 227.955 130.642C223.182 138.817 217.566 140.759 213.408 141.664C212.402 141.882 207.566 120.697 207.566 120.697H207.574Z" fill="#FFBD9C"/>
<path d="M232.269 113.03C234 113.186 235.747 113.326 237.456 113.638C239.164 113.942 240.864 114.317 242.533 114.777C246.636 115.916 249.023 117.273 248.867 117.211C245.162 115.612 239.062 114.41 237.354 114.106C235.646 113.802 233.961 113.404 232.253 113.1C232.206 113.1 232.23 113.03 232.269 113.038V113.03Z" fill="#263238"/>
<path d="M231.044 119.184C233.244 119.48 235.436 119.691 237.62 120.081C239.796 120.471 241.824 121.025 243.969 121.563C244.133 121.602 244.055 121.68 243.891 121.641C241.73 121.189 239.694 120.939 237.526 120.51C235.365 120.089 233.205 119.574 231.036 119.231C231.005 119.231 231.013 119.176 231.044 119.176V119.184Z" fill="#263238"/>
<path d="M229.047 124.269C232.433 124.542 235.755 125.447 239 126.407C239.164 126.453 239.055 126.539 238.883 126.5C235.592 125.728 233.01 125.096 229.04 124.386C228.977 124.379 228.977 124.262 229.047 124.269Z" fill="#263238"/>
<path d="M213.65 145.259L208.408 118.342L193.799 120.635C188.222 113.927 177.06 100.511 172.505 96.447C167.162 91.6812 163.504 95.082 165.337 102.141C169.533 118.287 182.263 142.116 185.71 144.456C190.656 147.81 213.65 145.259 213.65 145.259Z" fill="#F75B00"/>
<path opacity="0.1" d="M203.76 122.07C204.431 122.304 205.25 122.234 205.952 122.328C207.488 122.538 208.198 124.839 206.778 125.713C205.257 126.649 203.424 126.797 201.747 126.142C200.18 125.533 198.869 124.02 199.205 122.257C199.501 120.713 201.092 120.268 202.317 121.056C202.816 121.376 203.183 121.875 203.752 122.07H203.76ZM202.223 119.309C203.3 119.754 204.509 119.8 205.374 119.215C205.554 119.091 205.694 118.935 205.78 118.747L202.223 119.309ZM194.634 120.495C195.25 120.931 195.983 121.165 196.787 121.08C197.356 121.017 197.738 120.518 197.769 120.003L194.634 120.495ZM211.17 132.514C210.881 132.631 210.632 132.858 210.468 133.185C209.813 134.503 210.725 135.923 211.997 136.773L211.17 132.514ZM187.676 137.694C187.427 138.559 187.395 139.332 186.748 140.01C186.101 140.689 185.328 141.11 184.837 141.945C184.416 142.654 185.048 143.707 185.89 143.614C188.573 143.325 190.905 140.728 190.671 137.982C190.523 136.258 188.16 136.017 187.676 137.694ZM184.985 130.135C184.541 131.196 184.626 132.397 184.26 133.505C183.932 134.503 183.55 135.533 183.105 136.485C182.778 137.179 183.433 138.294 184.291 137.92C185.711 137.288 186.764 136.461 187.458 135.026C188.051 133.801 188.706 131.742 188.136 130.44C187.614 129.238 185.625 128.607 184.985 130.143V130.135ZM173.402 102.547C174.323 102.695 175.188 102.219 175.43 101.283C175.867 99.6061 174.369 97.8745 173.184 96.8293C171.959 95.7529 170.329 94.8325 168.668 95.3707C167.615 95.7139 167.49 96.8527 168.114 97.6249C168.839 98.5297 169.845 99.1927 170.618 100.074C171.452 101.026 172.045 102.321 173.402 102.539V102.547ZM179.369 109.161C180.024 108.217 179.517 106.829 179.049 105.924C178.8 105.448 178.418 105.004 177.942 104.739C177.294 104.38 176.312 104.427 175.945 105.168C175.703 105.651 175.727 106.088 175.851 106.587C175.914 106.837 176.007 107.047 176.117 107.289C176.132 107.32 176.14 107.344 176.148 107.359L176.163 107.422C176.39 108.147 176.53 108.951 177.084 109.504C177.809 110.238 178.862 109.902 179.377 109.153L179.369 109.161ZM177.497 116.93C177.786 116.985 178.082 116.977 178.371 116.907C178.815 116.797 179.151 116.454 179.385 116.088C179.627 115.705 179.666 115.175 179.689 114.738C179.712 114.278 179.525 113.88 179.338 113.482C179.252 113.373 179.166 113.272 179.081 113.163L178.737 112.913C178.425 112.741 178.074 112.695 177.739 112.757C177.115 112.858 176.6 113.319 176.452 113.943C176.343 114.403 176.202 114.855 176.179 115.331C176.202 115.471 176.226 115.62 176.249 115.76C176.304 115.978 176.413 116.173 176.561 116.337C176.787 116.626 177.123 116.875 177.497 116.946V116.93ZM184.08 109.083C184.08 109.083 184.073 109.075 184.073 109.068C183.566 108.483 183.051 107.89 182.552 107.313C182.06 107.274 181.577 107.539 181.436 108.124C181.327 108.561 181.405 109.044 181.421 109.497C181.421 109.692 181.413 109.887 181.405 110.089C181.389 110.386 181.444 110.674 181.499 110.963C181.592 111.548 182.318 112.008 182.879 111.961C183.495 111.915 184.041 111.509 184.19 110.885C184.338 110.277 184.244 109.684 184.08 109.083Z" fill="#030402"/>
<path d="M208.612 142.787C207.98 141.188 206.498 134.246 206.147 132.514C205.804 130.814 204.626 123.778 204.275 122C204.259 121.906 204.392 121.844 204.407 121.945C204.789 123.7 206.506 130.619 206.872 132.35C207.239 134.082 208.635 141.024 208.697 142.771C208.697 142.833 208.627 142.841 208.612 142.794V142.787Z" fill="#263238"/>
<path d="M203.791 146.016C201.396 146.149 199.002 146.203 196.607 146.188C193.019 146.047 189.275 146.266 185.874 144.838C182.887 142.631 181.303 139.183 179.455 136.102C177.115 131.906 175.102 127.538 173.137 123.17C171.218 118.779 169.393 114.34 167.747 109.84C171.725 118.545 175.609 127.304 180.087 135.759C181.849 138.747 183.394 142.225 186.108 144.425C187.099 144.955 188.308 145.174 189.47 145.369C194.189 146.047 199.002 146.055 203.783 146.024L203.791 146.016Z" fill="#263238"/>
<path d="M169.284 113.646C168.66 112.991 168.083 112.25 167.817 111.369C168.309 112.117 168.886 112.835 169.284 113.646Z" fill="#263238"/>
<path d="M181.584 106.416C185.851 110.791 189.486 115.737 193.667 120.175C193.729 120.237 193.784 120.284 193.838 120.331C193.877 120.37 193.854 120.331 193.854 120.354C193.854 120.354 193.908 120.354 193.94 120.354C195.25 120.3 198.737 119.699 200.102 119.52C202.878 119.114 205.647 118.693 208.432 118.311V118.334L208.541 119.02L208.377 118.342L208.409 118.365C203.573 119.34 198.799 120.385 193.877 120.908C193.635 120.931 193.425 120.736 193.269 120.588C189.096 116.189 185.453 111.057 181.569 106.408L181.584 106.416Z" fill="#263238"/>
<path d="M182.614 106.649C183.152 107.375 183.652 108.186 183.808 109.091C183.41 108.287 182.918 107.5 182.614 106.649Z" fill="#263238"/>
<path d="M63.3047 310.612C63.0083 303.311 63.1253 296.002 63.6089 288.717C64.5917 273.686 67.0721 258.773 70.4651 244.109C72.3761 235.856 74.7317 227.737 77.1887 219.632C77.2667 219.391 77.6567 219.453 77.5865 219.71C69.9971 248.29 63.7727 277.781 64.2017 307.492C64.3187 315.806 65.2859 323.973 66.0737 332.233C66.0971 332.452 65.7305 332.545 65.6837 332.319C64.1159 325.252 63.6089 317.842 63.3125 310.619L63.3047 310.612Z" fill="#F75B00"/>
<path d="M77.5864 219.703C77.5864 219.703 89.0836 248.882 86.5096 255.746C83.9356 262.603 78.6316 264.069 78.6316 264.069C78.6316 264.069 85.6672 274.115 80.7532 283.53C75.8392 292.952 64.9114 292.508 64.186 303.186C64.186 303.186 63.5776 258.523 77.5864 219.703Z" fill="#F75B00"/>
<path d="M65.4339 284.754C65.4183 284.708 65.4261 284.653 65.4495 284.598C67.0641 264.755 70.5819 244.974 76.6035 225.888C76.6191 225.833 76.7127 225.849 76.6971 225.911C74.4195 234.444 72.3915 243.032 70.6599 251.659C72.1497 250.122 74.1075 249.241 76.1511 248.601C76.1901 248.586 76.2057 248.64 76.1745 248.664C74.0451 249.584 72.0093 250.645 70.5039 252.447C70.1685 254.139 69.8409 255.832 69.5289 257.525C72.0951 254.654 75.6597 253.227 79.2243 251.877C79.2711 251.862 79.3023 251.932 79.2555 251.955C75.5427 253.469 71.8455 255.419 69.3261 258.617C68.4525 263.46 67.6803 268.32 67.0173 273.195C68.8971 271.229 71.2137 269.911 73.8735 269.264C73.9515 269.248 73.9983 269.365 73.9203 269.388C71.1903 270.176 68.8347 271.705 66.9705 273.842C66.9549 273.858 66.9393 273.866 66.9315 273.873C66.7053 275.589 66.4869 277.305 66.2841 279.021C67.7271 277.789 69.3261 276.845 71.0889 276.12C71.1357 276.104 71.1591 276.174 71.1123 276.19C69.3261 276.954 67.7115 278.046 66.2997 279.372C66.2763 279.388 66.2607 279.388 66.2373 279.396C66.0423 281.034 65.8551 282.664 65.6913 284.302C68.3277 281.127 71.5881 278.826 75.4413 277.337C75.5193 277.305 75.5583 277.422 75.4803 277.454C71.7285 279.084 68.4291 281.666 65.8707 284.848C65.8005 284.934 65.7069 284.949 65.6289 284.926C65.3793 287.438 65.1609 289.949 64.9737 292.469C64.9737 292.5 64.9113 292.508 64.9191 292.469C65.0673 289.887 65.2467 287.313 65.4495 284.731L65.4339 284.754Z" fill="#263238"/>
<path d="M74.6694 245.7C76.6662 244.327 79.2012 243.742 81.5802 243.547C81.6348 243.547 81.6426 243.625 81.5802 243.633C79.1076 244 77.025 244.897 74.7474 245.864C74.646 245.903 74.5758 245.755 74.6616 245.7H74.6694Z" fill="#263238"/>
<path d="M73.273 276.596C74.8486 275.652 76.6503 275.114 78.4599 274.825C78.5223 274.817 78.5301 274.911 78.4599 274.927C76.6269 275.262 74.9968 275.909 73.3276 276.728C73.2574 276.76 73.195 276.643 73.2652 276.604L73.273 276.596Z" fill="#263238"/>
<path d="M33.0796 256.222C37.8766 259.592 42.4786 263.484 46.3864 267.852C50.5516 272.517 53.5936 277.805 55.723 283.678C60.0754 295.714 62.4544 308.748 62.6728 321.532C62.7976 328.7 62.158 335.814 60.6214 342.818C60.5668 343.075 60.1846 342.997 60.2236 342.74C62.0956 330.416 62.0332 317.835 60.013 305.526C58.0396 293.452 54.9352 280.317 47.26 270.504C43.0792 265.161 37.8688 260.957 32.7208 256.612C32.4478 256.386 32.7988 256.012 33.0718 256.207L33.0796 256.222Z" fill="#F75B00"/>
<path d="M60.9805 312.85C60.9805 312.85 57.0337 306.197 51.2773 300.448C45.5287 294.7 40.6849 290.612 39.9361 286.806C39.1873 283 45.7003 280.199 45.7003 280.199C45.7003 280.199 37.7443 281.627 35.5603 278.288C33.3841 274.95 32.3311 255.598 32.3311 255.598C32.3311 255.598 46.8079 265.933 53.5549 280.426C60.3019 294.918 60.9805 312.842 60.9805 312.842V312.85Z" fill="#F75B00"/>
<path d="M37.3387 260.567C43.4305 266.549 49.5613 272.93 53.1493 280.792C54.3817 283.491 55.4269 286.283 56.3473 289.13C56.3473 289.13 56.3473 289.138 56.3473 289.146C56.5345 289.715 56.7217 290.285 56.8933 290.862C56.9089 290.893 56.9167 290.924 56.9245 290.956C58.6951 296.829 59.9509 302.897 61.0351 308.833C61.0351 308.872 60.9805 308.896 60.9727 308.849C60.3487 305.83 59.6623 302.78 58.8901 299.746C58.8589 299.746 58.8355 299.746 58.8043 299.731C57.5719 299.216 56.3317 298.888 55.0057 298.763C54.9199 298.756 54.9277 298.607 55.0135 298.607C56.3005 298.67 57.5563 298.896 58.7731 299.294C58.0711 296.556 57.3067 293.818 56.4487 291.127C53.6563 290.441 50.7391 290.074 47.8609 290.004C47.8297 290.004 47.8297 289.957 47.8609 289.957C50.7625 289.825 53.4847 290.074 56.3083 290.675C56.1601 290.215 56.0041 289.754 55.8481 289.294C53.9605 288.865 52.0651 288.499 50.1307 288.327C50.0995 288.327 50.0995 288.265 50.1307 288.265C52.0183 288.319 53.8825 288.514 55.7233 288.943C54.9355 286.611 54.0853 284.31 53.1415 282.071C52.3615 280.223 51.4333 278.46 50.4115 276.76C48.8671 276.409 47.3617 276.073 45.7783 275.933C45.7315 275.933 45.7393 275.855 45.7783 275.855C47.2213 275.761 48.7189 275.87 50.1151 276.284C49.3507 275.051 48.5551 273.85 47.6971 272.68C44.4523 271.963 41.1607 271.292 37.8379 271.916C37.7833 271.924 37.7599 271.83 37.8145 271.814C40.9735 270.98 44.1169 271.463 47.2603 272.087C46.9171 271.627 46.5661 271.183 46.2073 270.73C44.2105 270.114 42.2293 269.818 40.1389 269.779C40.0999 269.779 40.0921 269.716 40.1389 269.708C42.0499 269.529 43.9531 269.708 45.7939 270.208C43.1107 266.869 40.1467 263.741 37.2139 260.645C37.0813 260.504 37.1827 260.419 37.3309 260.559L37.3387 260.567Z" fill="#263238"/>
<path d="M37.5022 273.749C38.4538 273.647 39.421 273.538 40.3804 273.647C40.4974 273.663 40.4896 273.85 40.3726 273.85C39.421 273.881 38.4694 273.803 37.51 273.858C37.4398 273.858 37.4242 273.749 37.5022 273.741V273.749Z" fill="#263238"/>
<path d="M47.9233 292.523C49.4443 292.508 50.9653 292.913 52.3849 293.42C52.4239 293.436 52.4005 293.491 52.3615 293.483C50.8873 293.132 49.3975 292.991 47.9077 292.742C47.7829 292.718 47.7907 292.523 47.9155 292.523H47.9233Z" fill="#263238"/>
<path d="M51.0512 286.034C51.6674 286.003 52.3382 286.112 52.9466 286.205C53.009 286.213 53.009 286.315 52.9466 286.315C52.3304 286.322 51.6518 286.338 51.0512 286.229C50.942 286.205 50.9498 286.042 51.059 286.034H51.0512Z" fill="#263238"/>
<path d="M103.428 276.76C98.7713 278.382 94.1459 280.465 89.9729 283.101C85.5191 285.909 81.8375 289.489 78.7643 293.756C72.4619 302.484 67.5167 312.484 64.3889 322.788C62.6339 328.56 61.5029 334.464 61.1285 340.486C61.1129 340.704 61.4405 340.735 61.4639 340.517C62.7977 330.104 65.7617 319.941 70.2311 310.448C74.6225 301.135 80.1683 291.221 88.6469 285.059C93.2645 281.705 98.4515 279.505 103.623 277.181C103.896 277.056 103.701 276.674 103.428 276.768V276.76Z" fill="#F75B00"/>
<path d="M67.7661 316.134C67.7661 316.134 72.5007 311.665 78.4833 308.342C84.4659 305.019 89.3331 302.827 90.8151 299.926C92.2971 297.024 87.6795 293.249 87.6795 293.249C87.6795 293.249 93.7947 296.244 96.3219 294.045C98.8569 291.845 104.176 276.432 104.176 276.432C104.176 276.432 90.0663 281.455 81.2601 291.619C72.4539 301.79 67.7583 316.134 67.7583 316.134H67.7661Z" fill="#F75B00"/>
<path d="M68.4996 312.952C75.5586 299.707 84.9732 287.727 97.8744 279.817C97.8744 279.817 97.8822 279.817 97.8744 279.825C94.4814 281.986 91.3458 284.49 88.4286 287.212C91.0416 287.142 93.7014 287.555 96.0102 288.811C96.0648 288.842 96.0258 288.904 95.9712 288.889C93.3894 288.015 90.909 287.446 88.1634 287.571C88.1244 287.571 88.101 287.555 88.0776 287.539C87.6174 287.976 87.165 288.413 86.7204 288.858C88.0776 288.912 89.4504 289.107 90.7764 289.396C90.8154 289.396 90.7998 289.458 90.7686 289.45C89.3334 289.177 87.9372 289.076 86.4864 289.099C84.123 291.478 81.9234 294.013 79.833 296.658C80.7768 296.517 81.7674 296.603 82.6644 296.86C82.7346 296.876 82.7112 296.977 82.641 296.97C81.6114 296.837 80.6364 296.853 79.6146 296.931C79.2246 297.422 78.8346 297.913 78.4602 298.413C81.3618 298.241 84.201 298.514 87.0246 299.247C87.0636 299.255 87.0558 299.325 87.009 299.31C84.0996 298.74 81.1668 298.553 78.2106 298.74C77.8518 299.216 77.5086 299.707 77.1576 300.191C78.8892 300.136 80.5662 300.355 82.251 300.776C82.3134 300.792 82.2978 300.893 82.2276 300.877C80.4882 300.48 78.7254 300.378 76.9548 300.464C75.4338 302.554 73.983 304.692 72.5868 306.86C73.3278 306.704 74.1 306.79 74.8254 306.993C74.8644 307 74.8566 307.055 74.8098 307.055C73.983 306.961 73.203 307.063 72.3918 307.172C71.136 309.13 69.9192 311.103 68.757 313.092C68.6556 313.256 68.3904 313.131 68.484 312.96L68.4996 312.952Z" fill="#263238"/>
<path d="M79.4743 301.969C80.8549 301.852 82.2589 302.071 83.5771 302.469C83.6161 302.476 83.6083 302.539 83.5693 302.531C82.2121 302.281 80.8705 302.188 79.4899 302.11C79.3963 302.11 79.3807 301.977 79.4821 301.962L79.4743 301.969Z" fill="#263238"/>
<path d="M91.7825 285.823C92.4065 285.753 93.0539 285.831 93.6701 285.932C93.7403 285.948 93.7169 286.049 93.6467 286.042C93.0227 285.971 92.4144 285.995 91.7904 285.979C91.689 285.979 91.6734 285.831 91.7748 285.815L91.7825 285.823Z" fill="#263238"/>
<path d="M49.5688 359.931H81.4085L76.8689 326.664L75.7144 318.139H55.2706L54.1085 326.664L49.5688 359.931Z" fill="#455A64"/>
<path d="M54.1084 326.664H76.8688L75.7144 318.139H55.2706L54.1084 326.664Z" fill="#263238"/>
<path d="M52.338 322.397H78.6318V315.175H52.338V322.397Z" fill="#455A64"/>
<path d="M244.928 47.4009C244.928 56.9715 237.167 64.7325 227.596 64.7325C223.728 64.7325 220.155 63.4611 217.269 61.3161L208.783 63.4845L212.316 55.5753C211.006 53.1417 210.265 50.3493 210.265 47.4009C210.265 37.8303 218.026 30.0693 227.596 30.0693C237.167 30.0693 244.928 37.8303 244.928 47.4009Z" fill="white"/>
<path d="M244.928 47.393C245.053 57.416 236.059 65.6996 226.091 64.8416C222.877 64.5998 219.726 63.4376 217.105 61.5266L217.339 61.5734L208.869 63.8042L208.182 63.9836L208.471 63.3284L211.973 55.4114L211.989 55.739C207.987 48.6254 209.937 39.008 216.255 33.9146C227.628 24.5234 244.928 32.6432 244.928 47.3852V47.393ZM244.928 47.393C244.975 36.317 234.141 27.8696 223.439 30.8102C212.878 33.4388 207.426 45.8408 212.652 55.3958L212.737 55.5596L212.659 55.7234L209.095 63.617L208.697 63.149L217.207 61.043L217.339 61.0118L217.441 61.0898C219.937 62.993 222.979 64.1864 226.122 64.4828C236.052 65.5358 244.983 57.3692 244.928 47.4008V47.393Z" fill="#263238"/>
<path d="M228.805 49.273V51.184C228.805 52.003 228.189 52.6192 227.362 52.6192C226.598 52.6192 225.927 52.003 225.927 51.184V48.1264C225.927 48.1264 225.958 48.0952 225.958 48.064C225.958 48.064 225.948 48.0432 225.927 48.0016C225.927 47.2372 226.606 46.5586 227.362 46.5586C229.211 46.5586 230.708 45.0922 230.708 43.267C230.708 41.4418 229.211 39.9754 227.362 39.9754C226.161 39.9754 225.1 40.6228 224.546 41.59C224.133 42.292 223.252 42.526 222.55 42.1204C221.871 41.707 221.637 40.8568 222.05 40.1548C223.103 38.3374 225.1 37.0972 227.362 37.0972C230.771 37.0972 233.555 39.8584 233.555 43.267C233.555 46.1764 231.527 48.61 228.797 49.2574L228.805 49.273ZM228.805 55.7002V56.2306C228.805 57.0496 228.189 57.6736 227.362 57.6736C226.598 57.6736 225.927 57.0574 225.927 56.2306V55.7002C225.927 54.9046 226.606 54.265 227.362 54.265C228.181 54.265 228.805 54.9124 228.805 55.7002Z" fill="#F75B00"/>
</g>
<defs>
<clipPath id="clip0_625_6523">
<rect width="390" height="390" fill="white"/>
</clipPath>
</defs>
</svg>
