<svg width="130" height="129" viewBox="0 0 130 129" fill="none" xmlns="http://www.w3.org/2000/svg">
<rect x="0.25" width="129" height="129" rx="8.6" fill="#F9FAFB"/>
<path d="M67.975 60.2H67.9857M64.75 73.1H59.375C58.5197 73.1 57.6994 72.7602 57.0946 72.1554C56.4898 71.5506 56.15 70.7303 56.15 69.875V59.125C56.15 58.2697 56.4898 57.4494 57.0946 56.8446C57.6994 56.2398 58.5197 55.9 59.375 55.9H70.125C70.9803 55.9 71.8006 56.2398 72.4054 56.8446C73.0102 57.4494 73.35 58.2697 73.35 59.125V64.5M56.15 67.725L60.45 63.425C61.4476 62.4651 62.6774 62.4651 63.675 63.425L66.9 66.65L67.975 65.575C68.5695 65.0031 69.2456 64.772 69.9057 64.8816M70.125 74.175L74.425 69.875M75.5 72.025C75.5 73.8061 74.0561 75.25 72.275 75.25C70.4939 75.25 69.05 73.8061 69.05 72.025C69.05 70.2439 70.4939 68.8 72.275 68.8C74.0561 68.8 75.5 70.2439 75.5 72.025Z" stroke="#98A2B3" stroke-width="2.15" stroke-linecap="round" stroke-linejoin="round"/>
</svg>
