
<svg width="245" height="136" viewBox="0 0 245 136" fill="none" xmlns="http://www.w3.org/2000/svg">
<rect x="0.333374" width="244.333" height="136" rx="8" fill="#F9FAFB"/>
<path d="M125.333 64H125.343M122.333 76H117.333C116.538 76 115.775 75.6839 115.212 75.1213C114.649 74.5587 114.333 73.7956 114.333 73V63C114.333 62.2044 114.649 61.4413 115.212 60.8787C115.775 60.3161 116.538 60 117.333 60H127.333C128.129 60 128.892 60.3161 129.455 60.8787C130.017 61.4413 130.333 62.2044 130.333 63V68M114.333 71L118.333 67C119.261 66.107 120.405 66.107 121.333 67L124.333 70L125.333 69C125.886 68.468 126.515 68.253 127.129 68.355M127.333 77L131.333 73M132.333 75C132.333 76.6569 130.99 78 129.333 78C127.677 78 126.333 76.6569 126.333 75C126.333 73.3431 127.677 72 129.333 72C130.99 72 132.333 73.3431 132.333 75Z" stroke="#98A2B3" stroke-width="2" stroke-linecap="round" stroke-linejoin="round"/>
</svg>
