<svg width="111" height="32" viewBox="0 0 111 32" fill="none" xmlns="http://www.w3.org/2000/svg">
<g clip-path="url(#clip0_2178_3249)">
<path d="M50.2585 11.3664C50.3672 11.4752 50.4247 11.6288 50.4247 11.8208V21.6192C50.4247 23.2832 49.9133 24.5888 48.8969 25.5296C47.8805 26.4704 46.4613 26.944 44.6458 26.944C42.7089 26.944 41.0532 26.4896 39.6788 25.568C39.487 25.4464 39.3847 25.2928 39.3847 25.1136C39.3847 24.9856 39.4359 24.8576 39.5318 24.7168L40.3436 23.5328C40.4843 23.3408 40.6441 23.2384 40.8231 23.2384C40.9509 23.2384 41.0788 23.2768 41.2194 23.36C41.6605 23.6544 42.1591 23.8784 42.7153 24.0384C43.2714 24.1984 43.8404 24.2752 44.4221 24.2752C46.3782 24.2752 47.3499 23.3856 47.3499 21.6128V21.4272C46.5317 22.1056 45.4641 22.4448 44.1472 22.4448C42.9582 22.4448 41.9034 22.1952 40.9893 21.696C40.0751 21.1968 39.3656 20.5056 38.8669 19.616C38.3811 18.7264 38.1382 17.7664 38.1382 16.7232C38.1382 15.68 38.3811 14.6688 38.8669 13.8112C39.3528 12.9536 40.0496 12.2624 40.9637 11.7504C41.8523 11.2384 42.9134 10.9824 44.1408 10.9824C45.4577 10.9824 46.5253 11.3216 47.3435 12V11.8144C47.3435 11.6224 47.401 11.4688 47.5097 11.36C47.6184 11.2512 47.7718 11.1936 47.9636 11.1936H49.7919C49.9836 11.1936 50.1371 11.2512 50.2521 11.36L50.2585 11.3664ZM45.9244 19.4304C46.4038 19.1616 46.781 18.784 47.0558 18.2976C47.3307 17.8112 47.4714 17.2928 47.4714 16.736C47.4714 16.1792 47.3371 15.6288 47.0686 15.1552C46.8001 14.6816 46.423 14.3104 45.9371 14.0288C45.4641 13.7664 44.9335 13.632 44.339 13.632C43.4121 13.632 42.6577 13.9264 42.076 14.5088C41.4943 15.0912 41.2002 15.8336 41.2002 16.736C41.2002 17.6384 41.4815 18.4128 42.0504 18.9824C42.6194 19.552 43.3801 19.8336 44.339 19.8336C44.9207 19.8336 45.4513 19.6992 45.9307 19.4304H45.9244Z" fill="#1E1E1E"/>
<path d="M60.7744 22.4766C60.6657 22.3678 60.6082 22.2142 60.6082 22.0222V21.5038C60.3333 21.8814 59.8666 22.2078 59.2146 22.483C58.5625 22.7582 57.8721 22.899 57.137 22.899C55.9735 22.899 54.9571 22.6366 54.0813 22.1182C53.2055 21.5998 52.5407 20.8766 52.0868 19.9422C51.6266 19.0398 51.4028 18.035 51.4028 16.9278C51.4028 15.8206 51.633 14.7902 52.0996 13.8878C52.5663 12.9854 53.2247 12.2686 54.0813 11.7438C54.9379 11.219 55.9607 10.9502 57.137 10.9502C57.8977 10.9502 58.5817 11.0846 59.1954 11.347C59.8027 11.6094 60.2757 11.955 60.6082 12.3902V11.827C60.6082 11.635 60.6657 11.4814 60.7744 11.3726C60.883 11.2638 61.0365 11.2062 61.2282 11.2062H63.0565C63.2483 11.2062 63.4017 11.2638 63.5168 11.3726C63.6255 11.4814 63.683 11.635 63.683 11.827V22.0222C63.683 22.2142 63.6255 22.3678 63.5168 22.4766C63.4081 22.5854 63.2547 22.643 63.0565 22.643H61.2282C61.0365 22.643 60.883 22.5854 60.7744 22.4766ZM59.8666 14.5726C59.2913 13.9774 58.5306 13.6766 57.5909 13.6766C56.6511 13.6766 55.8712 13.9774 55.3023 14.5726C54.7334 15.1678 54.4521 15.955 54.4521 16.9214C54.4521 17.8878 54.7462 18.6366 55.3279 19.2382C55.9096 19.8398 56.6639 20.1406 57.5909 20.1406C58.5178 20.1406 59.3296 19.8526 59.8858 19.2766C60.4483 18.7006 60.7296 17.9134 60.7296 16.915C60.7296 15.9166 60.4419 15.1614 59.8666 14.5662V14.5726Z" fill="#1E1E1E"/>
<path d="M71.9934 11.1615C72.1021 11.2703 72.1596 11.4303 72.1596 11.6415V13.4079C72.1596 13.7855 71.9487 13.9903 71.5332 14.0351C71.0921 14.0607 70.6446 14.1695 70.2035 14.3551C69.7624 14.5407 69.3597 14.8287 68.9953 15.2191C68.4967 15.7631 68.2474 16.5503 68.2474 17.5935V22.0223C68.2474 22.2143 68.1898 22.3679 68.0812 22.4767C67.9725 22.5855 67.8191 22.6431 67.6209 22.6431H65.7734C65.5817 22.6431 65.4282 22.5855 65.3132 22.4767C65.2045 22.3679 65.147 22.2143 65.147 22.0223V11.8271C65.147 11.6351 65.2045 11.4815 65.3132 11.3727C65.4219 11.2639 65.5753 11.2063 65.7734 11.2063H67.6209C67.8127 11.2063 67.9661 11.2639 68.0812 11.3727C68.1898 11.4815 68.2474 11.6351 68.2474 11.8271V12.7231C68.6501 12.1983 69.1423 11.7951 69.7241 11.5135C70.3058 11.2319 70.9067 11.0719 71.5332 11.0143C71.7249 11.0015 71.8784 11.0463 71.9934 11.1615Z" fill="#1E1E1E"/>
<path d="M81.0771 22.4766C80.9684 22.3678 80.9109 22.2142 80.9109 22.0222V21.5038C80.636 21.8814 80.1694 22.2078 79.5173 22.483C78.8653 22.7582 78.1749 22.899 77.4397 22.899C76.2763 22.899 75.2598 22.6366 74.3841 22.1182C73.5083 21.5998 72.8434 20.8766 72.3896 19.9422C71.9293 19.0398 71.7056 18.035 71.7056 16.9278C71.7056 15.8206 71.9357 14.7902 72.4024 13.8878C72.869 12.9854 73.5275 12.2686 74.3841 11.7438C75.2407 11.219 76.2635 10.9502 77.4397 10.9502C78.2004 10.9502 78.8844 11.0846 79.4981 11.347C80.1054 11.6094 80.5785 11.955 80.9109 12.3902V11.827C80.9109 11.635 80.9684 11.4814 81.0771 11.3726C81.1858 11.2638 81.3392 11.2062 81.531 11.2062H83.3592C83.551 11.2062 83.7044 11.2638 83.8195 11.3726C83.9282 11.4814 83.9857 11.635 83.9857 11.827V22.0222C83.9857 22.2142 83.9282 22.3678 83.8195 22.4766C83.7108 22.5854 83.5574 22.643 83.3592 22.643H81.531C81.3392 22.643 81.1858 22.5854 81.0771 22.4766ZM80.1694 14.5726C79.594 13.9774 78.8333 13.6766 77.8936 13.6766C76.9539 13.6766 76.174 13.9774 75.605 14.5726C75.0361 15.1678 74.7548 15.955 74.7548 16.9214C74.7548 17.8878 75.0489 18.6366 75.6306 19.2382C76.2123 19.8398 76.9667 20.1406 77.8936 20.1406C78.8205 20.1406 79.6324 19.8526 80.1885 19.2766C80.7511 18.7006 81.0324 17.9134 81.0324 16.915C81.0324 15.9166 80.7447 15.1614 80.1694 14.5662V14.5726Z" fill="#1E1E1E"/>
<path d="M97.0779 11.3664C97.1865 11.4752 97.2441 11.6288 97.2441 11.8208V21.6192C97.2441 23.2832 96.7327 24.5888 95.7162 25.5296C94.6998 26.4704 93.2807 26.944 91.4652 26.944C89.5282 26.944 87.8725 26.4896 86.4981 25.568C86.3064 25.4464 86.2041 25.2928 86.2041 25.1136C86.2041 24.9856 86.2552 24.8576 86.3511 24.7168L87.163 23.5328C87.3036 23.3408 87.4634 23.2384 87.6424 23.2384C87.7703 23.2384 87.8981 23.2768 88.0388 23.36C88.4798 23.6544 88.9785 23.8784 89.5346 24.0384C90.0908 24.1984 90.6597 24.2752 91.2414 24.2752C93.1976 24.2752 94.1692 23.3856 94.1692 21.6128V21.4272C93.351 22.1056 92.2834 22.4448 90.9666 22.4448C89.7775 22.4448 88.7228 22.1952 87.8086 21.696C86.8945 21.1968 86.1849 20.5056 85.6863 19.616C85.2004 18.7264 84.9575 17.7664 84.9575 16.7232C84.9575 15.68 85.2004 14.6688 85.6863 13.8112C86.1721 12.9536 86.8689 12.2624 87.7831 11.7504C88.6716 11.2384 89.7328 10.9824 90.9602 10.9824C92.277 10.9824 93.3446 11.3216 94.1629 12V11.8144C94.1629 11.6224 94.2204 11.4688 94.3291 11.36C94.4377 11.2512 94.5912 11.1936 94.7829 11.1936H96.6112C96.803 11.1936 96.9564 11.2512 97.0715 11.36L97.0779 11.3664ZM92.7437 19.4304C93.2231 19.1616 93.6003 18.784 93.8752 18.2976C94.1501 17.8112 94.2907 17.2928 94.2907 16.736C94.2907 16.1792 94.1565 15.6288 93.888 15.1552C93.6195 14.6816 93.2423 14.3104 92.7565 14.0288C92.2834 13.7664 91.7528 13.632 91.1583 13.632C90.2314 13.632 89.4771 13.9264 88.8954 14.5088C88.3136 15.0912 88.0196 15.8336 88.0196 16.736C88.0196 17.6384 88.3008 18.4128 88.8698 18.9824C89.4387 19.552 90.1994 19.8336 91.1583 19.8336C91.7401 19.8336 92.2706 19.6992 92.7501 19.4304H92.7437Z" fill="#1E1E1E"/>
<path d="M101.591 22.3294C100.664 21.9262 99.8778 21.3054 99.2449 20.4606C98.5673 19.571 98.2285 18.4062 98.2285 16.9662C98.2285 15.7886 98.5034 14.7454 99.0468 13.843C99.5965 12.9406 100.338 12.243 101.278 11.7502C102.217 11.2574 103.272 11.0142 104.436 11.0142C105.459 11.0142 106.417 11.2382 107.312 11.6926C108.207 12.147 108.936 12.7934 109.505 13.6382C109.876 14.195 110.119 14.7326 110.234 15.2638C110.342 15.7886 110.4 16.4094 110.4 17.1134C110.4 17.4078 110.323 17.6446 110.17 17.843C110.016 18.035 109.805 18.1374 109.524 18.1374H101.316C101.47 18.8606 101.847 19.3854 102.46 19.7182C103.074 20.051 103.726 20.2174 104.436 20.2174C105.005 20.2174 105.49 20.1342 105.893 19.9678C106.296 19.8014 106.654 19.5646 106.974 19.2574C107.153 19.1038 107.319 19.027 107.472 19.027C107.6 19.027 107.722 19.0654 107.843 19.1486L109.192 19.9422C109.416 20.0702 109.524 20.2174 109.524 20.403C109.524 20.5118 109.467 20.6462 109.358 20.7998C108.086 22.227 106.443 22.9438 104.429 22.9438C103.458 22.9438 102.512 22.7454 101.585 22.3422L101.591 22.3294ZM102.326 14.3614C101.776 14.7774 101.47 15.2958 101.399 15.923H107.114C107.076 15.5518 106.935 15.1934 106.699 14.8606C106.462 14.5278 106.149 14.259 105.765 14.0478C105.375 13.8366 104.928 13.7342 104.417 13.7342C103.573 13.7342 102.876 13.9454 102.326 14.3614Z" fill="#1E1E1E"/>
<path d="M11.1742 4.8C14.0381 4.8 16.6463 5.8752 18.628 7.648C19.1458 8.1088 19.8937 8.1856 20.4882 7.84L24.7265 5.3888C25.7557 4.7936 25.7941 3.3216 24.8032 2.6624C22.2718 0.9856 19.2353 0 15.9687 0C7.3323 0 0.306844 6.8544 0 15.424C0.300452 9.504 5.18439 4.8 11.1742 4.8Z" fill="#F75B00"/>
<path d="M31.5538 12.4546C31.3876 11.725 30.742 11.2002 29.994 11.2002H9.58249C9.58249 11.2002 8.1953 11.2002 8.00991 15.0658C7.99074 15.3538 7.98434 15.6674 7.98434 16.0002C7.98434 16.8322 8.02909 17.5234 8.1122 18.093C8.451 20.4802 9.33957 20.7618 9.54414 20.7938H9.58249H21.2809C19.4846 24.5762 15.6363 27.1938 11.1742 27.1938C5.18439 27.2002 0.300452 22.4962 0 16.5762C0.313237 25.389 7.73503 32.3842 16.6974 31.981C24.8672 31.6162 31.5219 24.9858 31.9246 16.813C32.0013 15.309 31.8671 13.8498 31.5474 12.4546H31.5538Z" fill="#F75B00"/>
</g>
<defs>
<clipPath id="clip0_2178_3249">
<rect width="110.4" height="32" fill="white"/>
</clipPath>
</defs>
</svg>
