
<svg width="391" height="294" viewBox="0 0 391 294" fill="none" xmlns="http://www.w3.org/2000/svg">
<path d="M79.4164 220.546C79.4164 220.546 110.936 260.459 164.803 262.081C218.67 263.704 266.843 230.101 306.584 203.956C346.325 177.81 359.366 134.005 339.523 97.8755C319.68 61.7459 283.675 74.1245 240.463 48.7355C197.251 23.3465 189.506 10.0319 139.344 12.3095C89.182 14.5871 47.725 68.1575 49.5502 128.171C51.3754 188.184 79.4164 220.546 79.4164 220.546Z" fill="#F2F4F7"/>
<path opacity="0.7" d="M79.4164 220.546C79.4164 220.546 110.936 260.459 164.803 262.081C218.67 263.704 266.843 230.101 306.584 203.956C346.325 177.81 359.366 134.005 339.523 97.8755C319.68 61.7459 283.675 74.1245 240.463 48.7355C197.251 23.3465 189.506 10.0319 139.344 12.3095C89.182 14.5871 47.725 68.1575 49.5502 128.171C51.3754 188.184 79.4164 220.546 79.4164 220.546Z" fill="white"/>
<path d="M89.1979 23.0425C89.1511 23.0425 89.7439 20.1331 89.7985 19.9225C90.4693 17.8399 92.9965 14.2207 95.4379 14.2285C95.8446 14.24 96.2443 14.3371 96.611 14.5135C96.9776 14.6899 97.3029 14.9416 97.5657 15.2522C97.8284 15.5628 98.0227 15.9253 98.1359 16.3161C98.2491 16.7069 98.2786 17.1172 98.2225 17.5201C98.0431 19.2361 96.4987 20.7025 95.1025 21.5449C93.4645 22.5667 89.1979 23.0425 89.1979 23.0425Z" fill="#F2F4F7"/>
<path d="M84.4715 3.48016C86.8115 4.30696 87.9191 8.56576 87.8411 10.7498C87.8411 10.937 87.4043 13.8698 87.3653 13.8698H87.3184C87.4978 14.5406 87.6929 15.266 87.8879 16.0616C88.2311 17.528 88.6055 19.1816 88.8941 21.0224C89.2287 22.9943 89.4475 24.9841 89.5492 26.9816C89.6737 29.2198 89.598 31.4648 89.323 33.6896C89.3194 33.7154 89.3194 33.7417 89.323 33.7676C89.6272 33.1202 90.5321 31.3262 90.6101 31.2014C91.8113 29.3762 95.1965 26.5214 97.5599 27.2C97.9479 27.3183 98.3066 27.5171 98.6127 27.7835C98.9187 28.0498 99.1651 28.3777 99.3359 28.7457C99.5066 29.1137 99.5979 29.5136 99.6037 29.9193C99.6094 30.3249 99.5296 30.7272 99.3695 31.1C98.7455 32.7068 96.8735 33.713 95.3057 34.1576C93.5351 34.6646 89.5883 34.0718 89.2763 34.0172C88.9427 36.2753 88.458 38.5085 87.8255 40.7018C87.4615 41.981 87.0663 43.2576 86.6399 44.5316C86.9129 43.9778 87.1702 43.4864 87.2092 43.424C88.4104 41.591 91.8035 38.744 94.1591 39.4226C94.5471 39.5409 94.9058 39.7397 95.2119 40.0061C95.5179 40.2724 95.7643 40.6003 95.9351 40.9683C96.1058 41.3363 96.1971 41.7362 96.2029 42.1419C96.2086 42.5475 96.1288 42.9498 95.9687 43.3226C95.3447 44.9294 93.4727 45.9356 91.9049 46.3802C90.3371 46.8248 86.9363 46.3802 86.0471 46.2632L85.5557 47.7296C84.7757 50.0696 83.9255 52.4096 83.2157 54.7028C82.9583 55.4828 82.7321 56.3252 82.5059 57.1364C82.7555 56.645 82.9661 56.2316 83.005 56.1692C84.1985 54.344 87.5915 51.4892 89.9471 52.1678C90.3344 52.2874 90.6923 52.4868 90.9979 52.7532C91.3034 53.0197 91.5497 53.3471 91.721 53.7146C91.8922 54.082 91.9845 54.4813 91.992 54.8866C91.9995 55.2919 91.922 55.6942 91.7645 56.0678C91.1405 57.6824 89.2607 58.6808 87.6929 59.1332C86.1251 59.5856 83.0596 59.1878 81.9988 59.0396C81.7882 59.8742 81.5855 60.7088 81.4217 61.5278C81.3203 62.0972 81.1877 62.6276 81.1175 63.197L80.8834 64.874C80.7742 65.9426 80.6495 67.0424 80.5715 68.0876C80.5091 68.813 80.4622 69.5072 80.4155 70.2092C80.6651 69.4292 81.1954 67.8146 81.1954 67.6898C82.0592 65.9737 83.3482 64.5075 84.9395 63.431C85.0243 63.2322 85.1316 63.0437 85.2592 62.8694C85.4801 62.5286 85.7703 62.2382 86.111 62.0173C86.4518 61.7964 86.8353 61.6498 87.2365 61.5872C87.6377 61.5247 88.0476 61.5475 88.4394 61.6542C88.8313 61.7608 89.1961 61.949 89.5103 62.2064C91.3667 63.8054 90.8986 68.1889 90.0484 70.2014C90.0016 70.3184 89.3075 71.543 88.8629 72.3152C89.1983 71.9018 89.5103 71.4962 89.8613 71.0828C90.5399 70.2482 91.2419 69.437 91.9907 68.5634L93.1372 67.3232C93.5116 66.902 93.9641 66.5432 94.3775 66.083C95.3525 65.1392 96.3898 64.2266 97.4585 63.3296C96.733 62.7368 94.1747 60.584 93.4415 59.1176C92.7083 57.6512 92.1856 55.5998 92.9501 54.0476C93.1182 53.6774 93.3622 53.3467 93.6663 53.0769C93.9704 52.8071 94.3279 52.6042 94.7154 52.4814C95.103 52.3585 95.512 52.3186 95.9161 52.364C96.3201 52.4094 96.71 52.5392 97.0607 52.745C99.1277 54.0476 99.3383 58.4546 98.8001 60.545C98.8001 60.6776 98.2073 62.1518 97.8875 62.9552C98.5349 62.4248 99.1745 61.8944 99.8453 61.3952C101.78 59.9054 103.784 58.4468 105.773 56.9882L107.591 55.6466C107.333 55.436 104.244 52.94 103.418 51.2942C102.692 49.8356 102.162 47.7764 102.926 46.232C103.093 45.861 103.337 45.5294 103.641 45.2589C103.945 44.9883 104.303 44.785 104.69 44.6621C105.078 44.5391 105.488 44.4994 105.892 44.5455C106.296 44.5915 106.687 44.7223 107.037 44.9294C109.112 46.2242 109.314 50.6312 108.776 52.7294C108.737 52.8854 107.934 55.007 107.708 55.5374C109.034 54.5468 110.352 53.5484 111.608 52.5032C113.316 51.1103 114.932 49.6069 116.444 48.0026C116.327 47.9012 113.09 45.3116 112.247 43.6346C111.514 42.176 110.991 40.109 111.756 38.5646C111.923 38.1946 112.166 37.8641 112.47 37.5943C112.773 37.3245 113.13 37.1216 113.517 36.9988C113.904 36.8759 114.312 36.8359 114.716 36.8812C115.119 36.9265 115.509 37.0563 115.859 37.262C117.933 38.5646 118.144 42.9716 117.606 45.062C117.606 45.2024 116.958 46.817 116.654 47.5814L116.771 47.6594C118.249 46.0011 119.577 44.2158 120.741 42.3242C121.397 41.2868 121.958 40.265 122.489 39.2588C121.833 38.8376 118.877 36.8798 117.949 35.4524C117.021 34.025 116.319 32.0906 116.904 30.4682C117.029 30.0814 117.235 29.7254 117.507 29.4234C117.779 29.1214 118.112 28.8801 118.483 28.7152C118.855 28.5504 119.257 28.4657 119.664 28.4667C120.07 28.4677 120.472 28.5543 120.843 28.721C123.05 29.7896 123.737 34.181 123.432 36.3104C123.432 36.4274 123.12 37.6052 122.894 38.4554C123.12 37.9952 123.37 37.5272 123.581 37.0826C124.361 35.4212 125.024 33.8456 125.57 32.4026C125.882 31.6226 126.139 30.8816 126.35 30.1952C125.921 29.4152 124.251 26.42 124.088 24.7352C123.924 23.0504 124.189 21.0068 125.46 19.8368C125.75 19.5519 126.096 19.3311 126.477 19.1888C126.857 19.0465 127.263 18.9859 127.668 19.011C128.074 19.036 128.469 19.146 128.83 19.334C129.19 19.522 129.506 19.7836 129.758 20.102C131.225 22.0598 129.828 26.2484 128.565 28.0268C128.456 28.1828 126.467 30.3668 126.443 30.3668V30.32C126.225 30.983 125.991 31.6928 125.71 32.4572C125.195 33.8768 124.595 35.468 123.822 37.1372C123.006 38.9636 122.087 40.7423 121.069 42.4646C119.933 44.3964 118.628 46.2236 117.169 47.9246L117.114 47.987C117.723 47.6126 119.454 46.6142 119.603 46.5518C121.615 45.6938 125.999 45.2102 127.605 47.051C127.864 47.3642 128.054 47.7285 128.162 48.1199C128.271 48.5114 128.296 48.9213 128.236 49.323C128.175 49.7247 128.031 50.1093 127.812 50.4516C127.593 50.7939 127.305 51.0863 126.966 51.3098C125.554 52.3082 123.44 52.0898 121.88 51.6218C120.125 51.0602 117.2 48.3926 116.935 48.1742C115.412 49.8738 113.775 51.4686 112.037 52.9478C111.03 53.8136 109.985 54.656 108.917 55.4906C109.455 55.1786 109.938 54.9056 110.009 54.8744C112.013 54.0164 116.397 53.5328 118.004 55.3736C118.263 55.6863 118.454 56.0505 118.563 56.4421C118.673 56.8338 118.698 57.2441 118.638 57.6462C118.577 58.0483 118.433 58.4331 118.213 58.7754C117.994 59.1177 117.704 59.4097 117.364 59.6324C115.96 60.6308 113.838 60.4124 112.286 59.9444C110.734 59.4764 108.137 57.2144 107.466 56.6138C107.052 56.9258 106.686 57.2456 106.241 57.5654C104.283 59.063 102.341 60.5528 100.43 62.0816C99.7672 62.612 99.1355 63.1658 98.4959 63.7196L99.4475 63.1892C101.452 62.3312 105.836 61.8398 107.442 63.6806C107.701 63.9945 107.891 64.3593 108 64.7514C108.108 65.1435 108.133 65.554 108.073 65.9563C108.013 66.3587 107.868 66.7438 107.65 67.0868C107.431 67.4298 107.142 67.7229 106.803 67.9472C105.399 68.9455 103.277 68.7271 101.725 68.2514C100.173 67.7756 97.8251 65.7398 97.0451 65.03C96.4132 65.615 95.7737 66.2 95.1887 66.7928C94.7909 67.2062 94.4087 67.5728 94.0187 68.0174L92.8955 69.281C92.2169 70.1156 91.507 70.9658 90.8596 71.7926C90.4072 72.362 89.9861 72.9158 89.5649 73.4774C90.2123 72.9314 91.5226 71.9174 91.6397 71.8238C93.4883 70.6693 97.7549 69.4838 99.6191 71.1062C99.9212 71.3775 100.163 71.7095 100.328 72.0804C100.494 72.4513 100.579 72.8529 100.579 73.259C100.579 73.6651 100.494 74.0666 100.328 74.4375C100.163 74.8084 99.9212 75.1404 99.6191 75.4118C98.3711 76.613 96.2494 76.7378 94.6426 76.4882C92.8642 76.2074 89.6507 74.1482 89.2529 73.8518C88.5509 74.78 87.8801 75.677 87.2561 76.5428C85.0955 79.5302 83.4107 82.1042 82.2563 83.9137L82.1392 84.101L80.6417 83.3755L80.8757 83.0168C82.0847 81.2072 83.8474 78.6488 86.0938 75.6848C86.8036 74.741 87.5758 73.7504 88.3792 72.7442C87.5438 71.8312 86.7624 70.8702 86.0392 69.866C84.3154 70.5446 80.743 70.568 80.2751 70.568C80.2049 71.7224 80.1425 72.8534 80.0957 73.9142C79.9397 77.5958 79.9552 80.669 79.9942 82.8218V83.0714L78.3484 82.2914C78.3484 80.1542 78.4342 77.2682 78.6526 73.8518C78.7228 72.6818 78.8243 71.426 78.9413 70.139C78.4811 70.022 74.7605 69.0704 73.3565 67.9472C72.0851 66.9254 70.7435 65.2796 70.7903 63.548C70.7871 63.1417 70.8696 62.7394 71.0322 62.3671C71.1949 61.9949 71.4341 61.661 71.7343 61.3873C72.0344 61.1136 72.3889 60.9062 72.7746 60.7785C73.1602 60.6509 73.5684 60.6058 73.9726 60.6464C76.3984 60.9584 78.4343 64.874 78.8321 67.019C78.8321 67.1516 78.9569 68.579 79.0037 69.437C79.0583 68.9144 79.0972 68.3996 79.1596 67.877C79.261 66.8084 79.4015 65.7476 79.5496 64.601C79.6354 64.0472 79.7291 63.4934 79.8149 62.9318C79.9007 62.3702 80.0489 61.793 80.1659 61.2158C80.4623 59.8898 80.821 58.556 81.2188 57.2222C80.2828 57.1286 76.9679 56.7386 75.5483 55.9196C74.1287 55.1006 72.5531 53.681 72.3425 51.965C72.2772 51.5636 72.2974 51.153 72.4015 50.7599C72.5056 50.3668 72.6914 50 72.9468 49.6836C73.2022 49.3671 73.5214 49.108 73.8836 48.9232C74.2458 48.7384 74.6429 48.632 75.0491 48.611C77.4905 48.5564 80.0957 52.1132 80.8133 54.1802C80.8601 54.305 81.2111 55.8416 81.3905 56.6918C81.6322 55.9118 81.8663 55.0928 82.1705 54.2894C82.9504 51.9494 83.8319 49.664 84.6899 47.3474C84.9551 46.6376 85.2047 45.9278 85.4699 45.218C85.1345 45.218 81.1799 44.8046 79.5887 43.892C78.1769 43.112 76.6013 41.6534 76.3829 39.9374C76.3189 39.5361 76.3399 39.126 76.4445 38.7334C76.5492 38.3408 76.7351 37.9746 76.9902 37.6584C77.2454 37.3422 77.5641 37.0832 77.9257 36.898C78.2873 36.7128 78.6838 36.6056 79.0895 36.5834C81.5387 36.5288 84.1439 40.0856 84.8615 42.1526C84.9161 42.3086 85.4153 44.4926 85.5167 45.0854C86.0783 43.5254 86.6321 41.9654 87.0767 40.4054C87.7363 38.2993 88.2574 36.1523 88.6367 33.9782C88.4807 33.9782 84.3544 33.5882 82.7242 32.6522C81.3046 31.8722 79.729 30.4136 79.5184 28.6976C79.4532 28.2966 79.4733 27.8863 79.5775 27.4937C79.6817 27.101 79.8676 26.7348 80.1231 26.4189C80.3786 26.103 80.6979 25.8447 81.0601 25.6607C81.4223 25.4768 81.8193 25.3713 82.225 25.3514C84.6665 25.289 87.2717 28.8458 87.9893 30.9128C88.036 31.0454 88.4261 32.7302 88.5899 33.5414H88.7225C89.0446 31.3443 89.1699 29.1229 89.0968 26.9036C89.0968 25.679 88.9799 24.5168 88.8629 23.3858C88.0829 23.3858 84.5417 23.3858 82.9817 22.7072C81.4217 22.0286 79.7603 20.8118 79.3546 19.1348C79.2465 18.7419 79.2224 18.3307 79.2842 17.9279C79.3459 17.5251 79.492 17.14 79.7129 16.7976C79.9338 16.4552 80.2245 16.1633 80.566 15.941C80.9075 15.7188 81.2921 15.5711 81.6946 15.5078C84.1205 15.1724 87.1 18.4328 88.0438 20.3984C88.0906 20.5076 88.4963 21.6542 88.7692 22.4966C88.7146 21.9818 88.6601 21.4514 88.5899 20.9366C88.3481 19.1036 88.0049 17.4422 87.6929 15.968C87.5057 15.1334 87.3262 14.408 87.1468 13.6826C86.3668 13.2926 83.3093 11.6858 82.2641 10.391C81.2189 9.09616 80.2829 7.21636 80.7041 5.54716C80.7973 5.15298 80.9722 4.78276 81.2175 4.46046C81.4629 4.13815 81.7731 3.87094 82.1282 3.6761C82.4833 3.48127 82.8754 3.36315 83.279 3.3294C83.6827 3.29565 84.0889 3.34701 84.4715 3.48016Z" fill="#F2F4F7"/>
<path d="M128.678 41.1463C126.767 41.0683 122.945 39.1105 122.945 39.1105C122.945 39.1105 124.997 36.9811 125.145 36.8641C126.853 35.5069 130.956 33.8767 132.992 35.2339C133.324 35.4671 133.604 35.7678 133.813 36.1166C134.021 36.4653 134.154 36.8542 134.202 37.2577C134.25 37.6612 134.212 38.0702 134.091 38.4581C133.969 38.8459 133.768 39.2038 133.499 39.5083C132.407 40.8421 130.309 41.2165 128.678 41.1463Z" fill="#F2F4F7"/>
<g opacity="0.5">
<path d="M89.2058 23.0425C89.159 23.0425 89.7518 20.1331 89.8064 19.9225C90.4772 17.8399 93.0044 14.2207 95.4458 14.2285C95.8524 14.24 96.2521 14.3371 96.6188 14.5135C96.9854 14.6899 97.3107 14.9416 97.5735 15.2522C97.8362 15.5628 98.0306 15.9253 98.1437 16.3161C98.2569 16.7069 98.2864 17.1172 98.2304 17.5201C98.051 19.2361 96.5066 20.7025 95.1104 21.5449C93.4724 22.5667 89.2058 23.0425 89.2058 23.0425Z" fill="white"/>
<path d="M84.4715 3.48016C86.8115 4.30696 87.9191 8.56576 87.8411 10.7498C87.8411 10.937 87.4043 13.8698 87.3653 13.8698H87.3184C87.4978 14.5406 87.6929 15.266 87.8879 16.0616C88.2311 17.528 88.6055 19.1816 88.8941 21.0224C89.2287 22.9943 89.4475 24.9841 89.5492 26.9816C89.6737 29.2198 89.598 31.4648 89.323 33.6896C89.3194 33.7154 89.3194 33.7417 89.323 33.7676C89.6272 33.1202 90.5321 31.3262 90.6101 31.2014C91.8113 29.3762 95.1965 26.5214 97.5599 27.2C97.9479 27.3183 98.3066 27.5171 98.6127 27.7835C98.9187 28.0498 99.1651 28.3777 99.3359 28.7457C99.5066 29.1137 99.5979 29.5136 99.6037 29.9193C99.6094 30.3249 99.5296 30.7272 99.3695 31.1C98.7455 32.7068 96.8735 33.713 95.3057 34.1576C93.5351 34.6646 89.5883 34.0718 89.2763 34.0172C88.9427 36.2753 88.458 38.5085 87.8255 40.7018C87.4615 41.981 87.0663 43.2576 86.6399 44.5316C86.9129 43.9778 87.1702 43.4864 87.2092 43.424C88.4104 41.591 91.8035 38.744 94.1591 39.4226C94.5471 39.5409 94.9058 39.7397 95.2119 40.0061C95.5179 40.2724 95.7643 40.6003 95.9351 40.9683C96.1058 41.3363 96.1971 41.7362 96.2029 42.1419C96.2086 42.5475 96.1288 42.9498 95.9687 43.3226C95.3447 44.9294 93.4727 45.9356 91.9049 46.3802C90.3371 46.8248 86.9363 46.3802 86.0471 46.2632L85.5557 47.7296C84.7757 50.0696 83.9255 52.4096 83.2157 54.7028C82.9583 55.4828 82.7321 56.3252 82.5059 57.1364C82.7555 56.645 82.9661 56.2316 83.005 56.1692C84.1985 54.344 87.5915 51.4892 89.9471 52.1678C90.3344 52.2874 90.6923 52.4868 90.9979 52.7532C91.3034 53.0197 91.5497 53.3471 91.721 53.7146C91.8922 54.082 91.9845 54.4813 91.992 54.8866C91.9995 55.2919 91.922 55.6942 91.7645 56.0678C91.1405 57.6824 89.2607 58.6808 87.6929 59.1332C86.1251 59.5856 83.0596 59.1878 81.9988 59.0396C81.7882 59.8742 81.5855 60.7088 81.4217 61.5278C81.3203 62.0972 81.1877 62.6276 81.1175 63.197L80.8834 64.874C80.7742 65.9426 80.6495 67.0424 80.5715 68.0876C80.5091 68.813 80.4622 69.5072 80.4155 70.2092C80.6651 69.4292 81.1954 67.8146 81.1954 67.6898C82.0592 65.9737 83.3482 64.5075 84.9395 63.431C85.0243 63.2322 85.1316 63.0437 85.2592 62.8694C85.4801 62.5286 85.7703 62.2382 86.111 62.0173C86.4518 61.7964 86.8353 61.6498 87.2365 61.5872C87.6377 61.5247 88.0476 61.5475 88.4394 61.6542C88.8313 61.7608 89.1961 61.949 89.5103 62.2064C91.3667 63.8054 90.8986 68.1889 90.0484 70.2014C90.0016 70.3184 89.3075 71.543 88.8629 72.3152C89.1983 71.9018 89.5103 71.4962 89.8613 71.0828C90.5399 70.2482 91.2419 69.437 91.9907 68.5634L93.1372 67.3232C93.5116 66.902 93.9641 66.5432 94.3775 66.083C95.3525 65.1392 96.3898 64.2266 97.4585 63.3296C96.733 62.7368 94.1747 60.584 93.4415 59.1176C92.7083 57.6512 92.1856 55.5998 92.9501 54.0476C93.1182 53.6774 93.3622 53.3467 93.6663 53.0769C93.9704 52.8071 94.3279 52.6042 94.7154 52.4814C95.103 52.3585 95.512 52.3186 95.9161 52.364C96.3201 52.4094 96.71 52.5392 97.0607 52.745C99.1277 54.0476 99.3383 58.4546 98.8001 60.545C98.8001 60.6776 98.2073 62.1518 97.8875 62.9552C98.5349 62.4248 99.1745 61.8944 99.8453 61.3952C101.78 59.9054 103.784 58.4468 105.773 56.9882L107.591 55.6466C107.333 55.436 104.244 52.94 103.418 51.2942C102.692 49.8356 102.162 47.7764 102.926 46.232C103.093 45.861 103.337 45.5294 103.641 45.2589C103.945 44.9883 104.303 44.785 104.69 44.6621C105.078 44.5391 105.488 44.4994 105.892 44.5455C106.296 44.5915 106.687 44.7223 107.037 44.9294C109.112 46.2242 109.314 50.6312 108.776 52.7294C108.737 52.8854 107.934 55.007 107.708 55.5374C109.034 54.5468 110.352 53.5484 111.608 52.5032C113.316 51.1103 114.932 49.6069 116.444 48.0026C116.327 47.9012 113.09 45.3116 112.247 43.6346C111.514 42.176 110.991 40.109 111.756 38.5646C111.923 38.1946 112.166 37.8641 112.47 37.5943C112.773 37.3245 113.13 37.1216 113.517 36.9988C113.904 36.8759 114.312 36.8359 114.716 36.8812C115.119 36.9265 115.509 37.0563 115.859 37.262C117.933 38.5646 118.144 42.9716 117.606 45.062C117.606 45.2024 116.958 46.817 116.654 47.5814L116.771 47.6594C118.249 46.0011 119.577 44.2158 120.741 42.3242C121.397 41.2868 121.958 40.265 122.489 39.2588C121.833 38.8376 118.877 36.8798 117.949 35.4524C117.021 34.025 116.319 32.0906 116.904 30.4682C117.029 30.0814 117.235 29.7254 117.507 29.4234C117.779 29.1214 118.112 28.8801 118.483 28.7152C118.855 28.5504 119.257 28.4657 119.664 28.4667C120.07 28.4677 120.472 28.5543 120.843 28.721C123.05 29.7896 123.737 34.181 123.432 36.3104C123.432 36.4274 123.12 37.6052 122.894 38.4554C123.12 37.9952 123.37 37.5272 123.581 37.0826C124.361 35.4212 125.024 33.8456 125.57 32.4026C125.882 31.6226 126.139 30.8816 126.35 30.1952C125.921 29.4152 124.251 26.42 124.088 24.7352C123.924 23.0504 124.189 21.0068 125.46 19.8368C125.75 19.5519 126.096 19.3311 126.477 19.1888C126.857 19.0465 127.263 18.9859 127.668 19.011C128.074 19.036 128.469 19.146 128.83 19.334C129.19 19.522 129.506 19.7836 129.758 20.102C131.225 22.0598 129.828 26.2484 128.565 28.0268C128.456 28.1828 126.467 30.3668 126.443 30.3668V30.32C126.225 30.983 125.991 31.6928 125.71 32.4572C125.195 33.8768 124.595 35.468 123.822 37.1372C123.006 38.9636 122.087 40.7423 121.069 42.4646C119.933 44.3964 118.628 46.2236 117.169 47.9246L117.114 47.987C117.723 47.6126 119.454 46.6142 119.603 46.5518C121.615 45.6938 125.999 45.2102 127.605 47.051C127.864 47.3642 128.054 47.7285 128.162 48.1199C128.271 48.5114 128.296 48.9213 128.236 49.323C128.175 49.7247 128.031 50.1093 127.812 50.4516C127.593 50.7939 127.305 51.0863 126.966 51.3098C125.554 52.3082 123.44 52.0898 121.88 51.6218C120.125 51.0602 117.2 48.3926 116.935 48.1742C115.412 49.8738 113.775 51.4686 112.037 52.9478C111.03 53.8136 109.985 54.656 108.917 55.4906C109.455 55.1786 109.938 54.9056 110.009 54.8744C112.013 54.0164 116.397 53.5328 118.004 55.3736C118.263 55.6863 118.454 56.0505 118.563 56.4421C118.673 56.8338 118.698 57.2441 118.638 57.6462C118.577 58.0483 118.433 58.4331 118.213 58.7754C117.994 59.1177 117.704 59.4097 117.364 59.6324C115.96 60.6308 113.838 60.4124 112.286 59.9444C110.734 59.4764 108.137 57.2144 107.466 56.6138C107.052 56.9258 106.686 57.2456 106.241 57.5654C104.283 59.063 102.341 60.5528 100.43 62.0816C99.7672 62.612 99.1355 63.1658 98.4959 63.7196L99.4475 63.1892C101.452 62.3312 105.836 61.8398 107.442 63.6806C107.701 63.9945 107.891 64.3593 108 64.7514C108.108 65.1435 108.133 65.554 108.073 65.9563C108.013 66.3587 107.868 66.7438 107.65 67.0868C107.431 67.4298 107.142 67.7229 106.803 67.9472C105.399 68.9455 103.277 68.7271 101.725 68.2514C100.173 67.7756 97.8251 65.7398 97.0451 65.03C96.4132 65.615 95.7737 66.2 95.1887 66.7928C94.7909 67.2062 94.4087 67.5728 94.0187 68.0174L92.8955 69.281C92.2169 70.1156 91.507 70.9658 90.8596 71.7926C90.4072 72.362 89.9861 72.9158 89.5649 73.4774C90.2123 72.9314 91.5226 71.9174 91.6397 71.8238C93.4883 70.6693 97.7549 69.4838 99.6191 71.1062C99.9212 71.3775 100.163 71.7095 100.328 72.0804C100.494 72.4513 100.579 72.8529 100.579 73.259C100.579 73.6651 100.494 74.0666 100.328 74.4375C100.163 74.8084 99.9212 75.1404 99.6191 75.4118C98.3711 76.613 96.2494 76.7378 94.6426 76.4882C92.8642 76.2074 89.6507 74.1482 89.2529 73.8518C88.5509 74.78 87.8801 75.677 87.2561 76.5428C85.0955 79.5302 83.4107 82.1042 82.2563 83.9137L82.1392 84.101L80.6417 83.3755L80.8757 83.0168C82.0847 81.2072 83.8474 78.6488 86.0938 75.6848C86.8036 74.741 87.5758 73.7504 88.3792 72.7442C87.5438 71.8312 86.7624 70.8702 86.0392 69.866C84.3154 70.5446 80.743 70.568 80.2751 70.568C80.2049 71.7224 80.1425 72.8534 80.0957 73.9142C79.9397 77.5958 79.9552 80.669 79.9942 82.8218V83.0714L78.3484 82.2914C78.3484 80.1542 78.4342 77.2682 78.6526 73.8518C78.7228 72.6818 78.8243 71.426 78.9413 70.139C78.4811 70.022 74.7605 69.0704 73.3565 67.9472C72.0851 66.9254 70.7435 65.2796 70.7903 63.548C70.7871 63.1417 70.8696 62.7394 71.0322 62.3671C71.1949 61.9949 71.4341 61.661 71.7343 61.3873C72.0344 61.1136 72.3889 60.9062 72.7746 60.7785C73.1602 60.6509 73.5684 60.6058 73.9726 60.6464C76.3984 60.9584 78.4343 64.874 78.8321 67.019C78.8321 67.1516 78.9569 68.579 79.0037 69.437C79.0583 68.9144 79.0972 68.3996 79.1596 67.877C79.261 66.8084 79.4015 65.7476 79.5496 64.601C79.6354 64.0472 79.7291 63.4934 79.8149 62.9318C79.9007 62.3702 80.0489 61.793 80.1659 61.2158C80.4623 59.8898 80.821 58.556 81.2188 57.2222C80.2828 57.1286 76.9679 56.7386 75.5483 55.9196C74.1287 55.1006 72.5531 53.681 72.3425 51.965C72.2772 51.5636 72.2974 51.153 72.4015 50.7599C72.5056 50.3668 72.6914 50 72.9468 49.6836C73.2022 49.3671 73.5214 49.108 73.8836 48.9232C74.2458 48.7384 74.6429 48.632 75.0491 48.611C77.4905 48.5564 80.0957 52.1132 80.8133 54.1802C80.8601 54.305 81.2111 55.8416 81.3905 56.6918C81.6322 55.9118 81.8663 55.0928 82.1705 54.2894C82.9504 51.9494 83.8319 49.664 84.6899 47.3474C84.9551 46.6376 85.2047 45.9278 85.4699 45.218C85.1345 45.218 81.1799 44.8046 79.5887 43.892C78.1769 43.112 76.6013 41.6534 76.3829 39.9374C76.3189 39.5361 76.3399 39.126 76.4445 38.7334C76.5492 38.3408 76.7351 37.9746 76.9902 37.6584C77.2454 37.3422 77.5641 37.0832 77.9257 36.898C78.2873 36.7128 78.6838 36.6056 79.0895 36.5834C81.5387 36.5288 84.1439 40.0856 84.8615 42.1526C84.9161 42.3086 85.4153 44.4926 85.5167 45.0854C86.0783 43.5254 86.6321 41.9654 87.0767 40.4054C87.7363 38.2993 88.2574 36.1523 88.6367 33.9782C88.4807 33.9782 84.3544 33.5882 82.7242 32.6522C81.3046 31.8722 79.729 30.4136 79.5184 28.6976C79.4532 28.2966 79.4733 27.8863 79.5775 27.4937C79.6817 27.101 79.8676 26.7348 80.1231 26.4189C80.3786 26.103 80.6979 25.8447 81.0601 25.6607C81.4223 25.4768 81.8193 25.3713 82.225 25.3514C84.6665 25.289 87.2717 28.8458 87.9893 30.9128C88.036 31.0454 88.4261 32.7302 88.5899 33.5414H88.7225C89.0446 31.3443 89.1699 29.1229 89.0968 26.9036C89.0968 25.679 88.9799 24.5168 88.8629 23.3858C88.0829 23.3858 84.5417 23.3858 82.9817 22.7072C81.4217 22.0286 79.7603 20.8118 79.3546 19.1348C79.2465 18.7419 79.2224 18.3307 79.2842 17.9279C79.3459 17.5251 79.492 17.14 79.7129 16.7976C79.9338 16.4552 80.2245 16.1633 80.566 15.941C80.9075 15.7188 81.2921 15.5711 81.6946 15.5078C84.1205 15.1724 87.1 18.4328 88.0438 20.3984C88.0906 20.5076 88.4963 21.6542 88.7692 22.4966C88.7146 21.9818 88.6601 21.4514 88.5899 20.9366C88.3481 19.1036 88.0049 17.4422 87.6929 15.968C87.5057 15.1334 87.3262 14.408 87.1468 13.6826C86.3668 13.2926 83.3093 11.6858 82.2641 10.391C81.2189 9.09616 80.2829 7.21636 80.7041 5.54716C80.7973 5.15298 80.9722 4.78276 81.2175 4.46046C81.4629 4.13815 81.7731 3.87094 82.1282 3.6761C82.4833 3.48127 82.8754 3.36315 83.279 3.3294C83.6827 3.29565 84.0889 3.34701 84.4715 3.48016Z" fill="white"/>
<path d="M128.678 41.1463C126.767 41.0683 122.945 39.1105 122.945 39.1105C122.945 39.1105 124.997 36.9811 125.145 36.8641C126.853 35.5069 130.956 33.8767 132.992 35.2339C133.324 35.4671 133.604 35.7678 133.813 36.1166C134.021 36.4653 134.154 36.8542 134.202 37.2577C134.25 37.6612 134.212 38.0702 134.091 38.4581C133.969 38.8459 133.768 39.2038 133.499 39.5083C132.407 40.8421 130.309 41.2165 128.678 41.1463Z" fill="white"/>
</g>
<path d="M106.363 89.007C106.363 89.007 94.7643 61.0518 88.2747 62.2686C81.7851 63.4854 99.4053 106.838 99.4053 106.838C99.4053 106.838 79.0005 68.3448 65.0853 68.3448C51.1701 68.3448 70.1865 110.886 87.8535 125.066C87.8535 125.066 60.0231 95.0832 43.7913 101.565C27.5595 108.047 76.2159 138.42 76.2159 138.42C76.2159 138.42 47.9253 129.52 51.1935 136.415C54.4617 143.311 63.2523 144.512 63.2523 144.512L70.6935 146.134H111.254L117.494 143.708C117.494 143.708 143.468 130.737 136.51 125.472C129.552 120.207 114.249 131.548 114.249 131.548C114.249 131.548 140.683 102.376 135.582 91.4406C130.481 80.505 107.751 111.292 107.751 111.292C107.751 111.292 126.308 71.9874 122.571 65.1C118.835 58.2126 106.363 89.007 106.363 89.007Z" fill="#F2F4F7"/>
<path opacity="0.4" d="M106.363 89.007C106.363 89.007 94.7643 61.0518 88.2747 62.2686C81.7851 63.4854 99.4053 106.838 99.4053 106.838C99.4053 106.838 79.0005 68.3448 65.0853 68.3448C51.1701 68.3448 70.1865 110.886 87.8535 125.066C87.8535 125.066 60.0231 95.0832 43.7913 101.565C27.5595 108.047 76.2159 138.42 76.2159 138.42C76.2159 138.42 47.9253 129.52 51.1935 136.415C54.4617 143.311 63.2523 144.512 63.2523 144.512L75.3735 146.134H108.134L117.494 143.708C117.494 143.708 143.468 130.737 136.51 125.472C129.552 120.207 114.249 131.548 114.249 131.548C114.249 131.548 140.683 102.376 135.582 91.4406C130.481 80.505 107.751 111.292 107.751 111.292C107.751 111.292 126.308 71.9874 122.571 65.1C118.835 58.2126 106.363 89.007 106.363 89.007Z" fill="white"/>
<path d="M110.077 90.4814C99.875 120.628 99.875 141.961 99.875 141.961C99.875 141.961 111.934 142.429 124.453 133.147" stroke="#263238" stroke-width="0.78" stroke-linecap="round" stroke-linejoin="round"/>
<path d="M105.018 106.713C102.913 97.7011 100.12 88.8639 96.6641 80.2788" stroke="#263238" stroke-width="0.78" stroke-linecap="round" stroke-linejoin="round"/>
<path d="M74.8281 89.085L100.794 127.586C100.794 127.586 118.422 112.766 124.452 104.396" stroke="#263238" stroke-width="0.78" stroke-linecap="round" stroke-linejoin="round"/>
<path d="M100.329 136.86C100.329 136.86 72.9665 123.873 61.8359 116.456" stroke="#263238" stroke-width="0.78" stroke-linecap="round" stroke-linejoin="round"/>
<path d="M182.718 26.5913H177.078V261.598H182.718V26.5913Z" fill="#C2C2C2" stroke="#ABABAB" stroke-width="0.78" stroke-linecap="round" stroke-linejoin="round"/>
<path d="M81.2722 26.5913H75.6328V261.598H81.2722V26.5913Z" fill="#C2C2C2" stroke="#ABABAB" stroke-width="0.78" stroke-linecap="round" stroke-linejoin="round"/>
<path d="M131.991 26.5913H126.352V261.598H131.991V26.5913Z" fill="#C2C2C2" stroke="#ABABAB" stroke-width="0.78" stroke-linecap="round" stroke-linejoin="round"/>
<path d="M233.428 26.5913H227.789V261.598H233.428V26.5913Z" fill="#C2C2C2" stroke="#ABABAB" stroke-width="0.78" stroke-linecap="round" stroke-linejoin="round"/>
<path d="M231.739 33.9155H73.8125V44.6249H231.739V33.9155Z" fill="#C2C2C2" stroke="#ABABAB" stroke-width="0.78" stroke-linecap="round" stroke-linejoin="round"/>
<path d="M231.736 33.9155H130.102V44.6249H231.736V33.9155Z" fill="#A6A6A6" stroke="#ABABAB" stroke-width="0.78" stroke-linecap="round" stroke-linejoin="round"/>
<path d="M231.739 141.75H73.8125V152.46H231.739V141.75Z" fill="#C2C2C2" stroke="#ABABAB" stroke-width="0.78" stroke-linecap="round" stroke-linejoin="round"/>
<path d="M231.736 141.75H130.102V152.46H231.736V141.75Z" fill="#A6A6A6" stroke="#ABABAB" stroke-width="0.78" stroke-linecap="round" stroke-linejoin="round"/>
<path d="M231.739 249.578H73.8125V260.287H231.739V249.578Z" fill="#C2C2C2" stroke="#ABABAB" stroke-width="0.78" stroke-linecap="round" stroke-linejoin="round"/>
<path d="M231.736 249.578H130.102V260.287H231.736V249.578Z" fill="#A6A6A6" stroke="#ABABAB" stroke-width="0.78" stroke-linecap="round" stroke-linejoin="round"/>
<path d="M130.133 192.084H47.4844V261.512H130.133V192.084Z" fill="#F2F4F7"/>
<mask id="mask0_4440_42031" style="mask-type:luminance" maskUnits="userSpaceOnUse" x="47" y="192" width="84" height="70">
<path d="M130.133 192.084H47.4844V261.512H130.133V192.084Z" fill="white"/>
</mask>
<g mask="url(#mask0_4440_42031)">
<path opacity="0.6" d="M130.133 192.084H47.4844V261.512H130.133V192.084Z" fill="white" stroke="#696969" stroke-width="0.78" stroke-linecap="round" stroke-linejoin="round"/>
</g>
<path d="M130.133 192.084H47.4844V261.512H130.133V192.084Z" stroke="#696969" stroke-width="0.78" stroke-linecap="round" stroke-linejoin="round"/>
<path d="M130.136 192.084H102.672V261.512H130.136V192.084Z" fill="#F2F4F7"/>
<mask id="mask1_4440_42031" style="mask-type:luminance" maskUnits="userSpaceOnUse" x="102" y="192" width="29" height="70">
<path d="M130.128 192.084H102.664V261.512H130.128V192.084Z" fill="white"/>
</mask>
<g mask="url(#mask1_4440_42031)">
<path opacity="0.39" d="M130.128 192.084H102.664V261.512H130.128V192.084Z" fill="white" stroke="#696969" stroke-width="0.78" stroke-linecap="round" stroke-linejoin="round"/>
</g>
<path d="M130.136 192.084H102.672V261.512H130.136V192.084Z" stroke="#696969" stroke-width="0.78" stroke-linecap="round" stroke-linejoin="round"/>
<path d="M116.688 192.271V261.598" stroke="#696969" stroke-width="0.78" stroke-linecap="round" stroke-linejoin="round"/>
<path d="M134.305 122.766H51.6562V192.193H134.305V122.766Z" fill="#F2F4F7"/>
<mask id="mask2_4440_42031" style="mask-type:luminance" maskUnits="userSpaceOnUse" x="51" y="122" width="84" height="71">
<path d="M134.305 122.766H51.6562V192.193H134.305V122.766Z" fill="white"/>
</mask>
<g mask="url(#mask2_4440_42031)">
<path opacity="0.6" d="M134.305 122.766H51.6562V192.193H134.305V122.766Z" fill="white" stroke="#696969" stroke-width="0.78" stroke-linecap="round" stroke-linejoin="round"/>
</g>
<path d="M134.305 122.766H51.6562V192.193H134.305V122.766Z" stroke="#696969" stroke-width="0.78" stroke-linecap="round" stroke-linejoin="round"/>
<path d="M134.308 122.766H106.844V192.193H134.308V122.766Z" fill="#F2F4F7"/>
<mask id="mask3_4440_42031" style="mask-type:luminance" maskUnits="userSpaceOnUse" x="106" y="122" width="29" height="71">
<path d="M134.3 122.766H106.836V192.193H134.3V122.766Z" fill="white"/>
</mask>
<g mask="url(#mask3_4440_42031)">
<path opacity="0.39" d="M134.3 122.766H106.836V192.193H134.3V122.766Z" fill="white" stroke="#696969" stroke-width="0.78" stroke-linecap="round" stroke-linejoin="round"/>
</g>
<path d="M134.308 122.766H106.844V192.193H134.308V122.766Z" stroke="#696969" stroke-width="0.78" stroke-linecap="round" stroke-linejoin="round"/>
<path d="M120.859 122.953V192.279" stroke="#696969" stroke-width="0.78" stroke-linecap="round" stroke-linejoin="round"/>
<path d="M349.383 192.084H266.734V261.512H349.383V192.084Z" fill="#F2F4F7"/>
<mask id="mask4_4440_42031" style="mask-type:luminance" maskUnits="userSpaceOnUse" x="266" y="192" width="84" height="70">
<path d="M349.383 192.084H266.734V261.512H349.383V192.084Z" fill="white"/>
</mask>
<g mask="url(#mask4_4440_42031)">
<path opacity="0.6" d="M349.383 192.084H266.734V261.512H349.383V192.084Z" fill="white" stroke="#919191" stroke-width="0.78" stroke-linecap="round" stroke-linejoin="round"/>
</g>
<path d="M349.383 192.084H266.734V261.512H349.383V192.084Z" stroke="#919191" stroke-width="0.78" stroke-linecap="round" stroke-linejoin="round"/>
<path d="M349.386 192.084H321.922V261.512H349.386V192.084Z" fill="#F2F4F7"/>
<mask id="mask5_4440_42031" style="mask-type:luminance" maskUnits="userSpaceOnUse" x="321" y="192" width="29" height="70">
<path d="M349.378 192.084H321.914V261.512H349.378V192.084Z" fill="white"/>
</mask>
<g mask="url(#mask5_4440_42031)">
<path opacity="0.39" d="M349.378 192.084H321.914V261.512H349.378V192.084Z" fill="white" stroke="#919191" stroke-width="0.78" stroke-linecap="round" stroke-linejoin="round"/>
</g>
<path d="M349.386 192.084H321.922V261.512H349.386V192.084Z" stroke="#919191" stroke-width="0.78" stroke-linecap="round" stroke-linejoin="round"/>
<path d="M335.938 192.271V261.598" stroke="#919191" stroke-width="0.78" stroke-linecap="round" stroke-linejoin="round"/>
<path d="M349.383 122.586H266.734V192.014H349.383V122.586Z" fill="#F2F4F7"/>
<mask id="mask6_4440_42031" style="mask-type:luminance" maskUnits="userSpaceOnUse" x="266" y="122" width="84" height="71">
<path d="M349.383 122.586H266.734V192.014H349.383V122.586Z" fill="white"/>
</mask>
<g mask="url(#mask6_4440_42031)">
<path opacity="0.6" d="M349.383 122.586H266.734V192.014H349.383V122.586Z" fill="white" stroke="#919191" stroke-width="0.78" stroke-linecap="round" stroke-linejoin="round"/>
</g>
<path d="M349.383 122.586H266.734V192.014H349.383V122.586Z" stroke="#919191" stroke-width="0.78" stroke-linecap="round" stroke-linejoin="round"/>
<path d="M349.386 122.586H321.922V192.014H349.386V122.586Z" fill="#F2F4F7"/>
<mask id="mask7_4440_42031" style="mask-type:luminance" maskUnits="userSpaceOnUse" x="321" y="122" width="29" height="71">
<path d="M349.378 122.586H321.914V192.014H349.378V122.586Z" fill="white"/>
</mask>
<g mask="url(#mask7_4440_42031)">
<path opacity="0.39" d="M349.378 122.586H321.914V192.014H349.378V122.586Z" fill="white" stroke="#919191" stroke-width="0.78" stroke-linecap="round" stroke-linejoin="round"/>
</g>
<path d="M349.386 122.586H321.922V192.014H349.386V122.586Z" stroke="#919191" stroke-width="0.78" stroke-linecap="round" stroke-linejoin="round"/>
<path d="M335.938 122.773V192.1" stroke="#919191" stroke-width="0.78" stroke-linecap="round" stroke-linejoin="round"/>
<path d="M342.125 65.1001H273.758V122.532H342.125V65.1001Z" fill="#F2F4F7"/>
<mask id="mask8_4440_42031" style="mask-type:luminance" maskUnits="userSpaceOnUse" x="273" y="65" width="70" height="58">
<path d="M342.125 65.1001H273.758V122.532H342.125V65.1001Z" fill="white"/>
</mask>
<g mask="url(#mask8_4440_42031)">
<path opacity="0.6" d="M342.125 65.1001H273.758V122.532H342.125V65.1001Z" fill="white" stroke="#919191" stroke-width="0.78" stroke-linecap="round" stroke-linejoin="round"/>
</g>
<path d="M342.125 65.1001H273.758V122.532H342.125V65.1001Z" stroke="#919191" stroke-width="0.78" stroke-linecap="round" stroke-linejoin="round"/>
<path d="M342.128 65.1001H319.414V122.532H342.128V65.1001Z" fill="#F2F4F7"/>
<mask id="mask9_4440_42031" style="mask-type:luminance" maskUnits="userSpaceOnUse" x="319" y="65" width="24" height="58">
<path d="M342.135 65.1001H319.422V122.532H342.135V65.1001Z" fill="white"/>
</mask>
<g mask="url(#mask9_4440_42031)">
<path opacity="0.39" d="M342.135 65.1001H319.422V122.532H342.135V65.1001Z" fill="white" stroke="#919191" stroke-width="0.78" stroke-linecap="round" stroke-linejoin="round"/>
</g>
<path d="M342.128 65.1001H319.414V122.532H342.128V65.1001Z" stroke="#919191" stroke-width="0.78" stroke-linecap="round" stroke-linejoin="round"/>
<path d="M331 65.2559V122.601" stroke="#919191" stroke-width="0.78" stroke-linecap="round" stroke-linejoin="round"/>
<path d="M333.373 235.413H322.664V242.113H333.373V235.413Z" fill="white" stroke="#263238" stroke-width="0.78" stroke-linecap="round" stroke-linejoin="round"/>
<path d="M232.599 261.597C236.174 261.597 239.073 258.699 239.073 255.123C239.073 251.548 236.174 248.649 232.599 248.649C229.023 248.649 226.125 251.548 226.125 255.123C226.125 258.699 229.023 261.597 232.599 261.597Z" fill="#263238" stroke="#263238" stroke-width="0.78" stroke-linecap="round" stroke-linejoin="round"/>
<path d="M339.127 147.967H335.305V255.271H339.127V147.967Z" fill="#263238" stroke="#263238" stroke-width="0.78" stroke-linecap="round" stroke-linejoin="round"/>
<path d="M337.095 185.501L328.055 178.309C324.21 175.245 321.326 171.141 319.745 166.485C318.165 161.83 317.955 156.818 319.14 152.046C319.488 150.654 320.291 149.417 321.421 148.531C322.551 147.645 323.944 147.161 325.38 147.156H348.78C350.216 147.159 351.61 147.642 352.741 148.528C353.872 149.414 354.674 150.652 355.02 152.046C356.207 156.817 355.998 161.829 354.419 166.485C352.84 171.14 349.957 175.245 346.112 178.309L337.095 185.501ZM325.395 150.814C324.77 150.812 324.163 151.02 323.671 151.405C323.178 151.789 322.83 152.329 322.681 152.936C321.662 157.025 321.84 161.321 323.193 165.312C324.547 169.303 327.02 172.821 330.317 175.446L337.08 180.828L343.85 175.446C347.148 172.822 349.623 169.305 350.98 165.314C352.336 161.323 352.517 157.026 351.502 152.936C351.352 152.329 351.003 151.791 350.511 151.406C350.019 151.022 349.412 150.813 348.787 150.814H325.395Z" fill="#263238"/>
<path d="M314.654 238.767H196.305V252.541H314.654V238.767Z" fill="white"/>
<mask id="mask10_4440_42031" style="mask-type:luminance" maskUnits="userSpaceOnUse" x="196" y="238" width="119" height="15">
<path d="M314.654 238.767H196.305V252.541H314.654V238.767Z" fill="white"/>
</mask>
<g mask="url(#mask10_4440_42031)">
<path opacity="0.28" d="M314.654 238.767H196.305V252.541H314.654V238.767Z" fill="black" stroke="#263238" stroke-width="0.78" stroke-linecap="round" stroke-linejoin="round"/>
</g>
<path d="M314.654 238.767H196.305V252.541H314.654V238.767Z" stroke="#263238" stroke-width="0.78" stroke-linecap="round" stroke-linejoin="round"/>
<path d="M209.565 238.767H196.305V252.541H209.565V238.767Z" stroke="#263238" stroke-width="0.78" stroke-linecap="round" stroke-linejoin="round"/>
<path d="M314.643 238.767H301.383V252.541H314.643V238.767Z" stroke="#263238" stroke-width="0.78" stroke-linecap="round" stroke-linejoin="round"/>
<path d="M262.104 238.767H248.844V252.541H262.104V238.767Z" stroke="#263238" stroke-width="0.78" stroke-linecap="round" stroke-linejoin="round"/>
<path d="M314.656 252.542H322.815L333.017 213.768H324.859L314.656 252.542Z" fill="white" stroke="#263238" stroke-width="0.78" stroke-linecap="round" stroke-linejoin="round"/>
<path d="M342.577 230.093H331.867V247.44H342.577V230.093Z" fill="white" stroke="#263238" stroke-width="0.78" stroke-linecap="round" stroke-linejoin="round"/>
<path d="M334.598 261.597C333.991 261.587 333.411 261.342 332.982 260.912C332.553 260.483 332.307 259.904 332.297 259.296V250.662C332.307 250.055 332.553 249.475 332.982 249.046C333.411 248.617 333.991 248.371 334.598 248.361C335.205 248.371 335.784 248.617 336.214 249.046C336.643 249.475 336.889 250.055 336.899 250.662V259.32C336.883 259.923 336.635 260.496 336.206 260.921C335.777 261.345 335.201 261.588 334.598 261.597Z" fill="#263238"/>
<path d="M340.067 261.597C339.459 261.587 338.88 261.342 338.451 260.912C338.021 260.483 337.776 259.904 337.766 259.296V250.662C337.776 250.055 338.021 249.475 338.451 249.046C338.88 248.617 339.459 248.371 340.067 248.361C340.681 248.361 341.27 248.602 341.708 249.032C342.145 249.463 342.396 250.048 342.407 250.662V259.32C342.39 259.93 342.137 260.509 341.7 260.934C341.262 261.36 340.677 261.598 340.067 261.597Z" fill="#263238"/>
<path d="M37.0156 261.598H359.787" stroke="#263238" stroke-width="0.78" stroke-linecap="round" stroke-linejoin="round"/>
<path d="M148.378 284.132C179.498 284.132 204.726 281.066 204.726 277.284C204.726 273.501 179.498 270.435 148.378 270.435C117.259 270.435 92.0312 273.501 92.0312 277.284C92.0312 281.066 117.259 284.132 148.378 284.132Z" fill="#F2F4F7"/>
<path opacity="0.5" d="M148.378 284.132C179.498 284.132 204.726 281.066 204.726 277.284C204.726 273.501 179.498 270.435 148.378 270.435C117.259 270.435 92.0312 273.501 92.0312 277.284C92.0312 281.066 117.259 284.132 148.378 284.132Z" fill="white"/>
<path d="M264.988 277.26C264.988 279.148 252.407 280.677 236.908 280.677C221.41 280.677 208.828 279.117 208.828 277.26C208.828 275.404 221.402 273.852 236.908 273.852C252.415 273.852 264.988 275.404 264.988 277.26Z" fill="#F2F4F7"/>
<path opacity="0.5" d="M264.988 277.26C264.988 279.148 252.407 280.677 236.908 280.677C221.41 280.677 208.828 279.117 208.828 277.26C208.828 275.404 221.402 273.852 236.908 273.852C252.415 273.852 264.988 275.404 264.988 277.26Z" fill="white"/>
<path d="M159.613 51.6764C159.613 51.6764 155.253 48.2522 150.253 49.9604C145.254 51.6686 141.463 59.999 140.113 66.7694C138.764 73.5398 133.577 78.6722 134.825 86.6126C136.073 94.553 145.098 95.7932 155.994 96.9632C166.891 98.1332 172.803 96.8072 177.936 89.6468C183.068 82.4864 180.892 73.7738 177.858 66.0674C174.823 58.361 169.769 51.2084 165.565 49.8824C161.361 48.5564 159.613 51.6764 159.613 51.6764Z" fill="#263238" stroke="#263238" stroke-width="0.78" stroke-linecap="round" stroke-linejoin="round"/>
<path d="M141.594 92.4004C142.33 92.7312 143.095 92.9924 143.879 93.1804" stroke="white" stroke-width="0.78" stroke-linecap="round" stroke-linejoin="round"/>
<path d="M158.526 57.2222C156.749 61.1927 154.496 64.9328 151.818 68.3606C147.356 74.0936 137.489 79.5068 136.858 85.5206C136.756 86.3257 136.827 87.1433 137.065 87.9191C137.303 88.695 137.703 89.4114 138.238 90.0212" stroke="white" stroke-width="0.78" stroke-linecap="round" stroke-linejoin="round"/>
<path d="M176.631 85.981C176.308 86.7359 175.895 87.4485 175.398 88.1026" stroke="white" stroke-width="0.78" stroke-linecap="round" stroke-linejoin="round"/>
<path d="M172.883 70.9111C172.883 70.9111 177.898 76.6987 177.415 82.8763" stroke="white" stroke-width="0.78" stroke-linecap="round" stroke-linejoin="round"/>
<path d="M157.568 54.032C155.614 53.833 153.64 54.1052 151.812 54.8258C149.984 55.5464 148.355 56.6944 147.062 58.1738C146.882 58.3766 146.719 58.5794 146.562 58.7822" stroke="white" stroke-width="0.78" stroke-linecap="round" stroke-linejoin="round"/>
<path d="M128.796 201.054L127.821 216.062C127.821 216.062 123.672 236.193 122.361 244.493C121.051 252.792 118.649 265.412 118.212 265.412C117.775 265.412 110.615 269.741 108.321 273.275C106.028 276.808 108.938 278.306 112.12 277.175C115.302 276.044 119.624 272.846 121.035 269.047C122.447 265.248 123.149 263.837 123.243 263.22C123.336 262.604 138.429 222.083 139.927 217.754C141.425 213.425 144.607 200.711 144.607 200.711L152.025 175.548C152.025 175.548 159.965 201.421 160.059 202.568C160.152 203.714 168.264 269.843 168.639 272.315C169.013 274.788 168.904 276.55 170.402 277.081C171.899 277.611 175.433 277.611 177.289 277.611C179.145 277.611 185.588 278.586 188.763 277.791C191.937 276.995 192.296 276.465 190.089 274.874C187.881 273.282 175.62 272.268 174.489 267.635C174.395 267.284 174.309 199.214 174.309 199.214C174.309 199.214 173.249 176.703 171.486 170.354H130.692L128.796 201.054Z" fill="white" stroke="#263238" stroke-width="0.78" stroke-linecap="round" stroke-linejoin="round"/>
<path d="M112.115 277.159C115.29 276.004 119.619 272.83 121.031 269.031L121.327 268.251C119.525 270.17 116.647 272.838 116.647 272.838C116.471 271.933 116.077 271.084 115.5 270.365C115.249 270.088 114.926 269.884 114.568 269.775C114.209 269.666 113.828 269.657 113.465 269.749L116.585 266.317C114.245 267.768 110.033 270.732 108.379 273.282C106.016 276.8 108.917 278.305 112.115 277.159Z" fill="#263238" stroke="#263238" stroke-width="0.78" stroke-linecap="round" stroke-linejoin="round"/>
<path d="M190.044 274.858C188.531 273.774 182.314 272.954 178.164 271.059C177.993 271.205 177.859 271.389 177.774 271.597C177.511 272.345 177.305 273.112 177.158 273.89L168.578 272.057V272.299C168.929 274.772 168.843 276.535 170.341 277.065C171.839 277.595 175.372 277.595 177.228 277.595C179.085 277.595 185.528 278.57 188.702 277.775C191.877 276.979 192.282 276.48 190.044 274.858Z" fill="#263238" stroke="#263238" stroke-width="0.78" stroke-linecap="round" stroke-linejoin="round"/>
<path d="M140.689 133.74C140.689 133.74 136.641 135.604 131.742 144.403C126.384 154.005 127.304 159.34 127.226 170.923C127.148 182.506 126.914 201.733 126.914 201.733C126.914 201.733 141.734 205.703 152.365 205.079C162.997 204.455 176.483 202.045 176.483 202.045C176.483 202.045 173.605 162.826 170.883 151.548C168.16 140.269 166.522 135.168 166.522 135.168C161.261 135.898 155.93 135.976 150.649 135.402C141.625 134.52 140.689 133.74 140.689 133.74Z" fill="#263238" stroke="#263238" stroke-width="0.78" stroke-linecap="round" stroke-linejoin="round"/>
<path d="M157.742 168.427C158.148 169.761 158.522 171.11 158.85 172.459" stroke="white" stroke-width="0.78" stroke-linecap="round" stroke-linejoin="round"/>
<path d="M148.344 146.353C151.486 152.151 154.182 158.179 156.409 164.387" stroke="white" stroke-width="0.78" stroke-linecap="round" stroke-linejoin="round"/>
<path d="M240.045 126.283C239.577 125.971 231.91 124.77 231.91 124.77L230.412 124.154C230.412 124.154 239.694 124.895 239.772 124.505C239.85 124.115 240.162 123.647 239.538 123.569C238.914 123.491 226.972 121.065 226.972 121.065C226.972 121.065 230.006 118.195 230.396 117.571C230.786 116.947 231.325 115.699 230.701 115.699C230.077 115.699 229.921 116.089 229.07 116.635C228.22 117.181 224.866 118.507 223.93 119.279C222.994 120.051 220.202 122.079 220.202 122.079L187.769 117.617C187.769 117.617 176.381 103.577 173.909 100.582C172.19 98.5835 170.233 96.8022 168.082 95.2783C165.695 94.2253 165.742 95.9881 165.742 95.9881L170.726 118.14C170.726 118.14 183.62 125.823 184.415 125.823C185.211 125.823 220.046 126.977 220.046 126.977C220.046 126.977 222.386 128.069 223.852 128.998C225.319 129.926 234.671 132.898 234.671 132.898C234.671 132.898 235.295 132.586 234.593 132.04C233.891 131.494 229.382 129.317 229.382 129.317L238.742 131.345C238.742 131.345 239.288 130.955 239.054 130.565C238.82 130.175 230.474 126.985 230.474 126.985L239.834 127.453C239.834 127.453 240.505 126.595 240.045 126.283Z" fill="white" stroke="#263238" stroke-width="0.78" stroke-linecap="round" stroke-linejoin="round"/>
<path d="M185.812 115.207C182.45 111.065 175.734 102.797 173.909 100.582C172.19 98.5835 170.233 96.8022 168.082 95.2783C165.695 94.2253 165.742 95.9881 165.742 95.9881L170.726 118.14C170.726 118.14 176.545 121.603 180.601 123.881L185.812 115.207Z" fill="white" stroke="#263238" stroke-width="0.78" stroke-linecap="round" stroke-linejoin="round"/>
<path d="M151.352 93.3829C151.352 93.3829 144.581 93.6949 140.432 98.2891C136.282 102.883 136.774 112.992 138.49 119.06C140.206 125.129 142.39 128.475 141.914 130.581C141.438 132.687 139.738 133.381 140.666 135.323C141.594 137.266 146.968 139.372 156.461 139.06C165.953 138.748 167.747 136.72 167.825 134.941C167.903 133.163 167.201 131.673 167.435 130.581C167.669 129.489 174.518 123.421 174.518 116.728C174.518 110.036 171.562 107.704 170.86 102.875C170.158 98.0473 170.392 97.3531 167.513 95.2471C164.635 93.1411 155.166 92.0569 151.352 93.3829Z" fill="white" stroke="#263238" stroke-width="0.78" stroke-linecap="round" stroke-linejoin="round"/>
<path d="M148.277 116.58C146.014 118.474 143.503 120.048 140.812 121.26" stroke="#263238" stroke-width="0.78" stroke-linecap="round" stroke-linejoin="round"/>
<path d="M149.03 117.36C149.03 117.36 147.353 122.774 143.242 125.761" stroke="#263238" stroke-width="0.78" stroke-linecap="round" stroke-linejoin="round"/>
<path d="M165.824 98.2812L166.604 105.754L163.328 101.939L165.824 98.2812Z" fill="white" stroke="#263238" stroke-width="0.78" stroke-linecap="round" stroke-linejoin="round"/>
<path d="M161.469 106.378L165.829 98.2812L161.859 94.0068L161.469 106.378Z" fill="white" stroke="#263238" stroke-width="0.78" stroke-linecap="round" stroke-linejoin="round"/>
<path d="M153.062 80.1543C153.742 82.8521 154.08 85.6246 154.069 88.4067C154.046 90.2081 153.863 92.004 153.523 93.7731L161.463 106.378L163.717 94.6779L165.199 86.5815C165.199 86.5815 156.175 86.0667 153.062 80.1543Z" fill="white" stroke="#263238" stroke-width="0.78" stroke-linecap="round" stroke-linejoin="round"/>
<path d="M160.997 99.6074L161.465 106.378L159.133 102.72L160.997 99.6074Z" fill="white" stroke="#263238" stroke-width="0.78" stroke-linecap="round" stroke-linejoin="round"/>
<path d="M150.883 93.4612L158.121 106.456L160.999 99.6076L153.301 89.0229L150.883 93.4612Z" fill="white" stroke="#263238" stroke-width="0.78" stroke-linecap="round" stroke-linejoin="round"/>
<path d="M277.692 99.5215H212.008V153.419H277.692V99.5215Z" fill="#F2F4F7"/>
<mask id="mask11_4440_42031" style="mask-type:luminance" maskUnits="userSpaceOnUse" x="212" y="99" width="66" height="55">
<path d="M277.684 99.5215H212V153.419H277.684V99.5215Z" fill="white"/>
</mask>
<g mask="url(#mask11_4440_42031)">
<path opacity="0.2" d="M277.684 99.5215H212V153.419H277.684V99.5215Z" fill="black"/>
</g>
<path d="M277.692 99.5215H212.008V153.419H277.692V99.5215Z" stroke="#263238" stroke-width="0.78" stroke-linecap="round" stroke-linejoin="round"/>
<path d="M263.785 99.5215H198.102V153.419H263.785V99.5215Z" fill="#F2F4F7" stroke="#263238" stroke-width="0.78" stroke-linecap="round" stroke-linejoin="round"/>
<path d="M288.507 171.562C286.401 168.224 277.689 153.419 277.689 153.419H263.789L270.942 171.562H288.507Z" fill="#F2F4F7"/>
<mask id="mask12_4440_42031" style="mask-type:luminance" maskUnits="userSpaceOnUse" x="263" y="153" width="26" height="19">
<path d="M288.515 171.562C286.409 168.224 277.696 153.419 277.696 153.419H263.797L270.949 171.562H288.515Z" fill="white"/>
</mask>
<g mask="url(#mask12_4440_42031)">
<path opacity="0.2" d="M288.515 171.562C286.409 168.224 277.696 153.419 277.696 153.419H263.797L270.949 171.562H288.515Z" fill="black"/>
</g>
<path d="M288.507 171.562C286.401 168.224 277.689 153.419 277.689 153.419H263.789L270.942 171.562H288.507Z" stroke="#263238" stroke-width="0.78" stroke-linecap="round" stroke-linejoin="round"/>
<path d="M187.25 171.562C189.356 168.224 198.061 153.419 198.061 153.419H211.968L204.816 171.562H187.25Z" fill="#F2F4F7" stroke="#263238" stroke-width="0.78" stroke-linecap="round" stroke-linejoin="round"/>
<path d="M198.053 153.419L192.008 171.562H260.609L263.791 153.419H198.053Z" fill="#F2F4F7" stroke="#263238" stroke-width="0.78" stroke-linecap="round" stroke-linejoin="round"/>
<path d="M286.156 119.021V137.071" stroke="#263238" stroke-width="0.78" stroke-linecap="round" stroke-linejoin="round"/>
<path d="M289.562 126.83V141.462" stroke="#263238" stroke-width="0.78" stroke-linecap="round" stroke-linejoin="round"/>
<path d="M191.047 137.071V148.287" stroke="#263238" stroke-width="0.78" stroke-linecap="round" stroke-linejoin="round"/>
<path d="M188.117 143.412V152.187" stroke="#263238" stroke-width="0.78" stroke-linecap="round" stroke-linejoin="round"/>
<path d="M140.07 112.758C142.398 115.395 145.1 117.676 148.089 119.529C152.769 122.329 169.929 132.055 171.278 132.601C172.628 133.147 213.609 126.455 213.609 126.455C213.609 126.455 215.949 127.547 217.423 128.475C218.897 129.403 228.242 132.375 228.242 132.375C228.242 132.375 228.866 132.063 228.164 131.525C227.462 130.987 222.953 128.795 222.953 128.795L232.313 130.823C232.313 130.823 232.859 130.433 232.625 130.043C232.391 129.653 224.045 126.463 224.045 126.463L233.405 126.931C233.405 126.931 234.107 126.073 233.639 125.761C233.171 125.449 223.585 123.265 223.585 123.265C223.585 123.265 233.78 122.407 233.858 122.017C233.936 121.627 234.248 121.167 233.624 121.089C233 121.011 220.239 119.763 220.239 119.763C220.239 119.763 223.585 117.664 223.975 117.04C224.365 116.416 224.911 115.168 224.287 115.168C223.663 115.168 223.507 115.558 222.657 116.104C221.807 116.65 218.453 117.976 217.517 118.749C216.581 119.521 213.78 121.557 213.78 121.557L176.278 121.635L152.995 103.266" fill="white"/>
<path d="M140.07 112.758C142.398 115.395 145.1 117.676 148.089 119.529C152.769 122.329 169.929 132.055 171.278 132.601C172.628 133.147 213.609 126.455 213.609 126.455C213.609 126.455 215.949 127.547 217.423 128.475C218.897 129.403 228.242 132.375 228.242 132.375C228.242 132.375 228.866 132.063 228.164 131.525C227.462 130.987 222.953 128.795 222.953 128.795L232.313 130.823C232.313 130.823 232.859 130.433 232.625 130.043C232.391 129.653 224.045 126.463 224.045 126.463L233.405 126.931C233.405 126.931 234.107 126.073 233.639 125.761C233.171 125.449 223.585 123.265 223.585 123.265C223.585 123.265 233.78 122.407 233.858 122.017C233.936 121.627 234.248 121.167 233.624 121.089C233 121.011 220.239 119.763 220.239 119.763C220.239 119.763 223.585 117.664 223.975 117.04C224.365 116.416 224.911 115.168 224.287 115.168C223.663 115.168 223.507 115.558 222.657 116.104C221.807 116.65 218.453 117.976 217.517 118.749C216.581 119.521 213.78 121.557 213.78 121.557L176.278 121.635L152.995 103.266" stroke="#263238" stroke-width="0.78" stroke-linecap="round" stroke-linejoin="round"/>
<path d="M233.602 121.089C232.986 121.011 220.217 119.763 220.217 119.763C220.217 119.763 223.564 117.664 223.954 117.04C224.344 116.416 224.89 115.168 224.266 115.168C223.642 115.168 223.486 115.558 222.635 116.104C221.785 116.65 218.431 117.976 217.495 118.749C216.559 119.521 213.759 121.557 213.759 121.557L176.257 121.635L172.099 118.335C170.539 121.073 167.622 126.205 165.727 129.591C168.644 131.213 170.851 132.422 171.296 132.601C172.622 133.147 213.626 126.455 213.626 126.455C213.626 126.455 215.966 127.547 217.441 128.475C218.915 129.403 228.259 132.375 228.259 132.375C228.259 132.375 228.883 132.063 228.181 131.525C227.479 130.987 222.971 128.795 222.971 128.795L232.331 130.823C232.331 130.823 232.877 130.433 232.643 130.043C232.409 129.653 224.063 126.463 224.063 126.463L233.423 126.931C233.423 126.931 234.125 126.073 233.657 125.761C233.189 125.449 223.579 123.265 223.579 123.265C223.579 123.265 233.774 122.407 233.852 122.017C233.93 121.627 234.226 121.167 233.602 121.089Z" fill="white" stroke="#263238" stroke-width="0.78" stroke-linecap="round" stroke-linejoin="round"/>
<path d="M170.803 73.6177C170.936 73.4563 171.112 73.3355 171.31 73.2691C171.508 73.2028 171.721 73.1934 171.924 73.2422C172.128 73.291 172.313 73.396 172.46 73.5451C172.606 73.6942 172.708 73.8816 172.753 74.0857C172.883 74.9318 172.84 75.7956 172.625 76.6244C172.411 77.4532 172.03 78.2295 171.505 78.9061C170.647 79.7641 169.867 79.9981 169.867 78.9061C170.084 77.1278 170.396 75.3624 170.803 73.6177Z" fill="white" stroke="#263238" stroke-width="0.78" stroke-linecap="round" stroke-linejoin="round"/>
<path d="M161.221 59.9834C160.948 63.7794 159.324 67.3518 156.643 70.0532C154.145 72.5091 151.321 74.6088 148.25 76.2932C148.25 76.2932 148.702 78.7346 149.623 79.499C150.543 80.2634 152.368 80.1152 152.368 80.1152C153.43 83.0164 155.155 85.629 157.407 87.7436C161.065 91.0976 165.34 90.7934 167.781 85.7624C170.223 80.7314 171.447 75.6848 171.143 72.7832L170.839 69.8816C170.839 69.8816 162.898 65.4746 161.221 59.9834Z" fill="white" stroke="#263238" stroke-width="0.78" stroke-linecap="round" stroke-linejoin="round"/>
<path d="M160.764 75.0688C161.152 75.0688 161.466 74.51 161.466 73.8207C161.466 73.1315 161.152 72.5728 160.764 72.5728C160.377 72.5728 160.062 73.1315 160.062 73.8207C160.062 74.51 160.377 75.0688 160.764 75.0688Z" fill="#263238"/>
<path d="M164.577 85.0292C164.965 85.0292 165.279 84.4704 165.279 83.7812C165.279 83.0919 164.965 82.5332 164.577 82.5332C164.189 82.5332 163.875 83.0919 163.875 83.7812C163.875 84.4704 164.189 85.0292 164.577 85.0292Z" fill="#263238"/>
<path d="M167.53 75.0688C167.918 75.0688 168.232 74.51 168.232 73.8207C168.232 73.1315 167.918 72.5728 167.53 72.5728C167.142 72.5728 166.828 73.1315 166.828 73.8207C166.828 74.51 167.142 75.0688 167.53 75.0688Z" fill="#263238"/>
<path d="M166.129 72.4946C165.861 73.429 165.781 74.4074 165.895 75.3728C166.129 76.6988 167.221 78.953 166.285 79.343C165.858 79.5379 165.385 79.6118 164.919 79.5568C164.453 79.5018 164.011 79.3199 163.641 79.031" stroke="#263238" stroke-width="0.78" stroke-linecap="round" stroke-linejoin="round"/>
<path d="M158.734 71.5662C158.734 71.5662 159.109 69.1794 162.237 69.4524" stroke="#263238" stroke-width="0.78" stroke-linecap="round" stroke-linejoin="round"/>
<path d="M167.117 70.1859C167.117 70.1859 170.034 67.8459 170.978 72.1281" stroke="#263238" stroke-width="0.78" stroke-linecap="round" stroke-linejoin="round"/>
</svg>
