<svg width="822" height="450" viewBox="0 0 822 450" fill="none" xmlns="http://www.w3.org/2000/svg">
<rect width="822" height="450" fill="white"/>
<g clip-path="url(#clip0_1866_253423)">
<path d="M537.674 274.976H558.328V266.248H537.674V274.976Z" fill="#EBEBEB"/>
<path d="M549.203 285.982L559.624 285.764L564.756 285.678C566.464 285.639 568.157 285.647 569.865 285.639L569.514 285.99L569.475 277.262L569.865 277.652L559.538 277.605C556.098 277.605 552.65 277.519 549.211 277.48L549.421 277.27C549.406 278.697 549.351 280.132 549.32 281.591L549.211 285.998L549.203 285.982ZM549.203 285.982L549.094 281.661C549.055 280.202 549.008 278.728 548.992 277.254V277.043H549.203C552.643 277.004 556.09 276.919 559.53 276.911L569.857 276.864H570.247V277.254L570.2 285.982V286.333H569.849C568.11 286.318 566.363 286.325 564.631 286.286L559.436 286.201L549.203 285.982Z" fill="#EBEBEB"/>
<path d="M397.07 200.252L407.491 200.034L412.623 199.948C414.331 199.909 416.024 199.917 417.732 199.901L417.381 200.252L417.342 191.524L417.732 191.914L407.405 191.867C403.965 191.867 400.518 191.782 397.078 191.743L397.288 191.532C397.273 192.959 397.218 194.395 397.187 195.853L397.078 200.26L397.07 200.252ZM397.07 200.252L396.961 195.931C396.922 194.473 396.875 192.998 396.859 191.524V191.314H397.07C400.51 191.275 403.957 191.189 407.397 191.181L417.724 191.134H418.114V191.524L418.068 200.252V200.603H417.717C415.977 200.588 414.23 200.596 412.498 200.557L407.304 200.471L397.07 200.252Z" fill="#EBEBEB"/>
<path d="M408.596 211.258H429.25V202.53H408.596V211.258Z" fill="#EBEBEB"/>
<path d="M385.375 211.258L395.795 211.04L400.928 210.954C402.636 210.915 404.329 210.923 406.037 210.907L405.686 211.258L405.647 202.53L406.037 202.92L395.71 202.873C392.27 202.873 388.822 202.787 385.382 202.748L385.593 202.538C385.577 203.965 385.523 205.4 385.492 206.859L385.382 211.266L385.375 211.258ZM385.375 211.258L385.265 206.937C385.226 205.478 385.18 204.004 385.164 202.53V202.319H385.375C388.814 202.28 392.262 202.195 395.702 202.187L406.029 202.14H406.419V202.53L406.372 211.258V211.609H406.021C404.282 211.594 402.535 211.601 400.803 211.562L395.608 211.477L385.375 211.258Z" fill="#EBEBEB"/>
<path d="M428.869 100.709H449.523V91.9806H428.869V100.709Z" fill="#EBEBEB"/>
<path d="M252.148 285.982L262.569 285.764L267.701 285.678C269.409 285.639 271.102 285.647 272.81 285.639L272.459 285.99L272.42 277.262L272.81 277.652L262.483 277.605C259.043 277.605 255.596 277.519 252.156 277.48L252.366 277.27C252.351 278.697 252.296 280.132 252.265 281.591L252.156 285.998L252.148 285.982ZM252.148 285.982L252.039 281.661C252 280.202 251.953 278.728 251.938 277.254V277.043H252.148C255.588 277.004 259.036 276.919 262.475 276.911L272.802 276.864H273.192V277.254L273.146 285.982V286.333H272.795C271.055 286.318 269.308 286.325 267.577 286.286L262.382 286.201L252.148 285.982Z" fill="#EBEBEB"/>
<path d="M263.672 65.016L274.092 64.7976L279.225 64.7118C280.933 64.6728 282.626 64.6806 284.334 64.665L283.983 65.016L283.944 56.2878L284.334 56.6778L274.007 56.631C270.567 56.631 267.119 56.5452 263.679 56.5062L263.89 56.2956C263.874 57.723 263.82 59.1582 263.789 60.6168L263.679 65.0238L263.672 65.016ZM263.672 65.016L263.562 60.6948C263.523 59.2362 263.477 57.762 263.461 56.2878V56.0772H263.672C267.111 56.0382 270.559 55.9524 273.999 55.9446L284.326 55.8978H284.716V56.2878L284.669 65.016V65.367H284.318C282.579 65.3514 280.832 65.3592 279.1 65.3202L273.905 65.2344L263.672 65.016Z" fill="#EBEBEB"/>
<path d="M252.15 76.0218H272.805V67.2936H252.15V76.0218Z" fill="#EBEBEB"/>
<path d="M549.203 65.016L559.624 64.7976L564.756 64.7118C566.464 64.6728 568.157 64.6806 569.865 64.665L569.514 65.016L569.475 56.2878L569.865 56.6778L559.538 56.631C556.098 56.631 552.65 56.5452 549.211 56.5062L549.421 56.2956C549.406 57.723 549.351 59.1582 549.32 60.6168L549.211 65.0238L549.203 65.016ZM549.203 65.016L549.094 60.6948C549.055 59.2362 549.008 57.762 548.992 56.2878V56.0772H549.203C552.643 56.0382 556.09 55.9524 559.53 55.9446L569.857 55.8978H570.247V56.2878L570.2 65.016V65.367H569.849C568.11 65.3514 566.363 65.3592 564.631 65.3202L559.436 65.2344L549.203 65.016Z" fill="#EBEBEB"/>
<path d="M389.207 314.281H333.086V376.423H389.207V314.281Z" fill="#EBEBEB"/>
<path d="M304.101 376.431H333.078V314.281H304.101V376.431Z" fill="#DBDBDB"/>
<path d="M306.109 372.149C308.254 367.726 310.384 363.296 312.49 358.85L318.777 345.481L324.985 332.057C327.045 327.572 329.08 323.079 331.101 318.563C328.956 322.985 326.826 327.416 324.72 331.862L318.433 345.231L312.225 358.655C310.165 363.14 308.13 367.633 306.109 372.149Z" fill="#EBEBEB"/>
<path d="M306.109 318.563C308.13 323.071 310.165 327.572 312.225 332.057L318.433 345.481L324.72 358.85C326.826 363.296 328.956 367.734 331.101 372.149C329.08 367.64 327.045 363.14 324.985 358.655L318.777 345.231L312.49 331.862C310.384 327.416 308.254 322.978 306.109 318.563Z" fill="#EBEBEB"/>
<path d="M389.207 220.423H333.086V278.284H389.207V220.423Z" fill="#EBEBEB"/>
<path d="M304.101 278.291H333.078V220.423H304.101V278.291Z" fill="#DBDBDB"/>
<path d="M356.375 233.855H357.568H358.458L358.972 232.825L359.682 233.855L360.649 231.725L361.57 233.855H364.198H365.4L365.829 232.435L366.234 233.855H367.014V220.423H356.375V233.855Z" fill="#DBDBDB"/>
<path d="M306.109 274.602C308.254 270.484 310.384 266.357 312.49 262.216L318.777 249.767L324.985 237.263C327.045 233.09 329.08 228.902 331.101 224.698C328.956 228.808 326.826 232.942 324.72 237.084L318.433 249.533L312.225 262.036C310.165 266.209 308.13 270.398 306.109 274.602Z" fill="#EBEBEB"/>
<path d="M306.109 224.705C308.13 228.91 310.165 233.098 312.225 237.271L318.433 249.775L324.72 262.223C326.826 266.365 328.956 270.491 331.101 274.61C329.08 270.406 327.045 266.217 324.985 262.044L318.777 249.541L312.49 237.092C310.384 232.95 308.254 228.824 306.109 224.705Z" fill="#EBEBEB"/>
<path d="M336.776 274.696H343.008V268.463H336.776V274.696Z" fill="white"/>
<path d="M385.465 278.291H329.344V314.281H385.465V278.291Z" fill="#DBDBDB"/>
<path d="M300.375 314.281H329.352V278.291H300.375V314.281Z" fill="#C7C7C7"/>
<path d="M352.641 291.723H353.826H354.723L355.23 290.686L355.948 291.723L356.915 289.594L357.835 291.723H360.456H361.657L362.094 290.303L362.5 291.723H363.28V278.291H352.641V291.723Z" fill="white"/>
<path d="M302.367 312.143C304.512 309.53 306.642 306.902 308.748 304.273L315.034 296.364L321.243 288.416C323.302 285.764 325.338 283.104 327.358 280.429C325.213 283.042 323.084 285.662 320.978 288.299L314.691 296.208L308.482 304.156C306.423 306.808 304.387 309.468 302.367 312.143Z" fill="#DBDBDB"/>
<path d="M302.367 280.429C304.387 283.096 306.423 285.764 308.482 288.416L314.691 296.364L320.978 304.273C323.084 306.902 325.213 309.53 327.358 312.143C325.338 309.476 323.302 306.808 321.243 304.156L315.034 296.216L308.748 288.307C306.642 285.678 304.512 283.049 302.367 280.436V280.429Z" fill="#DBDBDB"/>
<path d="M562.808 322.065H506.688V376.431H562.808V322.065Z" fill="#DBDBDB"/>
<path d="M477.718 376.431H506.695V322.065H477.718V376.431Z" fill="#C7C7C7"/>
<path d="M529.984 335.497H531.17H532.067L532.574 334.459L533.292 335.497L534.259 333.367L535.179 335.497H537.8H539.001L539.438 334.077L539.844 335.497H540.624V322.065H529.984V335.497Z" fill="white"/>
<path d="M479.711 373.194C481.856 369.247 483.985 365.285 486.091 361.307L492.378 349.357L498.587 337.361C500.646 333.352 502.682 329.335 504.702 325.302C502.557 329.249 500.428 333.211 498.322 337.189L492.035 349.139L485.826 361.135C483.767 365.144 481.731 369.161 479.711 373.194Z" fill="#DBDBDB"/>
<path d="M479.711 325.302C481.731 329.335 483.767 333.359 485.826 337.361L492.035 349.357L498.322 361.307C500.428 365.285 502.557 369.247 504.702 373.194C502.682 369.161 500.646 365.137 498.587 361.135L492.378 349.139L486.091 337.189C483.985 333.211 481.856 329.249 479.711 325.302Z" fill="#DBDBDB"/>
<path d="M465.227 53.121V185.799H556.533V53.121H465.227ZM553.164 182.429H468.596V56.4906H553.164V182.429Z" fill="#EBEBEB"/>
<path d="M553.161 56.4906H468.594V182.429H553.161V56.4906Z" fill="white"/>
<path d="M468.596 125.045L553.164 125.045V121.675L468.596 121.675V125.045Z" fill="#EBEBEB"/>
<path d="M459.018 195.463H562.734V185.791H459.018V195.463Z" fill="#DBDBDB"/>
<path d="M461.766 199.332L559.983 201.391V195.463H461.766V199.332Z" fill="#EBEBEB"/>
<path d="M468.594 56.4906H553.161V143.016H468.594V56.4906ZM550.041 59.6106H471.714V139.896H550.041V59.6028V59.6106Z" fill="#DBDBDB"/>
<path d="M526.177 56.4906H524.492V139.896H526.177V56.4906Z" fill="#DBDBDB"/>
<path d="M497.263 56.4906H495.578V139.896H497.263V56.4906Z" fill="#DBDBDB"/>
<path d="M265.469 53.121V185.799H356.776V53.121H265.469ZM353.406 182.429H268.838V56.4906H353.406V182.429Z" fill="#EBEBEB"/>
<path d="M353.404 56.4906H268.836V182.429H353.404V56.4906Z" fill="white"/>
<path d="M268.839 125.045L353.406 125.045V121.675L268.839 121.675V125.045Z" fill="#EBEBEB"/>
<path d="M259.26 195.463H362.977V185.791H259.26V195.463Z" fill="#DBDBDB"/>
<path d="M262.008 199.332L360.225 201.391V195.463H262.008V199.332Z" fill="#EBEBEB"/>
<path d="M268.836 56.4906H353.404V143.016H268.836V56.4906ZM350.284 59.6106H271.956V139.896H350.284V59.6028V59.6106Z" fill="#DBDBDB"/>
<path d="M326.419 56.4906H324.734V139.896H326.419V56.4906Z" fill="#DBDBDB"/>
<path d="M297.505 56.4906H295.82V139.896H297.505V56.4906Z" fill="#DBDBDB"/>
<path d="M248.328 376.431L288.997 376.236L329.667 376.174L410.997 376.041L492.328 376.174L532.997 376.236L573.666 376.431L532.997 376.618L492.328 376.688L410.997 376.821L329.667 376.688L288.997 376.618L248.328 376.431Z" fill="#263238"/>
<path d="M466.578 154.108C467.023 154.373 467.46 154.654 467.896 154.934" stroke="#263238" stroke-width="0.75" stroke-miterlimit="10"/>
<path d="M470.493 156.744C484.603 167.18 495.585 186.158 483.293 204.706C476.046 215.626 463.769 211.133 459.542 207.218C454.869 202.897 459.167 198.466 463.839 201.422C471.936 206.555 473.075 218.426 464.105 227.201C458.262 232.919 450.657 233.278 446.469 232.942" stroke="#263238" stroke-width="0.75" stroke-miterlimit="10"/>
<path d="M444.896 232.771C443.929 232.63 443.359 232.498 443.359 232.498" stroke="#263238" stroke-width="0.75" stroke-miterlimit="10"/>
<path d="M436.984 231.897C436.617 235.04 442.99 236.764 443.466 232.654C443.949 228.543 437.351 228.754 436.984 231.897Z" fill="#263238"/>
<path d="M445.354 237.061C444.761 238.246 442.663 238.402 440.494 236.897C438.326 235.391 436.828 232.778 436.828 232.778C436.828 232.778 439.816 232.42 442.319 233.254C444.823 234.097 445.946 235.867 445.346 237.061H445.354Z" fill="#EBEBEB"/>
<path d="M436.828 232.778C438.061 233.332 439.27 233.933 440.471 234.533C441.672 235.15 442.873 235.758 444.051 236.413C442.819 235.859 441.61 235.259 440.408 234.658C439.207 234.042 438.006 233.434 436.828 232.778Z" fill="#263238"/>
<path d="M442.49 237.037C442.209 236.717 441.967 236.366 441.733 236.015C441.507 235.657 441.281 235.298 441.094 234.916C441.375 235.235 441.616 235.586 441.85 235.937C442.077 236.296 442.303 236.655 442.49 237.037Z" fill="#263238"/>
<path d="M439.859 234.299C440.288 234.175 440.733 234.112 441.17 234.042C441.614 233.987 442.051 233.925 442.496 233.925C442.067 234.05 441.622 234.112 441.185 234.182C440.741 234.237 440.304 234.299 439.859 234.299Z" fill="#263238"/>
<path d="M439.194 234.814C439.046 234.65 438.953 234.463 438.851 234.276C438.765 234.081 438.672 233.894 438.633 233.675C438.781 233.839 438.875 234.026 438.976 234.214C439.062 234.409 439.155 234.596 439.194 234.814Z" fill="#263238"/>
<path d="M446.368 228.894C446.064 227.607 444.059 226.967 441.602 227.935C439.145 228.902 437.086 231.094 437.086 231.094C437.086 231.094 439.91 232.139 442.546 231.897C445.175 231.655 446.68 230.189 446.368 228.894Z" fill="#EBEBEB"/>
<path d="M437.086 231.094C438.412 230.836 439.722 230.532 441.041 230.228C442.351 229.908 443.661 229.596 444.956 229.229C443.63 229.479 442.32 229.791 441.002 230.095C439.691 230.415 438.381 230.727 437.086 231.094Z" fill="#263238"/>
<path d="M443.575 228.254C443.224 228.504 442.912 228.793 442.6 229.073C442.296 229.37 441.992 229.666 441.727 229.994C442.078 229.744 442.39 229.456 442.702 229.175C443.006 228.878 443.31 228.582 443.575 228.254Z" fill="#263238"/>
<path d="M440.375 230.314C440.765 230.532 441.178 230.696 441.592 230.867C442.005 231.023 442.426 231.179 442.855 231.289C442.465 231.07 442.052 230.906 441.639 230.735C441.225 230.579 440.804 230.423 440.375 230.314Z" fill="#263238"/>
<path d="M439.858 229.658C439.679 229.783 439.538 229.939 439.398 230.095C439.265 230.259 439.133 230.431 439.047 230.626C439.226 230.501 439.367 230.345 439.507 230.189C439.64 230.025 439.764 229.853 439.858 229.658Z" fill="#263238"/>
<path d="M436.983 231.897C437.607 231.967 438.06 232.537 437.982 233.161C437.911 233.785 437.342 234.237 436.718 234.159C436.094 234.081 435.642 233.519 435.72 232.895C435.79 232.271 436.359 231.819 436.983 231.897Z" fill="#455A64"/>
<path d="M437.249 229.627C437.873 229.697 438.325 230.267 438.247 230.891C438.169 231.515 437.608 231.967 436.984 231.889C436.36 231.811 435.907 231.25 435.985 230.626C436.056 230.002 436.625 229.549 437.249 229.627Z" fill="#455A64"/>
<path d="M366.524 305.342C366.524 305.342 349.918 338.64 349.91 338.671C348.537 345.551 347.453 351.604 347.188 354.786C347.188 354.802 347.18 354.817 347.188 354.841C347.087 356.042 347.102 356.822 347.274 357.064C347.289 357.087 347.289 357.103 347.305 357.118C349.076 358.912 403.722 371.494 405.774 371.291C407.833 371.096 407.412 365.222 405.68 363.038C403.933 360.854 385.174 346.682 385.174 346.682L401.437 313.329L366.532 305.342H366.524Z" fill="#FFBD9C"/>
<path d="M404.944 371.291C402.892 371.494 349.064 358.904 347.302 357.118C347.286 357.103 347.278 357.087 347.27 357.064C347.099 356.822 347.091 356.034 347.185 354.841C347.185 354.817 347.185 354.809 347.192 354.786C347.458 351.604 348.542 345.543 349.907 338.663C349.907 338.656 352.044 334.389 353.885 330.692L388.361 340.145L385.178 346.682C385.178 346.682 403.118 360.854 404.858 363.038C406.597 365.222 407.011 371.096 404.951 371.291H404.944Z" fill="#EBEBEB"/>
<path d="M405.698 370.417C403.623 370.573 348.844 356.611 347.097 354.755C346.418 354.061 347.994 345.956 350.17 336.23C350.193 336.128 350.217 336.027 350.24 335.926L385.683 344.537L385.52 345.13C385.52 345.13 404.099 359.856 405.8 362.095C407.492 364.325 407.781 370.261 405.698 370.409V370.417Z" fill="#263238"/>
<path d="M405.615 368.132C396.442 365.55 359.182 356.011 349.915 354.154C349.837 354.139 349.829 354.193 349.9 354.209C358.94 356.962 396.271 366.205 405.576 368.28C405.771 368.327 405.81 368.186 405.615 368.132Z" fill="white"/>
<path d="M388.45 345.995C384.987 344.389 380.4 343.819 376.968 345.699C376.836 345.769 376.937 345.956 377.07 345.956C380.946 345.738 384.472 345.871 388.325 346.456C388.598 346.495 388.707 346.112 388.458 346.003L388.45 345.995Z" fill="white"/>
<path d="M390.669 348.242C387.206 346.635 382.619 346.066 379.187 347.945C379.055 348.016 379.156 348.203 379.289 348.203C383.165 347.984 386.691 348.117 390.544 348.702C390.817 348.741 390.926 348.359 390.677 348.25L390.669 348.242Z" fill="white"/>
<path d="M392.887 350.496C389.424 348.889 384.838 348.32 381.406 350.2C381.273 350.27 381.375 350.457 381.507 350.457C385.384 350.239 388.909 350.371 392.763 350.956C393.036 350.995 393.145 350.613 392.895 350.504L392.887 350.496Z" fill="white"/>
<path d="M407.029 368.67C407.911 369.294 406.865 372.539 406.085 372.617C405.313 372.703 345.651 357.212 344.692 356.72C343.732 356.237 345.035 352.688 346.259 352.797C347.484 352.914 407.021 368.662 407.021 368.662L407.029 368.67Z" fill="#F75B00"/>
<path d="M357.716 344.357C354.253 341.362 349.589 346.736 353.06 349.739C356.523 352.735 361.187 347.36 357.716 344.357Z" fill="white"/>
<path d="M354.008 328.032L393.975 338.11C393.975 338.11 431.228 270.881 430.393 253.792C429.239 230.197 401.564 157.742 401.564 157.742H368.43C368.43 157.742 390.426 236.093 390.707 249.275C390.855 256.171 354 328.032 354 328.032H354.008Z" fill="#455A64"/>
<path d="M395.68 329.998C393.55 329.147 374.526 323.656 360.33 320.653C360.236 320.63 360.205 320.77 360.299 320.801C364.768 322.377 392.973 329.795 395.617 330.161C395.703 330.177 395.773 330.044 395.68 330.005V329.998Z" fill="#263238"/>
<path d="M393.47 232.443C390.834 221.383 388.057 210.353 385.046 199.387C382.028 188.373 378.908 177.375 375.421 166.494C374.992 165.168 374.555 163.842 374.119 162.516C374.048 162.313 373.736 162.407 373.799 162.61C376.895 173.436 380.054 184.255 383.003 195.128C385.951 206.001 388.775 216.905 391.427 227.849C392.082 230.563 392.729 233.27 393.369 235.984C394.024 238.784 394.734 241.6 395.062 244.463C395.374 247.216 395.218 249.946 394.516 252.629C393.821 255.266 392.706 257.754 391.575 260.227C386.794 270.601 382.004 280.967 377.246 291.356C372.481 301.762 371.701 304.133 367.13 314.632C366.56 315.934 365.991 317.237 365.453 318.547C365.414 318.633 365.539 318.703 365.585 318.617C370.811 308.337 371.615 305.857 376.466 295.397C381.349 284.867 386.216 274.337 391.06 263.799C393.244 259.041 395.81 254.189 396.138 248.87C396.481 243.34 394.734 237.77 393.47 232.443Z" fill="#263238"/>
<path d="M395.281 318.508C395.281 318.508 396.56 355.16 396.56 355.192C396.771 362.204 397.075 368.342 397.535 371.509C397.535 371.525 397.535 371.54 397.543 371.564C397.715 372.757 397.902 373.514 398.128 373.717C398.144 373.732 398.152 373.748 398.167 373.763C400.297 375.113 456.371 375.082 458.329 374.426C460.294 373.779 458.555 368.14 456.379 366.408C454.187 364.676 432.713 355.082 432.713 355.082L431.083 318.454L395.273 318.524L395.281 318.508Z" fill="#FFBD9C"/>
<path d="M396.305 347.665C396.305 347.665 396.57 355.168 396.57 355.192C396.78 362.204 397.085 368.342 397.545 371.509C397.545 371.525 397.545 371.54 397.553 371.564C397.794 372.742 397.997 373.514 398.138 373.717C398.153 373.732 398.161 373.748 398.177 373.763C400.306 375.113 456.38 375.082 458.338 374.426C460.304 373.779 458.564 368.14 456.388 366.408C454.196 364.676 432.723 355.082 432.723 355.082L432.559 347.438L396.305 347.68V347.665Z" fill="#EBEBEB"/>
<path d="M458.362 374.348C456.38 374.98 399.854 374.107 397.724 372.703C396.905 372.188 396.554 363.943 396.414 353.967C396.414 353.866 396.414 353.756 396.414 353.655L432.887 353.811L432.863 354.427C432.863 354.427 454.352 364.442 456.529 366.229C458.689 368.007 460.351 373.717 458.362 374.341V374.348Z" fill="#263238"/>
<path d="M457.756 372.141C448.232 371.759 409.778 371.119 400.332 371.462C400.254 371.462 400.254 371.517 400.332 371.525C409.762 372.11 448.216 372.437 457.748 372.297C457.951 372.297 457.951 372.149 457.748 372.141H457.756Z" fill="white"/>
<path d="M435.92 354.591C432.183 353.834 427.589 354.334 424.68 356.962C424.571 357.064 424.711 357.22 424.836 357.188C428.556 356.081 432.02 355.387 435.896 355.067C436.169 355.043 436.185 354.646 435.92 354.591Z" fill="white"/>
<path d="M438.607 356.26C434.871 355.504 430.277 356.011 427.367 358.631C427.258 358.733 427.399 358.889 427.523 358.858C431.244 357.75 434.707 357.056 438.584 356.736C438.857 356.713 438.872 356.315 438.607 356.26Z" fill="white"/>
<path d="M441.279 357.937C437.543 357.181 432.949 357.68 430.039 360.308C429.93 360.41 430.07 360.566 430.195 360.535C433.916 359.427 437.379 358.733 441.256 358.413C441.529 358.39 441.544 357.992 441.279 357.937Z" fill="white"/>
<path d="M459.25 372.336C460.256 372.742 459.983 376.135 459.25 376.4C458.516 376.657 396.889 375.433 395.844 375.183C394.798 374.933 395.243 371.182 396.46 371.002C397.677 370.831 459.242 372.336 459.242 372.336H459.25Z" fill="#F75B00"/>
<path d="M405.639 360.129C401.575 358.015 398.283 364.333 402.355 366.447C406.419 368.561 409.71 362.243 405.639 360.129Z" fill="white"/>
<path d="M401.158 157.711C401.158 157.711 401.158 157.719 401.151 157.742C401.002 158.421 392.742 191.08 391.713 191.696C390.543 192.382 421.727 234.346 425.424 254.938C427.788 268.112 433.185 344.903 433.185 344.903H393.468C393.468 344.903 389.575 279.695 388.273 258.199C387.766 249.86 356.488 211.313 353.516 185.612C352.58 177.515 358.399 157.703 358.399 157.703H401.158V157.711Z" fill="#455A64"/>
<path d="M392.47 313.813C391.995 303.01 391.566 292.183 390.778 281.396C390.333 275.281 389.46 269.368 388.851 263.269C388.82 262.949 388.563 262.871 388.57 263.198C388.851 274.048 389.748 284.781 390.325 295.623C390.903 306.426 391.456 308.992 392.065 319.795C392.408 325.91 392.712 332.026 393.188 338.133C393.188 338.227 393.336 338.227 393.336 338.133C393.36 327.283 392.931 324.655 392.463 313.813H392.47Z" fill="#263238"/>
<path d="M425.477 255.391C425.095 252.544 424.619 249.704 423.816 246.943C423.036 244.244 421.889 241.67 420.594 239.182C417.888 233.987 414.807 228.964 411.835 223.91C408.824 218.793 405.767 213.707 402.631 208.676C400.868 205.845 399.098 203.021 397.311 200.198C395.51 197.343 393.599 194.558 391.727 191.75C391.656 191.641 391.477 191.75 391.547 191.86C394.589 196.953 397.6 202.07 400.642 207.171C403.684 212.264 406.679 217.389 409.682 222.514C412.631 227.552 415.587 232.591 418.403 237.7C419.752 240.149 421.039 242.645 421.983 245.282C422.958 247.988 423.535 250.804 423.987 253.636C425.048 260.242 425.914 266.888 427.24 273.44C427.256 273.526 427.388 273.502 427.388 273.416C426.975 267.395 426.257 261.373 425.462 255.391H425.477Z" fill="#263238"/>
<path d="M429.706 338.024C427.428 337.727 410.112 337.127 395.62 337.751C395.519 337.751 395.526 337.891 395.62 337.899C400.347 338.32 427.031 338.5 429.683 338.195C429.768 338.188 429.807 338.039 429.698 338.024H429.706Z" fill="#263238"/>
<path d="M396.905 189.395C392.841 190.791 388.926 192.78 385.174 194.855C385.026 194.933 385.127 195.167 385.283 195.097C389.238 193.396 393.262 191.774 397.116 189.863C397.42 189.715 397.217 189.286 396.905 189.395Z" fill="#263238"/>
<path d="M398.098 162.329C398.09 162.196 397.849 162.165 397.849 162.313C397.88 167.001 397.583 171.127 397.186 175.511C396.998 177.547 395.368 188.794 391.835 187.975C391.242 187.835 390.946 187.258 390.852 186.368C390.743 185.3 391.141 183.982 391.32 182.921C391.71 180.565 392.03 178.202 392.225 175.823C392.599 171.385 392.623 166.946 392.084 162.516C392.069 162.368 391.858 162.383 391.858 162.532C391.858 168.678 391.702 174.809 390.782 180.901C390.337 183.826 388.871 188.233 391.928 188.677C395.048 189.137 397.061 181.759 397.443 179.738C398.504 174.107 398.543 168.031 398.098 162.329Z" fill="#263238"/>
<path d="M391.925 188.279C391.606 189.036 391.348 189.824 391.13 190.612C390.958 191.228 390.732 191.891 390.802 192.53C390.818 192.655 390.982 192.663 391.044 192.585C391.457 192.062 391.629 191.345 391.863 190.721C392.128 190.003 392.417 189.286 392.666 188.552C392.83 188.069 392.12 187.819 391.925 188.279Z" fill="#263238"/>
<path d="M393.59 268.619C393.224 263.074 393.239 257.208 390.884 252.06C389.714 249.509 388.099 247.193 386.563 244.853C384.948 242.388 383.357 239.915 381.789 237.419C375.518 227.459 369.527 217.295 364.044 206.882C361.4 201.867 358.966 196.688 357.64 191.15C356.252 185.354 356.197 179.286 356.915 173.397C357.094 171.923 357.297 170.456 357.547 168.99C357.562 168.881 357.406 168.842 357.383 168.951C356.189 174.583 355.565 180.378 356.08 186.134C356.572 191.68 358.334 196.93 360.659 201.961C363.077 207.194 365.955 212.233 368.794 217.256C371.719 222.428 374.73 227.552 377.834 232.622C380.923 237.669 384.168 242.599 387.389 247.559C388.949 249.962 390.4 252.427 391.188 255.203C391.991 258.019 392.21 260.96 392.397 263.869C393.193 276.146 396.305 316.964 397.405 329.179C397.545 330.731 397.685 332.283 397.826 333.827C397.841 333.968 398.044 333.96 398.044 333.827C397.568 321.574 394.402 280.858 393.59 268.619Z" fill="#263238"/>
<path d="M374.507 168.444C374.492 168.358 374.367 168.389 374.359 168.467C374.242 171.884 374.344 175.402 373.025 178.623C371.824 181.579 369.406 183.654 366.7 185.206C365.14 186.103 363.486 186.86 361.84 187.585C361.723 187.64 361.77 187.827 361.903 187.788C365.054 186.79 368.244 185.705 370.857 183.615C373.649 181.376 374.874 178.124 375.014 174.606C375.092 172.539 374.851 170.488 374.507 168.452V168.444Z" fill="#263238"/>
<path d="M391.819 112.885C396.273 126.581 408.331 149.911 412.637 152.727C416.451 155.215 434.399 152.438 442.246 150.543C445.186 149.833 438.58 127.478 435.46 128.297C431.708 129.28 420.531 131.8 419.719 131.183C418.822 130.505 407.637 116.675 399.65 108.501C392.404 101.091 390.142 107.705 391.827 112.892L391.819 112.885Z" fill="#FFBD9C"/>
<path d="M440.545 150.715C442.05 150.527 454.788 149.95 460.63 146.76C463.727 145.067 471.706 139.467 470.918 137.455C470.193 135.622 467.627 136.62 467.627 136.62C467.627 136.62 471.152 134.069 470.115 131.527C469.077 128.984 464.842 130.895 464.842 130.895C464.842 130.895 468.266 128.009 467.057 125.552C465.84 123.095 461.901 125.723 461.901 125.723C461.901 125.723 465.154 123.235 463.305 121.628C461.075 119.694 455.591 124.967 451.894 126.199C451.052 126.48 434.445 130.676 434.445 130.676L440.545 150.715Z" fill="#FFBD9C"/>
<path d="M461.761 125.653C457.721 129.514 455.28 130.505 449.89 131.605C449.781 131.628 449.788 131.784 449.905 131.776C455.287 131.183 458.524 130.388 461.964 125.84C462.136 125.622 461.964 125.474 461.769 125.653H461.761Z" fill="#263238"/>
<path d="M464.712 130.801C460.165 134.452 457.528 135.544 451.959 137.104C451.881 137.127 451.912 137.26 451.99 137.244C457.583 136.168 460.789 135.294 464.853 131.059C465.04 130.864 464.915 130.63 464.704 130.801H464.712Z" fill="#263238"/>
<path d="M467.36 136.682C462.703 139.896 459.864 141.222 454.264 142.041C454.131 142.057 454.147 142.252 454.279 142.252C460.067 141.971 463.624 140.341 467.438 136.831C467.695 136.589 467.649 136.48 467.352 136.675L467.36 136.682Z" fill="#263238"/>
<path d="M430.094 131.394C430.094 131.394 434.735 126.145 437.278 124.288C439.828 122.432 451.864 119 452.753 121.558C453.899 124.858 447.34 128.212 443.915 129.428C443.915 129.428 446.575 137.065 442.387 140.489C438.198 143.913 430.094 131.394 430.094 131.394Z" fill="#FFBD9C"/>
<path d="M452.78 122.572C451.649 126.34 447.047 127.65 443.817 129.085C443.568 129.194 443.576 129.428 443.693 129.6C444.59 132.876 444.909 137.759 442.616 140.512C442.546 140.59 442.655 140.699 442.733 140.629C445.596 138.008 445.674 133.18 444.457 129.662C447.796 128.243 452.358 126.73 452.819 122.588C452.819 122.564 452.787 122.557 452.78 122.58V122.572Z" fill="#263238"/>
<path d="M440.547 154.568L434.658 127.783L420.103 130.427C414.362 123.851 402.888 110.708 398.24 106.762C392.787 102.128 389.207 105.615 391.212 112.627C395.79 128.664 409.089 152.189 412.592 154.443C417.615 157.68 440.539 154.576 440.539 154.576L440.547 154.568Z" fill="#F75B00"/>
<path opacity="0.1" d="M419.759 138.57C420.429 138.804 421.248 138.734 421.95 138.827C423.487 139.038 424.197 141.339 422.777 142.213C421.256 143.149 419.423 143.297 417.746 142.642C416.178 142.033 414.868 140.52 415.203 138.757C415.5 137.213 417.091 136.768 418.316 137.556C418.815 137.876 419.181 138.375 419.751 138.57H419.759ZM415.734 132.197C415.172 134.857 419.275 137.127 421.373 135.715C422.122 135.208 422.099 134.054 421.428 133.508C420.819 133.009 420.297 132.931 419.751 132.478C419.486 132.26 419.54 132.299 419.252 131.956C418.901 131.527 418.589 131.199 418.089 130.918C417.075 130.357 415.944 131.222 415.734 132.197ZM409.19 132.338C408.347 133.438 408.979 135.091 409.72 136.09C410.453 137.072 411.537 137.712 412.785 137.579C413.729 137.478 414.143 136.168 413.363 135.583C412.871 135.216 412.497 134.725 412.271 134.218C411.904 133.391 411.654 132.33 410.734 131.963C410.204 131.753 409.548 131.862 409.182 132.33L409.19 132.338ZM426.467 149.685C425.367 151.908 428.713 154.435 430.749 153.998C431.427 153.85 432.083 152.961 431.474 152.321C430.991 151.814 430.413 151.401 429.961 150.855C429.407 150.192 429.111 149.342 428.237 149.006C427.543 148.741 426.802 149.006 426.467 149.685ZM395.048 122.424C394.861 122.073 394.604 121.73 394.284 121.48C394.721 122.596 395.181 123.719 395.664 124.842C395.758 124.023 395.391 123.095 395.048 122.424ZM399.393 120.076C399.338 118.15 398.402 116.34 397.24 114.842C396.304 113.641 394.689 111.699 392.966 112.136C392.56 112.237 392.373 112.619 392.342 112.994C392.232 114.312 393.746 115.732 394.393 116.777C395.212 118.103 395.797 119.569 396.632 120.887C397.419 122.12 399.424 121.582 399.377 120.076H399.393ZM398.886 128.469C399.502 128.422 400.048 128.017 400.196 127.393C400.344 126.769 400.251 126.184 400.079 125.575C399.939 125.076 399.681 124.421 399.26 124.085C398.621 123.578 397.646 123.758 397.435 124.624C397.326 125.06 397.412 125.552 397.419 125.996C397.419 126.191 397.419 126.394 397.404 126.589C397.388 126.886 397.451 127.174 397.497 127.471C397.599 128.048 398.316 128.508 398.878 128.469H398.886Z" fill="#030402"/>
<path d="M435.448 152.22C434.777 150.637 433.132 143.734 432.742 142.01C432.359 140.317 431.018 133.313 430.62 131.542C430.597 131.449 430.729 131.386 430.753 131.488C431.174 133.235 433.061 140.114 433.467 141.83C433.873 143.554 435.433 150.465 435.542 152.204C435.542 152.267 435.472 152.282 435.456 152.228L435.448 152.22Z" fill="#263238"/>
<path opacity="0.1" d="M421.945 155.902C417.85 155.878 414.262 155.504 412.601 154.435C409.091 152.173 395.8 128.656 391.221 112.619C390.067 108.595 390.761 105.732 392.586 104.897L421.953 155.902H421.945Z" fill="black"/>
<path d="M355.922 161.354C356.023 161.502 404.695 167.742 405.21 167.29C405.405 167.126 405.795 163.179 405.795 163.179C405.795 163.179 401.333 110.186 399.025 107.081C397.004 104.359 390.874 102.401 386.701 104.172C377.941 107.885 356.967 155.231 357.193 157.181C357.193 157.181 355.789 161.167 355.914 161.346L355.922 161.354Z" fill="#F75B00"/>
<path opacity="0.1" d="M373.473 154.903C374.144 155.34 375.056 155.48 375.797 155.777C377.42 156.424 377.568 159.131 375.789 159.692C373.871 160.301 371.835 159.965 370.181 158.803C368.637 157.711 367.615 155.707 368.457 153.874C369.198 152.267 371.063 152.22 372.186 153.406C372.646 153.889 372.911 154.537 373.481 154.903H373.473ZM370.805 146.846C369.471 149.599 373.332 153.187 376.008 152.212C376.967 151.861 377.248 150.598 376.663 149.818C376.133 149.108 375.587 148.882 375.111 148.242C374.877 147.93 374.931 147.992 374.713 147.532C374.44 146.963 374.198 146.526 373.722 146.081C372.771 145.192 371.297 145.832 370.805 146.846ZM366.305 143.913C364.846 144.459 364.472 146.425 364.581 147.813C364.69 149.186 365.353 150.442 366.624 151.058C367.584 151.526 368.762 150.52 368.364 149.498C368.114 148.858 368.044 148.164 368.13 147.548C368.27 146.542 368.668 145.372 368.005 144.482C367.623 143.968 366.929 143.679 366.305 143.913ZM382.295 153.195C381.522 153.094 380.805 153.671 380.703 154.427C380.586 155.254 381.156 155.972 381.912 156.229C382.482 156.416 382.973 156.401 383.55 156.237C383.823 156.159 384.05 155.902 384.182 155.675C384.33 155.426 384.416 155.122 384.362 154.833C384.268 154.303 383.855 153.796 383.293 153.702C383.246 153.647 383.192 153.585 383.121 153.53C382.88 153.335 382.599 153.226 382.295 153.187V153.195ZM370.329 134.374C369.027 135.715 369.581 138.765 371.047 139.795C371.897 140.387 373.13 139.966 373.27 138.882C373.317 138.523 373.293 138.305 373.286 137.954C373.286 137.618 373.247 137.4 373.254 137.205C373.293 136.55 373.473 135.824 373.325 135.185C372.981 133.711 371.367 133.297 370.329 134.374ZM361.874 153.749C360.072 155.886 363.044 159.552 365.376 159.622C366.156 159.646 367.116 158.85 366.624 157.992C366.234 157.306 365.712 156.697 365.369 155.98C364.947 155.106 364.846 154.092 363.988 153.491C363.302 153.016 362.42 153.094 361.866 153.749H361.874ZM404.907 153.07C404.369 153.156 403.862 153.515 403.674 154.193C403.425 155.059 403.394 155.831 402.746 156.51C402.091 157.189 401.319 157.61 400.835 158.444C400.414 159.154 401.038 160.207 401.88 160.114C403.23 159.973 404.486 159.248 405.367 158.21C405.242 156.744 405.086 155.005 404.907 153.07ZM400.983 146.635C400.539 147.696 400.625 148.897 400.258 150.005C399.93 151.003 399.548 152.033 399.104 152.984C398.776 153.679 399.431 154.794 400.289 154.42C401.709 153.788 402.762 152.961 403.456 151.526C404.049 150.301 404.704 148.242 404.135 146.939C403.612 145.738 401.623 145.106 400.983 146.643V146.635ZM396.537 157.267C395.843 158.039 395.087 158.858 394.112 159.256C393.183 159.638 392.637 160.558 393.082 161.541C393.534 162.539 394.564 162.688 395.477 162.274C397.107 161.525 398.363 160.223 398.862 158.483C399.244 157.157 397.419 156.284 396.537 157.267ZM389.408 119.047C390.329 119.195 391.194 118.719 391.436 117.783C391.873 116.106 390.375 114.374 389.19 113.329C387.965 112.253 386.335 111.332 384.674 111.871C383.621 112.214 383.496 113.353 384.12 114.125C384.845 115.03 385.851 115.693 386.624 116.574C387.458 117.526 388.051 118.82 389.408 119.039V119.047ZM395.375 125.661C396.03 124.717 395.523 123.329 395.055 122.424C394.806 121.948 394.424 121.504 393.948 121.238C393.3 120.88 392.318 120.926 391.951 121.667C391.709 122.151 391.733 122.588 391.857 123.087C391.92 123.337 392.013 123.547 392.123 123.789C392.138 123.82 392.146 123.844 392.154 123.859L392.169 123.922C392.396 124.647 392.536 125.45 393.09 126.004C393.815 126.737 394.868 126.402 395.383 125.653L395.375 125.661ZM399.392 120.076C399.338 118.15 398.402 116.34 397.239 114.842C396.303 113.641 394.689 111.699 392.965 112.136C392.559 112.237 392.372 112.619 392.341 112.994C392.232 114.312 393.745 115.732 394.392 116.777C395.211 118.103 395.796 119.569 396.631 120.887C397.419 122.12 399.423 121.582 399.377 120.076H399.392ZM393.503 133.43C393.792 133.484 394.088 133.477 394.377 133.406C394.821 133.297 395.157 132.954 395.391 132.587C395.633 132.205 395.672 131.675 395.695 131.238C395.718 130.778 395.531 130.38 395.344 129.982C395.258 129.873 395.172 129.772 395.087 129.662L394.743 129.413C394.431 129.241 394.08 129.194 393.745 129.257C393.121 129.358 392.606 129.818 392.458 130.442C392.349 130.903 392.208 131.355 392.185 131.831C392.208 131.971 392.232 132.119 392.255 132.26C392.31 132.478 392.419 132.673 392.567 132.837C392.793 133.126 393.129 133.375 393.503 133.445V133.43ZM398.885 128.469C399.501 128.422 400.047 128.017 400.196 127.393C400.344 126.769 400.25 126.184 400.079 125.575C399.938 125.076 399.681 124.421 399.26 124.085C398.62 123.578 397.645 123.758 397.434 124.624C397.325 125.06 397.411 125.552 397.419 125.996C397.419 126.191 397.419 126.394 397.403 126.589C397.388 126.886 397.45 127.174 397.497 127.471C397.598 128.048 398.316 128.508 398.877 128.469H398.885Z" fill="#030402"/>
<path d="M396.192 115.388C393.221 115.115 389.414 108.766 388.689 104.734C388.642 104.453 389.828 102.113 391.13 99.1956C391.918 97.425 392.745 95.4282 393.377 93.5562L404.172 100.35C404.172 100.35 401.699 103.891 400.623 107.167C400.537 107.44 400.475 107.705 400.443 107.963C400.436 108.002 400.428 108.049 400.42 108.095C400.17 109.64 399.063 115.654 396.185 115.396L396.192 115.388Z" fill="#FFBD9C"/>
<path d="M400.445 107.955C400.445 107.955 400.437 108.033 400.421 108.08C400.039 108.017 399.626 107.9 399.189 107.744C392.442 105.311 393.627 96.45 394.103 94.0008L396.802 95.7012L404.173 100.342C404.173 100.342 401.701 103.883 400.632 107.159C400.546 107.432 400.484 107.69 400.452 107.955H400.445Z" fill="#263238"/>
<path d="M394.505 81.045C392.274 85.062 391.892 97.9632 394.356 101.387C397.929 106.348 405.105 108.283 409.652 103.688C414.059 99.2346 414.27 82.41 411.392 79.1574C407.156 74.376 397.804 75.1092 394.505 81.045Z" fill="#FFBD9C"/>
<path d="M404.86 91.4736C404.86 91.4736 404.789 91.5126 404.789 91.5516C404.789 92.4408 404.633 93.4548 403.822 93.72C403.799 93.7278 403.799 93.7746 403.822 93.7668C404.805 93.6654 404.992 92.3082 404.852 91.4658L404.86 91.4736Z" fill="#263238"/>
<path d="M404.106 90.522C402.686 90.366 402.476 93.2208 403.794 93.369C405.089 93.5094 405.299 90.6546 404.106 90.522Z" fill="#263238"/>
<path d="M409.981 91.7778C409.981 91.7778 410.043 91.8246 410.043 91.8636C409.942 92.745 409.981 93.7746 410.761 94.1334C410.784 94.1412 410.776 94.188 410.753 94.1802C409.786 93.9618 409.754 92.5968 409.988 91.7778H409.981Z" fill="#263238"/>
<path d="M410.847 90.9198C412.282 90.9198 412.165 93.7902 410.839 93.7824C409.536 93.7824 409.653 90.912 410.847 90.9198Z" fill="#263238"/>
<path d="M405.257 89.9448C404.867 90.0306 404.485 90.0384 404.087 90.0852C403.635 90.132 403.284 90.2178 402.87 89.9994C402.644 89.8824 402.543 89.5236 402.636 89.2974C402.855 88.767 403.385 88.572 403.923 88.494C404.508 88.4082 404.976 88.494 405.483 88.7904C405.975 89.079 405.772 89.8356 405.249 89.9526L405.257 89.9448Z" fill="#263238"/>
<path d="M412.121 88.26C411.731 88.1664 411.388 88.0182 411.006 87.8856C410.577 87.7374 410.226 87.6594 409.945 87.285C409.797 87.0822 409.851 86.7156 410.031 86.5518C410.46 86.1696 411.021 86.2164 411.544 86.3802C412.105 86.5518 412.495 86.8326 412.823 87.324C413.143 87.7998 412.628 88.3926 412.113 88.2678L412.121 88.26Z" fill="#263238"/>
<path d="M404.215 98.5092C405.37 98.1426 406.805 98.3766 407.71 98.556C407.811 98.5482 407.92 98.3532 407.944 98.2596L408.014 96.3798C408.248 96.5202 409.472 97.1676 409.472 96.8166C409.496 93.8916 409.511 90.639 408.919 87.7218C408.903 87.6282 408.755 87.636 408.755 87.7296C408.622 90.5376 408.989 93.3534 408.903 96.177C408.513 95.9976 407.881 95.67 407.522 95.6544C407.421 95.6778 407.554 97.6434 407.499 97.9398C407.499 97.9398 405.752 97.2846 404.231 98.1192C403.833 98.3376 403.669 98.6808 404.223 98.5092H404.215Z" fill="#263238"/>
<path d="M401.907 100.366C402.102 100.584 402.297 100.88 402.617 100.927C402.921 100.974 403.287 100.857 403.576 100.763C403.607 100.756 403.631 100.787 403.615 100.81C403.365 101.13 402.874 101.317 402.468 101.216C402.078 101.122 401.899 100.763 401.829 100.397C401.821 100.342 401.883 100.327 401.915 100.366H401.907Z" fill="#263238"/>
<path opacity="0.2" d="M398.272 76.95C398.155 78.9624 397.679 85.1712 396.72 86.4348C395.8 87.6516 393.709 90.639 392.664 91.0992C392.804 86.9574 393.444 83.0184 394.52 80.9826C395.402 79.29 396.72 77.9328 398.272 76.95Z" fill="#263238"/>
<path d="M409.388 83.0262C408.273 84.1416 406.666 84.6408 405.122 84.2742C403.616 83.9232 402.189 82.761 401.744 81.2478C401.729 81.201 401.659 81.2244 401.674 81.2712C402.142 82.8858 403.328 84.2742 405.028 84.633C406.627 84.9684 408.413 84.3522 409.466 83.1042C409.513 83.0496 409.435 82.9716 409.388 83.0262Z" fill="#263238"/>
<path d="M405.474 71.4666C402.83 71.334 400.31 72.621 399.218 74.3526C398.555 75.4056 398.392 76.5054 398.485 77.6442C398.485 77.691 398.587 77.691 398.587 77.6442C398.563 75.8502 399.585 73.8768 401.59 72.7692C403.508 71.7006 405.981 71.5056 408.032 72.4572C409.109 72.9564 409.951 73.713 410.349 74.6022C410.396 74.7036 410.599 74.6568 410.56 74.5554C409.959 72.855 407.869 71.5914 405.482 71.4744L405.474 71.4666Z" fill="#263238"/>
<path d="M420.387 78.2682C420.059 76.9422 419.232 75.7644 418.133 74.9688C416.588 73.8534 414.747 73.869 412.922 73.9236C412.875 73.9236 412.875 74.0016 412.922 74.0016C414.482 73.9626 416.058 74.0016 417.431 74.8362C418.546 75.507 419.443 76.5678 419.88 77.808C420.777 80.3742 419.544 83.3928 417.08 84.5628C415.683 85.2258 414.014 85.2804 412.587 84.7032C412.532 84.6798 412.485 84.7656 412.54 84.789C415.153 85.92 418.39 84.9216 419.786 82.4178C420.48 81.1776 420.738 79.6644 420.395 78.276L420.387 78.2682Z" fill="#263238"/>
<path d="M393.723 83.5644C393.723 83.5644 391.578 78.6582 393.872 76.092C395.174 74.6334 399.09 75.1326 399.09 75.1326C399.09 75.1326 400.525 72.9642 403.84 72.465C407.194 71.958 410.961 74.181 410.961 74.181C410.961 74.181 414.222 72.6288 417.03 74.5242C420.938 77.1684 419.955 83.3538 415.696 85.0386C412.701 86.2242 408.972 83.3694 408.972 83.3694C408.59 83.3928 404.558 85.4286 401.898 81.7626C401.898 81.7626 399.363 83.6892 397.35 82.0512C397.35 82.0512 396.11 84.1104 393.716 83.5644H393.723Z" fill="#263238"/>
<path d="M394.993 91.731C394.993 91.731 392.95 87.1524 390.93 87.8076C388.909 88.4628 389.9 94.7106 391.889 95.9274C393.886 97.1442 395.04 95.319 395.04 95.319L394.986 91.731H394.993Z" fill="#FFBD9C"/>
<path d="M391.257 89.5938C391.257 89.5938 391.21 89.6328 391.233 89.6484C392.622 90.5454 393.144 92.0976 393.417 93.6498C393.074 93.0024 392.528 92.5812 391.678 92.9712C391.631 92.9946 391.662 93.057 391.701 93.057C392.341 93.0414 392.77 93.2364 393.09 93.8136C393.316 94.2192 393.433 94.7028 393.565 95.1474C393.612 95.2956 393.87 95.2722 393.846 95.1084V95.0694C394.252 93.1584 393.277 90.1788 391.249 89.5938H391.257Z" fill="#263238"/>
<path d="M503.117 100.818L419.141 126.54L434.282 175.972L518.259 150.249L503.117 100.818Z" fill="#F75B00"/>
<path opacity="0.2" d="M503.117 100.818L419.141 126.54L434.282 175.972L518.259 150.249L503.117 100.818Z" fill="black"/>
<path opacity="0.2" d="M503.104 100.821L474.883 109.465L490.024 158.896L518.245 150.252L503.104 100.821Z" fill="black"/>
<path d="M501.749 103.337C500.805 107.713 499.877 112.089 498.98 116.473L496.312 129.639L493.738 142.829C492.896 147.228 492.077 151.635 491.273 156.05C492.217 151.674 493.145 147.298 494.05 142.915L496.718 129.748L499.292 116.558C500.134 112.159 500.953 107.752 501.757 103.337H501.749Z" fill="#F75B00"/>
<path d="M515.611 148.593C512.475 145.387 509.332 142.189 506.165 139.022L496.649 129.538L487.07 120.123C483.872 116.995 480.651 113.883 477.414 110.794C480.55 114 483.693 117.198 486.86 120.365L496.376 129.85L505.954 139.264C509.152 142.392 512.374 145.504 515.611 148.593Z" fill="#F75B00"/>
<path d="M435.264 132.909L435.727 132.767L433.737 126.272L433.274 126.413L435.264 132.909Z" fill="#263238"/>
<path d="M434.17 133.239L434.633 133.097L432.643 126.602L432.181 126.743L434.17 133.239Z" fill="#263238"/>
<path d="M433.053 133.595L433.516 133.453L431.526 126.957L431.064 127.099L433.053 133.595Z" fill="#263238"/>
<path d="M431.952 133.907L432.414 133.765L430.425 127.269L429.963 127.41L431.952 133.907Z" fill="#263238"/>
<path d="M430.858 134.255L431.32 134.113L429.331 127.617L428.868 127.759L430.858 134.255Z" fill="#263238"/>
<path d="M429.749 134.587L430.211 134.446L428.221 127.95L427.759 128.091L429.749 134.587Z" fill="#263238"/>
<path d="M428.639 134.956L429.102 134.815L427.112 128.319L426.649 128.46L428.639 134.956Z" fill="#263238"/>
<path d="M427.53 135.281L427.992 135.139L426.001 128.643L425.539 128.785L427.53 135.281Z" fill="#263238"/>
<path d="M426.428 135.627L426.891 135.485L424.901 128.989L424.439 129.131L426.428 135.627Z" fill="#263238"/>
<path d="M438.411 125.38L436.484 125.427L440.642 124.156L439.019 125.193L439.753 127.58C441.071 127.361 441.96 128.453 442.631 130.645L438.473 131.917C437.803 129.733 437.927 128.321 439.144 127.767L438.411 125.372V125.38Z" fill="#263238"/>
<path d="M442.594 127.042L443.678 126.706L442.703 123.524L445.488 122.674L446.455 125.856L447.547 125.521L446.08 129.592L442.594 127.042Z" fill="#263238"/>
<path opacity="0.1" d="M419.133 126.542L420.373 130.591L478.421 121.02L474.887 109.468L419.133 126.542Z" fill="black"/>
<path d="M529.125 155.855L500.904 164.497L490.023 158.897L518.244 150.247L529.125 155.855Z" fill="#F75B00"/>
<path opacity="0.2" d="M529.125 155.855L500.904 164.497L490.023 158.897L518.244 150.247L529.125 155.855Z" fill="black"/>
<path d="M428.391 186.704L456.619 178.061L462.492 167.329L434.272 175.971L428.391 186.704Z" fill="#F75B00"/>
<path opacity="0.1" d="M428.391 186.704L456.619 178.061L462.492 167.329L434.272 175.971L428.391 186.704Z" fill="black"/>
<path d="M381.938 118.914C386.064 132.712 397.554 156.331 401.797 159.24C405.549 161.822 423.559 159.474 431.453 157.766C434.409 157.126 428.34 134.615 425.197 135.364C421.422 136.261 410.19 138.508 409.386 137.868C408.513 137.166 397.655 123.071 389.863 114.71C382.796 107.128 380.378 113.688 381.938 118.906V118.914Z" fill="#FFBD9C"/>
<path d="M423.578 137.197C423.578 137.197 429.545 130.474 433.773 127.907C439.436 124.475 445.738 123.844 448.39 123.734C453.936 123.516 467.5 126.815 467.227 130.887C466.985 134.576 453.288 130.497 453.288 130.497C453.288 130.497 467.937 132.346 466.821 136.729C465.714 141.113 450.09 135.481 450.09 135.481C450.09 135.481 465.098 137.72 463.233 142.057C461.829 145.333 447.392 141.035 447.392 141.035C447.392 141.035 460.277 143.047 458.975 146.479C457.539 150.278 443.96 147.142 443.96 147.142C439.186 155.317 433.57 157.259 429.413 158.164C428.406 158.382 423.57 137.197 423.57 137.197H423.578Z" fill="#FFBD9C"/>
<path d="M448.276 129.53C450.008 129.686 451.755 129.826 453.463 130.138C455.171 130.442 456.872 130.817 458.541 131.277C462.644 132.416 465.03 133.773 464.874 133.711C461.169 132.112 455.07 130.91 453.362 130.606C451.653 130.302 449.969 129.904 448.26 129.6C448.214 129.6 448.237 129.53 448.276 129.538V129.53Z" fill="#263238"/>
<path d="M447.051 135.684C449.251 135.98 451.443 136.191 453.627 136.581C455.803 136.971 457.831 137.525 459.976 138.063C460.139 138.102 460.061 138.18 459.898 138.141C457.737 137.689 455.701 137.439 453.533 137.01C451.372 136.589 449.212 136.074 447.043 135.731C447.012 135.731 447.02 135.676 447.051 135.676V135.684Z" fill="#263238"/>
<path d="M445.054 140.77C448.439 141.043 451.762 141.947 455.006 142.907C455.17 142.954 455.061 143.039 454.889 143C451.598 142.228 449.016 141.596 445.046 140.887C444.983 140.879 444.983 140.762 445.054 140.77Z" fill="#263238"/>
<path d="M429.651 161.759L424.409 134.842L409.8 137.135C404.223 130.427 393.061 117.011 388.506 112.947C383.163 108.181 379.505 111.582 381.338 118.641C385.534 134.787 398.264 158.616 401.711 160.956C406.657 164.31 429.651 161.759 429.651 161.759Z" fill="#F75B00"/>
<path opacity="0.1" d="M419.758 138.57C420.429 138.804 421.248 138.734 421.95 138.827C423.487 139.038 424.196 141.339 422.777 142.213C421.256 143.149 419.423 143.297 417.746 142.642C416.178 142.033 414.868 140.52 415.203 138.757C415.499 137.213 417.091 136.768 418.315 137.556C418.814 137.876 419.181 138.375 419.75 138.57H419.758ZM418.222 135.809C419.298 136.253 420.507 136.3 421.373 135.715C421.552 135.59 421.693 135.434 421.778 135.247L418.222 135.809ZM410.632 136.994C411.248 137.431 411.982 137.665 412.785 137.579C413.354 137.517 413.737 137.018 413.768 136.503L410.632 136.994ZM427.168 149.014C426.88 149.131 426.63 149.357 426.466 149.685C425.811 151.003 426.724 152.423 427.995 153.273L427.168 149.014ZM403.675 154.193C403.425 155.059 403.394 155.831 402.746 156.51C402.099 157.189 401.327 157.61 400.835 158.444C400.414 159.154 401.046 160.207 401.888 160.114C404.572 159.825 406.904 157.228 406.67 154.482C406.522 152.758 404.158 152.516 403.675 154.193ZM400.984 146.635C400.539 147.696 400.625 148.897 400.258 150.005C399.931 151.003 399.548 152.033 399.104 152.984C398.776 153.679 399.431 154.794 400.289 154.42C401.709 153.788 402.762 152.961 403.456 151.526C404.049 150.301 404.704 148.242 404.135 146.939C403.612 145.738 401.623 145.106 400.984 146.643V146.635ZM389.401 119.047C390.321 119.195 391.187 118.719 391.429 117.783C391.865 116.106 390.368 114.374 389.182 113.329C387.958 112.253 386.327 111.332 384.666 111.871C383.613 112.214 383.488 113.353 384.112 114.125C384.838 115.03 385.844 115.693 386.616 116.574C387.451 117.526 388.043 118.82 389.401 119.039V119.047ZM395.368 125.661C396.023 124.717 395.516 123.329 395.048 122.424C394.798 121.948 394.416 121.504 393.94 121.238C393.293 120.88 392.31 120.926 391.943 121.667C391.702 122.151 391.725 122.588 391.85 123.087C391.912 123.337 392.006 123.547 392.115 123.789C392.131 123.82 392.138 123.844 392.146 123.859L392.162 123.922C392.388 124.647 392.528 125.45 393.082 126.004C393.808 126.737 394.861 126.402 395.375 125.653L395.368 125.661ZM393.496 133.43C393.784 133.484 394.081 133.477 394.369 133.406C394.814 133.297 395.149 132.954 395.383 132.587C395.625 132.205 395.664 131.675 395.687 131.238C395.711 130.778 395.524 130.38 395.336 129.982C395.251 129.873 395.165 129.772 395.079 129.662L394.736 129.413C394.424 129.241 394.073 129.194 393.737 129.257C393.113 129.358 392.599 129.818 392.45 130.442C392.341 130.903 392.201 131.355 392.177 131.831C392.201 131.971 392.224 132.119 392.248 132.26C392.302 132.478 392.411 132.673 392.56 132.837C392.786 133.126 393.121 133.375 393.496 133.445V133.43ZM400.079 125.583C400.079 125.583 400.071 125.575 400.071 125.567C399.564 124.982 399.049 124.39 398.55 123.812C398.059 123.773 397.575 124.039 397.435 124.624C397.325 125.06 397.403 125.544 397.419 125.996C397.419 126.191 397.411 126.386 397.403 126.589C397.388 126.886 397.442 127.174 397.497 127.463C397.591 128.048 398.316 128.508 398.878 128.461C399.494 128.414 400.04 128.009 400.188 127.385C400.336 126.776 400.243 126.184 400.079 125.583Z" fill="#030402"/>
<path d="M424.612 159.287C423.98 157.688 422.498 150.746 422.147 149.014C421.804 147.314 420.626 140.278 420.275 138.5C420.259 138.406 420.392 138.344 420.407 138.445C420.789 140.2 422.506 147.119 422.872 148.85C423.239 150.582 424.635 157.524 424.697 159.271C424.697 159.334 424.627 159.341 424.612 159.295V159.287Z" fill="#263238"/>
<path d="M419.794 162.516C417.399 162.649 415.005 162.703 412.61 162.688C409.022 162.547 405.278 162.766 401.877 161.338C398.89 159.131 397.306 155.683 395.458 152.602C393.118 148.406 391.105 144.038 389.14 139.67C387.221 135.278 385.396 130.84 383.75 126.34C387.728 135.044 391.612 143.804 396.09 152.259C397.852 155.246 399.397 158.725 402.111 160.925C403.102 161.455 404.311 161.674 405.473 161.869C410.192 162.547 415.005 162.555 419.786 162.524L419.794 162.516Z" fill="#263238"/>
<path d="M385.287 130.146C384.663 129.491 384.086 128.75 383.82 127.868C384.312 128.617 384.889 129.335 385.287 130.146Z" fill="#263238"/>
<path d="M397.586 122.915C401.853 127.291 405.487 132.236 409.668 136.675C409.731 136.737 409.785 136.784 409.84 136.831C409.879 136.87 409.855 136.831 409.855 136.854C409.855 136.854 409.91 136.854 409.941 136.854C411.252 136.799 414.738 136.199 416.103 136.019C418.88 135.614 421.649 135.193 424.434 134.81V134.834L424.543 135.52L424.379 134.842L424.41 134.865C419.574 135.84 414.801 136.885 409.879 137.408C409.637 137.431 409.426 137.236 409.27 137.088C405.097 132.689 401.455 127.556 397.57 122.908L397.586 122.915Z" fill="#263238"/>
<path d="M398.617 123.149C399.155 123.875 399.655 124.686 399.811 125.591C399.413 124.787 398.921 124 398.617 123.149Z" fill="#263238"/>
<path d="M279.302 327.112C279.006 319.811 279.123 312.502 279.606 305.217C280.589 290.186 283.07 275.273 286.463 260.609C288.374 252.356 290.729 244.237 293.186 236.132C293.264 235.891 293.654 235.953 293.584 236.21C285.995 264.79 279.77 294.281 280.199 323.992C280.316 332.306 281.283 340.473 282.071 348.733C282.095 348.952 281.728 349.045 281.681 348.819C280.113 341.752 279.606 334.342 279.31 327.119L279.302 327.112Z" fill="#F75B00"/>
<path d="M293.584 236.203C293.584 236.203 305.081 265.382 302.507 272.246C299.933 279.103 294.629 280.569 294.629 280.569C294.629 280.569 301.665 290.615 296.751 300.03C291.837 309.452 280.909 309.008 280.184 319.686C280.184 319.686 279.575 275.023 293.584 236.203Z" fill="#F75B00"/>
<path d="M281.43 301.255C281.414 301.208 281.422 301.153 281.445 301.099C283.06 281.255 286.578 261.475 292.599 242.388C292.615 242.333 292.708 242.349 292.693 242.411C290.415 250.945 288.387 259.532 286.656 268.159C288.145 266.623 290.103 265.741 292.147 265.102C292.186 265.086 292.201 265.141 292.17 265.164C290.041 266.084 288.005 267.145 286.5 268.947C286.164 270.64 285.837 272.332 285.525 274.025C288.091 271.154 291.655 269.727 295.22 268.378C295.267 268.362 295.298 268.432 295.251 268.456C291.538 269.969 287.841 271.919 285.322 275.117C284.448 279.961 283.676 284.82 283.013 289.695C284.893 287.729 287.209 286.411 289.869 285.764C289.947 285.748 289.994 285.865 289.916 285.889C287.186 286.676 284.83 288.205 282.966 290.342C282.951 290.358 282.935 290.366 282.927 290.374C282.701 292.09 282.483 293.806 282.28 295.522C283.723 294.289 285.322 293.345 287.085 292.62C287.131 292.604 287.155 292.675 287.108 292.69C285.322 293.455 283.707 294.547 282.295 295.873C282.272 295.888 282.256 295.888 282.233 295.896C282.038 297.534 281.851 299.164 281.687 300.802C284.323 297.628 287.584 295.327 291.437 293.837C291.515 293.806 291.554 293.923 291.476 293.954C287.724 295.584 284.425 298.166 281.866 301.348C281.796 301.434 281.703 301.45 281.625 301.426C281.375 303.938 281.157 306.449 280.969 308.969C280.969 309 280.907 309.008 280.915 308.969C281.063 306.387 281.242 303.813 281.445 301.231L281.43 301.255Z" fill="#263238"/>
<path d="M290.664 262.2C292.66 260.827 295.195 260.242 297.574 260.047C297.629 260.047 297.637 260.125 297.574 260.133C295.102 260.5 293.019 261.397 290.742 262.364C290.64 262.403 290.57 262.255 290.656 262.2H290.664Z" fill="#263238"/>
<path d="M289.273 293.096C290.849 292.152 292.65 291.614 294.46 291.325C294.522 291.317 294.53 291.411 294.46 291.427C292.627 291.762 290.997 292.409 289.328 293.228C289.257 293.26 289.195 293.143 289.265 293.104L289.273 293.096Z" fill="#263238"/>
<path d="M249.075 272.722C253.872 276.092 258.474 279.984 262.382 284.352C266.547 289.016 269.589 294.305 271.718 300.178C276.071 312.214 278.45 325.247 278.668 338.032C278.793 345.2 278.153 352.313 276.617 359.318C276.562 359.575 276.18 359.497 276.219 359.24C278.091 346.916 278.028 334.334 276.008 322.026C274.035 309.952 270.93 296.816 263.255 287.004C259.074 281.661 253.864 277.457 248.716 273.112C248.443 272.886 248.794 272.512 249.067 272.707L249.075 272.722Z" fill="#F75B00"/>
<path d="M276.978 329.35C276.978 329.35 273.031 322.697 267.274 316.948C261.526 311.2 256.682 307.112 255.933 303.306C255.184 299.5 261.697 296.699 261.697 296.699C261.697 296.699 253.741 298.127 251.557 294.788C249.381 291.45 248.328 272.098 248.328 272.098C248.328 272.098 262.805 282.433 269.552 296.926C276.299 311.418 276.978 329.342 276.978 329.342V329.35Z" fill="#F75B00"/>
<path d="M253.335 277.067C259.427 283.049 265.557 289.43 269.145 297.292C270.378 299.991 271.423 302.783 272.343 305.63C272.343 305.63 272.343 305.638 272.343 305.646C272.531 306.215 272.718 306.785 272.889 307.362C272.905 307.393 272.913 307.424 272.921 307.456C274.691 313.329 275.947 319.397 277.031 325.333C277.031 325.372 276.977 325.396 276.969 325.349C276.345 322.33 275.658 319.28 274.886 316.246C274.855 316.246 274.832 316.246 274.8 316.231C273.568 315.716 272.328 315.388 271.002 315.263C270.916 315.256 270.924 315.107 271.01 315.107C272.297 315.17 273.552 315.396 274.769 315.794C274.067 313.056 273.303 310.318 272.445 307.627C269.652 306.941 266.735 306.574 263.857 306.504C263.826 306.504 263.826 306.457 263.857 306.457C266.759 306.325 269.481 306.574 272.304 307.175C272.156 306.715 272 306.254 271.844 305.794C269.957 305.365 268.061 304.999 266.127 304.827C266.096 304.827 266.096 304.765 266.127 304.765C268.014 304.819 269.879 305.014 271.719 305.443C270.932 303.111 270.081 300.81 269.138 298.571C268.358 296.723 267.429 294.96 266.408 293.26C264.863 292.909 263.358 292.573 261.774 292.433C261.728 292.433 261.735 292.355 261.774 292.355C263.217 292.261 264.715 292.37 266.111 292.784C265.347 291.551 264.551 290.35 263.693 289.18C260.448 288.463 257.157 287.792 253.834 288.416C253.779 288.424 253.756 288.33 253.811 288.314C256.97 287.48 260.113 287.963 263.256 288.587C262.913 288.127 262.562 287.683 262.203 287.23C260.207 286.614 258.225 286.318 256.135 286.279C256.096 286.279 256.088 286.216 256.135 286.208C258.046 286.029 259.949 286.208 261.79 286.708C259.107 283.369 256.143 280.241 253.21 277.145C253.077 277.004 253.179 276.919 253.327 277.059L253.335 277.067Z" fill="#263238"/>
<path d="M253.497 290.249C254.449 290.147 255.416 290.038 256.376 290.147C256.493 290.163 256.485 290.35 256.368 290.35C255.416 290.381 254.465 290.303 253.505 290.358C253.435 290.358 253.419 290.249 253.497 290.241V290.249Z" fill="#263238"/>
<path d="M263.918 309.023C265.439 309.008 266.96 309.413 268.379 309.92C268.418 309.936 268.395 309.991 268.356 309.983C266.882 309.632 265.392 309.491 263.902 309.242C263.777 309.218 263.785 309.023 263.91 309.023H263.918Z" fill="#263238"/>
<path d="M267.047 302.534C267.663 302.503 268.334 302.612 268.942 302.705C269.005 302.713 269.005 302.815 268.942 302.815C268.326 302.822 267.647 302.838 267.047 302.729C266.938 302.705 266.945 302.542 267.055 302.534H267.047Z" fill="#263238"/>
<path d="M319.425 293.26C314.768 294.882 310.143 296.965 305.97 299.601C301.516 302.409 297.835 305.989 294.761 310.256C288.459 318.984 283.514 328.984 280.386 339.287C278.631 345.059 277.5 350.964 277.126 356.986C277.11 357.204 277.438 357.235 277.461 357.017C278.795 346.604 281.759 336.44 286.228 326.948C290.62 317.635 296.165 307.721 304.644 301.559C309.262 298.205 314.449 296.005 319.62 293.681C319.893 293.556 319.698 293.174 319.425 293.267V293.26Z" fill="#F75B00"/>
<path d="M283.766 332.634C283.766 332.634 288.5 328.165 294.483 324.842C300.465 321.519 305.333 319.327 306.815 316.426C308.297 313.524 303.679 309.749 303.679 309.749C303.679 309.749 309.794 312.744 312.321 310.544C314.856 308.345 320.176 292.932 320.176 292.932C320.176 292.932 306.066 297.955 297.26 308.119C288.453 318.29 283.758 332.634 283.758 332.634H283.766Z" fill="#F75B00"/>
<path d="M284.496 329.452C291.555 316.207 300.97 304.226 313.871 296.317C313.871 296.317 313.879 296.317 313.871 296.325C310.478 298.486 307.342 300.989 304.425 303.712C307.038 303.641 309.698 304.055 312.007 305.311C312.061 305.342 312.022 305.404 311.968 305.389C309.386 304.515 306.906 303.946 304.16 304.07C304.121 304.07 304.098 304.055 304.074 304.039C303.614 304.476 303.162 304.913 302.717 305.357C304.074 305.412 305.447 305.607 306.773 305.896C306.812 305.896 306.796 305.958 306.765 305.95C305.33 305.677 303.934 305.576 302.483 305.599C300.12 307.978 297.92 310.513 295.83 313.157C296.773 313.017 297.764 313.103 298.661 313.36C298.731 313.376 298.708 313.477 298.638 313.469C297.608 313.337 296.633 313.352 295.611 313.43C295.221 313.922 294.831 314.413 294.457 314.912C297.358 314.741 300.198 315.014 303.021 315.747C303.06 315.755 303.052 315.825 303.006 315.809C300.096 315.24 297.163 315.053 294.207 315.24C293.848 315.716 293.505 316.207 293.154 316.691C294.886 316.636 296.563 316.855 298.248 317.276C298.31 317.291 298.294 317.393 298.224 317.377C296.485 316.979 294.722 316.878 292.951 316.964C291.43 319.054 289.98 321.191 288.583 323.36C289.324 323.204 290.097 323.29 290.822 323.492C290.861 323.5 290.853 323.555 290.806 323.555C289.98 323.461 289.2 323.563 288.388 323.672C287.133 325.63 285.916 327.603 284.754 329.592C284.652 329.756 284.387 329.631 284.481 329.459L284.496 329.452Z" fill="#263238"/>
<path d="M295.468 318.469C296.849 318.352 298.253 318.571 299.571 318.968C299.61 318.976 299.602 319.039 299.563 319.031C298.206 318.781 296.864 318.688 295.484 318.61C295.39 318.61 295.374 318.477 295.476 318.461L295.468 318.469Z" fill="#263238"/>
<path d="M307.78 302.323C308.404 302.253 309.051 302.331 309.667 302.432C309.737 302.448 309.714 302.549 309.644 302.542C309.02 302.471 308.411 302.495 307.787 302.479C307.686 302.479 307.67 302.331 307.772 302.315L307.78 302.323Z" fill="#263238"/>
<path d="M265.562 376.431H297.402L292.863 343.164L291.708 334.639H271.264L270.102 343.164L265.562 376.431Z" fill="#455A64"/>
<path d="M270.102 343.164H292.862L291.708 334.639H271.264L270.102 343.164Z" fill="#263238"/>
<path d="M268.331 338.897H294.625V331.675H268.331V338.897Z" fill="#455A64"/>
<path d="M460.926 63.9006C460.926 73.4712 453.165 81.2322 443.595 81.2322C439.726 81.2322 436.154 79.9608 433.268 77.8158L424.781 79.9842L428.315 72.075C427.004 69.6414 426.263 66.849 426.263 63.9006C426.263 54.33 434.024 46.569 443.595 46.569C453.165 46.569 460.926 54.33 460.926 63.9006Z" fill="white"/>
<path d="M460.925 63.8928C461.05 73.9158 452.057 82.1994 442.088 81.3414C438.875 81.0996 435.724 79.9374 433.103 78.0264L433.337 78.0732L424.866 80.304L424.18 80.4834L424.468 79.8282L427.97 71.9112L427.986 72.2388C423.985 65.1252 425.935 55.5078 432.253 50.4144C443.625 41.0232 460.925 49.143 460.925 63.885V63.8928ZM460.925 63.8928C460.972 52.8168 450.138 44.3694 439.436 47.31C428.875 49.9386 423.423 62.3406 428.649 71.8956L428.735 72.0594L428.657 72.2232L425.092 80.1168L424.694 79.6488L433.204 77.5428L433.337 77.5116L433.438 77.5896C435.934 79.4928 438.976 80.6862 442.12 80.9826C452.049 82.0356 460.98 73.869 460.925 63.9006V63.8928Z" fill="#263238"/>
<path d="M444.804 65.7726V67.6836C444.804 68.5026 444.187 69.1188 443.361 69.1188C442.596 69.1188 441.925 68.5026 441.925 67.6836V64.626C441.925 64.626 441.957 64.5948 441.957 64.5636C441.957 64.5636 441.946 64.5428 441.925 64.5012C441.925 63.7368 442.604 63.0582 443.361 63.0582C445.209 63.0582 446.707 61.5918 446.707 59.7666C446.707 57.9414 445.209 56.475 443.361 56.475C442.159 56.475 441.099 57.1224 440.545 58.0896C440.131 58.7916 439.25 59.0256 438.548 58.62C437.869 58.2066 437.635 57.3564 438.049 56.6544C439.102 54.837 441.099 53.5968 443.361 53.5968C446.769 53.5968 449.554 56.358 449.554 59.7666C449.554 62.676 447.526 65.1096 444.796 65.757L444.804 65.7726ZM444.804 72.1998V72.7302C444.804 73.5492 444.187 74.1732 443.361 74.1732C442.596 74.1732 441.925 73.557 441.925 72.7302V72.1998C441.925 71.4042 442.604 70.7646 443.361 70.7646C444.18 70.7646 444.804 71.412 444.804 72.1998Z" fill="#F75B00"/>
</g>
<path d="M175.734 426.5V415.313H171.423V413.54H181.926V415.313H177.615V426.5H175.734ZM184.846 426.77C184.126 426.77 183.523 426.638 183.037 426.374C182.551 426.104 182.182 425.75 181.93 425.312C181.684 424.868 181.561 424.382 181.561 423.854C181.561 423.362 181.648 422.93 181.822 422.558C181.996 422.186 182.254 421.871 182.596 421.613C182.938 421.349 183.358 421.136 183.856 420.974C184.288 420.848 184.777 420.737 185.323 420.641C185.869 420.545 186.442 420.455 187.042 420.371C187.648 420.287 188.248 420.203 188.842 420.119L188.158 420.497C188.17 419.735 188.008 419.171 187.672 418.805C187.342 418.433 186.772 418.247 185.962 418.247C185.452 418.247 184.984 418.367 184.558 418.607C184.132 418.841 183.835 419.231 183.667 419.777L181.912 419.237C182.152 418.403 182.608 417.74 183.28 417.248C183.958 416.756 184.858 416.51 185.98 416.51C186.85 416.51 187.606 416.66 188.248 416.96C188.896 417.254 189.37 417.722 189.67 418.364C189.826 418.682 189.922 419.018 189.958 419.372C189.994 419.726 190.012 420.107 190.012 420.515V426.5H188.347V424.277L188.671 424.565C188.269 425.309 187.756 425.864 187.132 426.23C186.514 426.59 185.752 426.77 184.846 426.77ZM185.179 425.231C185.713 425.231 186.172 425.138 186.556 424.952C186.94 424.76 187.249 424.517 187.483 424.223C187.717 423.929 187.87 423.623 187.942 423.305C188.044 423.017 188.101 422.693 188.113 422.333C188.131 421.973 188.14 421.685 188.14 421.469L188.752 421.694C188.158 421.784 187.618 421.865 187.132 421.937C186.646 422.009 186.205 422.081 185.809 422.153C185.419 422.219 185.071 422.3 184.765 422.396C184.507 422.486 184.276 422.594 184.072 422.72C183.874 422.846 183.715 422.999 183.595 423.179C183.481 423.359 183.424 423.578 183.424 423.836C183.424 424.088 183.487 424.322 183.613 424.538C183.739 424.748 183.931 424.916 184.189 425.042C184.447 425.168 184.777 425.231 185.179 425.231ZM192.34 426.5V416.78H194.221V420.749H198.964V416.78H200.845V426.5H198.964V422.522H194.221V426.5H192.34ZM202.65 428.66V424.988C203.184 424.988 203.565 424.811 203.793 424.457C204.027 424.097 204.213 423.488 204.351 422.63C204.435 422.108 204.504 421.553 204.558 420.965C204.618 420.377 204.669 419.741 204.711 419.057C204.753 418.367 204.795 417.608 204.837 416.78H211.803V424.988H212.757V428.66H210.975V426.5H204.441V428.66H202.65ZM205.341 424.988H209.913V418.292H206.511C206.487 418.688 206.46 419.096 206.43 419.516C206.406 419.936 206.376 420.353 206.34 420.767C206.31 421.181 206.274 421.577 206.232 421.955C206.19 422.333 206.142 422.675 206.088 422.981C206.016 423.455 205.929 423.851 205.827 424.169C205.731 424.487 205.569 424.76 205.341 424.988ZM217.074 426.5L220.71 421.586L217.155 416.78H219.387L221.808 420.119L224.202 416.78H226.434L222.879 421.586L226.524 426.5H224.283L221.808 423.053L219.315 426.5H217.074ZM230.356 426.77C229.636 426.77 229.033 426.638 228.547 426.374C228.061 426.104 227.692 425.75 227.44 425.312C227.194 424.868 227.071 424.382 227.071 423.854C227.071 423.362 227.158 422.93 227.332 422.558C227.506 422.186 227.764 421.871 228.106 421.613C228.448 421.349 228.868 421.136 229.366 420.974C229.798 420.848 230.287 420.737 230.833 420.641C231.379 420.545 231.952 420.455 232.552 420.371C233.158 420.287 233.758 420.203 234.352 420.119L233.668 420.497C233.68 419.735 233.518 419.171 233.182 418.805C232.852 418.433 232.282 418.247 231.472 418.247C230.962 418.247 230.494 418.367 230.068 418.607C229.642 418.841 229.345 419.231 229.177 419.777L227.422 419.237C227.662 418.403 228.118 417.74 228.79 417.248C229.468 416.756 230.368 416.51 231.49 416.51C232.36 416.51 233.116 416.66 233.758 416.96C234.406 417.254 234.88 417.722 235.18 418.364C235.336 418.682 235.432 419.018 235.468 419.372C235.504 419.726 235.522 420.107 235.522 420.515V426.5H233.857V424.277L234.181 424.565C233.779 425.309 233.266 425.864 232.642 426.23C232.024 426.59 231.262 426.77 230.356 426.77ZM230.689 425.231C231.223 425.231 231.682 425.138 232.066 424.952C232.45 424.76 232.759 424.517 232.993 424.223C233.227 423.929 233.38 423.623 233.452 423.305C233.554 423.017 233.611 422.693 233.623 422.333C233.641 421.973 233.65 421.685 233.65 421.469L234.262 421.694C233.668 421.784 233.128 421.865 232.642 421.937C232.156 422.009 231.715 422.081 231.319 422.153C230.929 422.219 230.581 422.3 230.275 422.396C230.017 422.486 229.786 422.594 229.582 422.72C229.384 422.846 229.225 422.999 229.105 423.179C228.991 423.359 228.934 423.578 228.934 423.836C228.934 424.088 228.997 424.322 229.123 424.538C229.249 424.748 229.441 424.916 229.699 425.042C229.957 425.168 230.287 425.231 230.689 425.231ZM237.139 428.66V424.988C237.673 424.988 238.054 424.811 238.282 424.457C238.516 424.097 238.702 423.488 238.84 422.63C238.924 422.108 238.993 421.553 239.047 420.965C239.107 420.377 239.158 419.741 239.2 419.057C239.242 418.367 239.284 417.608 239.326 416.78H246.292V424.988H247.246V428.66H245.464V426.5H238.93V428.66H237.139ZM239.83 424.988H244.402V418.292H241C240.976 418.688 240.949 419.096 240.919 419.516C240.895 419.936 240.865 420.353 240.829 420.767C240.799 421.181 240.763 421.577 240.721 421.955C240.679 422.333 240.631 422.675 240.577 422.981C240.505 423.455 240.418 423.851 240.316 424.169C240.22 424.487 240.058 424.76 239.83 424.988ZM249.038 426.5V416.78H255.878V418.553H250.919V426.5H249.038ZM260.045 426.77C259.325 426.77 258.722 426.638 258.236 426.374C257.75 426.104 257.381 425.75 257.129 425.312C256.883 424.868 256.76 424.382 256.76 423.854C256.76 423.362 256.847 422.93 257.021 422.558C257.195 422.186 257.453 421.871 257.795 421.613C258.137 421.349 258.557 421.136 259.055 420.974C259.487 420.848 259.976 420.737 260.522 420.641C261.068 420.545 261.641 420.455 262.241 420.371C262.847 420.287 263.447 420.203 264.041 420.119L263.357 420.497C263.369 419.735 263.207 419.171 262.871 418.805C262.541 418.433 261.971 418.247 261.161 418.247C260.651 418.247 260.183 418.367 259.757 418.607C259.331 418.841 259.034 419.231 258.866 419.777L257.111 419.237C257.351 418.403 257.807 417.74 258.479 417.248C259.157 416.756 260.057 416.51 261.179 416.51C262.049 416.51 262.805 416.66 263.447 416.96C264.095 417.254 264.569 417.722 264.869 418.364C265.025 418.682 265.121 419.018 265.157 419.372C265.193 419.726 265.211 420.107 265.211 420.515V426.5H263.546V424.277L263.87 424.565C263.468 425.309 262.955 425.864 262.331 426.23C261.713 426.59 260.951 426.77 260.045 426.77ZM260.378 425.231C260.912 425.231 261.371 425.138 261.755 424.952C262.139 424.76 262.448 424.517 262.682 424.223C262.916 423.929 263.069 423.623 263.141 423.305C263.243 423.017 263.3 422.693 263.312 422.333C263.33 421.973 263.339 421.685 263.339 421.469L263.951 421.694C263.357 421.784 262.817 421.865 262.331 421.937C261.845 422.009 261.404 422.081 261.008 422.153C260.618 422.219 260.27 422.3 259.964 422.396C259.706 422.486 259.475 422.594 259.271 422.72C259.073 422.846 258.914 422.999 258.794 423.179C258.68 423.359 258.623 423.578 258.623 423.836C258.623 424.088 258.686 424.322 258.812 424.538C258.938 424.748 259.13 424.916 259.388 425.042C259.646 425.168 259.976 425.231 260.378 425.231ZM266.648 426.5V424.907C267.008 424.973 267.281 424.964 267.467 424.88C267.659 424.79 267.8 424.628 267.89 424.394C267.986 424.16 268.067 423.857 268.133 423.485C268.235 422.939 268.322 422.318 268.394 421.622C268.472 420.92 268.541 420.161 268.601 419.345C268.661 418.529 268.715 417.674 268.763 416.78H275.747V426.5H273.857V418.553H270.455C270.419 419.027 270.377 419.531 270.329 420.065C270.287 420.593 270.239 421.118 270.185 421.64C270.131 422.162 270.074 422.651 270.014 423.107C269.954 423.563 269.891 423.953 269.825 424.277C269.705 424.925 269.528 425.441 269.294 425.825C269.066 426.203 268.742 426.446 268.322 426.554C267.902 426.668 267.344 426.65 266.648 426.5ZM282.429 426.77C281.433 426.77 280.587 426.548 279.891 426.104C279.195 425.66 278.661 425.051 278.289 424.277C277.923 423.503 277.737 422.624 277.731 421.64C277.737 420.638 277.929 419.753 278.307 418.985C278.685 418.211 279.225 417.605 279.927 417.167C280.629 416.729 281.472 416.51 282.456 416.51C283.518 416.51 284.424 416.774 285.174 417.302C285.93 417.83 286.428 418.553 286.668 419.471L284.796 420.011C284.61 419.465 284.304 419.042 283.878 418.742C283.458 418.436 282.975 418.283 282.429 418.283C281.811 418.283 281.304 418.43 280.908 418.724C280.512 419.012 280.218 419.408 280.026 419.912C279.834 420.416 279.735 420.992 279.729 421.64C279.735 422.642 279.963 423.452 280.413 424.07C280.869 424.688 281.541 424.997 282.429 424.997C283.035 424.997 283.524 424.859 283.896 424.583C284.274 424.301 284.562 423.899 284.76 423.377L286.668 423.827C286.35 424.775 285.825 425.504 285.093 426.014C284.361 426.518 283.473 426.77 282.429 426.77ZM291.123 426.77C290.403 426.77 289.8 426.638 289.314 426.374C288.828 426.104 288.459 425.75 288.207 425.312C287.961 424.868 287.838 424.382 287.838 423.854C287.838 423.362 287.925 422.93 288.099 422.558C288.273 422.186 288.531 421.871 288.873 421.613C289.215 421.349 289.635 421.136 290.133 420.974C290.565 420.848 291.054 420.737 291.6 420.641C292.146 420.545 292.719 420.455 293.319 420.371C293.925 420.287 294.525 420.203 295.119 420.119L294.435 420.497C294.447 419.735 294.285 419.171 293.949 418.805C293.619 418.433 293.049 418.247 292.239 418.247C291.729 418.247 291.261 418.367 290.835 418.607C290.409 418.841 290.112 419.231 289.944 419.777L288.189 419.237C288.429 418.403 288.885 417.74 289.557 417.248C290.235 416.756 291.135 416.51 292.257 416.51C293.127 416.51 293.883 416.66 294.525 416.96C295.173 417.254 295.647 417.722 295.947 418.364C296.103 418.682 296.199 419.018 296.235 419.372C296.271 419.726 296.289 420.107 296.289 420.515V426.5H294.624V424.277L294.948 424.565C294.546 425.309 294.033 425.864 293.409 426.23C292.791 426.59 292.029 426.77 291.123 426.77ZM291.456 425.231C291.99 425.231 292.449 425.138 292.833 424.952C293.217 424.76 293.526 424.517 293.76 424.223C293.994 423.929 294.147 423.623 294.219 423.305C294.321 423.017 294.378 422.693 294.39 422.333C294.408 421.973 294.417 421.685 294.417 421.469L295.029 421.694C294.435 421.784 293.895 421.865 293.409 421.937C292.923 422.009 292.482 422.081 292.086 422.153C291.696 422.219 291.348 422.3 291.042 422.396C290.784 422.486 290.553 422.594 290.349 422.72C290.151 422.846 289.992 422.999 289.872 423.179C289.758 423.359 289.701 423.578 289.701 423.836C289.701 424.088 289.764 424.322 289.89 424.538C290.016 424.748 290.208 424.916 290.466 425.042C290.724 425.168 291.054 425.231 291.456 425.231ZM298.617 426.5V416.78H300.498V420.749H305.241V416.78H307.122V426.5H305.241V422.522H300.498V426.5H298.617ZM317.247 426.779C316.323 426.773 315.537 426.572 314.889 426.176C314.241 425.78 313.734 425.21 313.368 424.466C313.008 423.716 312.798 422.813 312.738 421.757C312.708 421.247 312.711 420.683 312.747 420.065C312.783 419.441 312.849 418.838 312.945 418.256C313.047 417.674 313.176 417.188 313.332 416.798C313.506 416.366 313.743 415.97 314.043 415.61C314.343 415.244 314.673 414.938 315.033 414.692C315.417 414.428 315.843 414.224 316.311 414.08C316.779 413.93 317.268 413.813 317.778 413.729C318.294 413.645 318.813 413.573 319.335 413.513C319.863 413.447 320.376 413.366 320.874 413.27L321.054 414.953C320.724 415.031 320.334 415.094 319.884 415.142C319.44 415.19 318.978 415.244 318.498 415.304C318.024 415.364 317.571 415.448 317.139 415.556C316.707 415.664 316.332 415.817 316.014 416.015C315.564 416.291 315.219 416.693 314.979 417.221C314.745 417.749 314.604 418.322 314.556 418.94C314.928 418.376 315.402 417.971 315.978 417.725C316.554 417.473 317.151 417.347 317.769 417.347C318.633 417.347 319.377 417.551 320.001 417.959C320.631 418.367 321.114 418.922 321.45 419.624C321.786 420.326 321.954 421.121 321.954 422.009C321.954 422.969 321.756 423.809 321.36 424.529C320.97 425.243 320.421 425.801 319.713 426.203C319.005 426.599 318.183 426.791 317.247 426.779ZM317.346 425.006C318.21 425.006 318.861 424.739 319.299 424.205C319.743 423.671 319.965 422.96 319.965 422.072C319.965 421.16 319.737 420.443 319.281 419.921C318.825 419.399 318.18 419.138 317.346 419.138C316.5 419.138 315.852 419.399 315.402 419.921C314.958 420.443 314.736 421.16 314.736 422.072C314.736 422.996 314.961 423.716 315.411 424.232C315.861 424.748 316.506 425.006 317.346 425.006ZM326.215 429.74V426.5L322.687 416.78H324.586L327.169 424.142L329.752 416.78H331.651L328.123 426.5V429.74H326.215ZM335.784 426.5V418.472H332.463V416.78H340.986V418.472H337.665V426.5H335.784ZM346.092 426.77C345.048 426.77 344.16 426.518 343.428 426.014C342.696 425.504 342.168 424.775 341.844 423.827L343.752 423.377C343.95 423.899 344.238 424.301 344.616 424.583C344.994 424.859 345.483 424.997 346.083 424.997C346.863 424.997 347.472 424.76 347.91 424.286C348.348 423.812 348.618 423.179 348.72 422.387H345.111V420.875H348.72C348.624 420.119 348.363 419.498 347.937 419.012C347.511 418.526 346.908 418.283 346.128 418.283C345.564 418.283 345.069 418.433 344.643 418.733C344.217 419.027 343.908 419.453 343.716 420.011L341.844 419.471C342.084 418.553 342.582 417.83 343.338 417.302C344.094 416.774 345.009 416.51 346.083 416.51C347.055 416.51 347.892 416.729 348.594 417.167C349.296 417.605 349.836 418.211 350.214 418.985C350.592 419.759 350.781 420.647 350.781 421.649C350.781 422.645 350.595 423.53 350.223 424.304C349.851 425.072 349.314 425.675 348.612 426.113C347.91 426.551 347.07 426.77 346.092 426.77ZM356.34 426.77C355.296 426.77 354.408 426.518 353.676 426.014C352.944 425.504 352.416 424.775 352.092 423.827L354 423.377C354.198 423.899 354.486 424.301 354.864 424.583C355.242 424.859 355.731 424.997 356.331 424.997C357.111 424.997 357.72 424.76 358.158 424.286C358.596 423.812 358.866 423.179 358.968 422.387H355.359V420.875H358.968C358.872 420.119 358.611 419.498 358.185 419.012C357.759 418.526 357.156 418.283 356.376 418.283C355.812 418.283 355.317 418.433 354.891 418.733C354.465 419.027 354.156 419.453 353.964 420.011L352.092 419.471C352.332 418.553 352.83 417.83 353.586 417.302C354.342 416.774 355.257 416.51 356.331 416.51C357.303 416.51 358.14 416.729 358.842 417.167C359.544 417.605 360.084 418.211 360.462 418.985C360.84 419.759 361.029 420.647 361.029 421.649C361.029 422.645 360.843 423.53 360.471 424.304C360.099 425.072 359.562 425.675 358.86 426.113C358.158 426.551 357.318 426.77 356.34 426.77ZM363.015 426.5V416.78H369.855V418.553H364.896V426.5H363.015ZM370.662 428.66V424.988C371.196 424.988 371.577 424.811 371.805 424.457C372.039 424.097 372.225 423.488 372.363 422.63C372.447 422.108 372.516 421.553 372.57 420.965C372.63 420.377 372.681 419.741 372.723 419.057C372.765 418.367 372.807 417.608 372.849 416.78H379.815V424.988H380.769V428.66H378.987V426.5H372.453V428.66H370.662ZM373.353 424.988H377.925V418.292H374.523C374.499 418.688 374.472 419.096 374.442 419.516C374.418 419.936 374.388 420.353 374.352 420.767C374.322 421.181 374.286 421.577 374.244 421.955C374.202 422.333 374.154 422.675 374.1 422.981C374.028 423.455 373.941 423.851 373.839 424.169C373.743 424.487 373.581 424.76 373.353 424.988ZM386.135 426.77C385.091 426.77 384.203 426.518 383.471 426.014C382.739 425.504 382.211 424.775 381.887 423.827L383.795 423.377C383.993 423.899 384.281 424.301 384.659 424.583C385.037 424.859 385.526 424.997 386.126 424.997C386.906 424.997 387.515 424.76 387.953 424.286C388.391 423.812 388.661 423.179 388.763 422.387H385.154V420.875H388.763C388.667 420.119 388.406 419.498 387.98 419.012C387.554 418.526 386.951 418.283 386.171 418.283C385.607 418.283 385.112 418.433 384.686 418.733C384.26 419.027 383.951 419.453 383.759 420.011L381.887 419.471C382.127 418.553 382.625 417.83 383.381 417.302C384.137 416.774 385.052 416.51 386.126 416.51C387.098 416.51 387.935 416.729 388.637 417.167C389.339 417.605 389.879 418.211 390.257 418.985C390.635 419.759 390.824 420.647 390.824 421.649C390.824 422.645 390.638 423.53 390.266 424.304C389.894 425.072 389.357 425.675 388.655 426.113C387.953 426.551 387.113 426.77 386.135 426.77ZM391.466 426.5L395.102 421.586L391.547 416.78H393.779L396.2 420.119L398.594 416.78H400.826L397.271 421.586L400.916 426.5H398.675L396.2 423.053L393.707 426.5H391.466ZM404.807 429.74V426.5L401.279 416.78H403.178L405.761 424.142L408.344 416.78H410.243L406.715 426.5V429.74H404.807ZM414.492 429.74V426.5L410.964 416.78H412.863L415.446 424.142L418.029 416.78H419.928L416.4 426.5V429.74H414.492ZM421.541 426.5V416.78H423.422V420.749H428.165V416.78H430.046V426.5H428.165V422.522H423.422V426.5H421.541ZM440.396 426.77C439.424 426.77 438.581 426.551 437.867 426.113C437.153 425.675 436.601 425.072 436.211 424.304C435.827 423.53 435.635 422.639 435.635 421.631C435.635 420.617 435.833 419.726 436.229 418.958C436.625 418.184 437.18 417.584 437.894 417.158C438.608 416.726 439.442 416.51 440.396 416.51C441.368 416.51 442.211 416.729 442.925 417.167C443.639 417.605 444.191 418.208 444.581 418.976C444.971 419.744 445.166 420.629 445.166 421.631C445.166 422.645 444.968 423.539 444.572 424.313C444.182 425.081 443.63 425.684 442.916 426.122C442.202 426.554 441.362 426.77 440.396 426.77ZM440.396 424.997C441.326 424.997 442.019 424.685 442.475 424.061C442.937 423.431 443.168 422.621 443.168 421.631C443.168 420.617 442.934 419.807 442.466 419.201C442.004 418.589 441.314 418.283 440.396 418.283C439.766 418.283 439.247 418.427 438.839 418.715C438.431 418.997 438.128 419.39 437.93 419.894C437.732 420.392 437.633 420.971 437.633 421.631C437.633 422.651 437.867 423.467 438.335 424.079C438.803 424.691 439.49 424.997 440.396 424.997ZM446.424 428.66V424.988C446.958 424.988 447.339 424.811 447.567 424.457C447.801 424.097 447.987 423.488 448.125 422.63C448.209 422.108 448.278 421.553 448.332 420.965C448.392 420.377 448.443 419.741 448.485 419.057C448.527 418.367 448.569 417.608 448.611 416.78H455.577V424.988H456.531V428.66H454.749V426.5H448.215V428.66H446.424ZM449.115 424.988H453.687V418.292H450.285C450.261 418.688 450.234 419.096 450.204 419.516C450.18 419.936 450.15 420.353 450.114 420.767C450.084 421.181 450.048 421.577 450.006 421.955C449.964 422.333 449.916 422.675 449.862 422.981C449.79 423.455 449.703 423.851 449.601 424.169C449.505 424.487 449.343 424.76 449.115 424.988ZM462.544 426.77C461.572 426.77 460.729 426.551 460.015 426.113C459.301 425.675 458.749 425.072 458.359 424.304C457.975 423.53 457.783 422.639 457.783 421.631C457.783 420.617 457.981 419.726 458.377 418.958C458.773 418.184 459.328 417.584 460.042 417.158C460.756 416.726 461.59 416.51 462.544 416.51C463.516 416.51 464.359 416.729 465.073 417.167C465.787 417.605 466.339 418.208 466.729 418.976C467.119 419.744 467.314 420.629 467.314 421.631C467.314 422.645 467.116 423.539 466.72 424.313C466.33 425.081 465.778 425.684 465.064 426.122C464.35 426.554 463.51 426.77 462.544 426.77ZM462.544 424.997C463.474 424.997 464.167 424.685 464.623 424.061C465.085 423.431 465.316 422.621 465.316 421.631C465.316 420.617 465.082 419.807 464.614 419.201C464.152 418.589 463.462 418.283 462.544 418.283C461.914 418.283 461.395 418.427 460.987 418.715C460.579 418.997 460.276 419.39 460.078 419.894C459.88 420.392 459.781 420.971 459.781 421.631C459.781 422.651 460.015 423.467 460.483 424.079C460.951 424.691 461.638 424.997 462.544 424.997ZM473.513 426.77C472.541 426.77 471.698 426.551 470.984 426.113C470.27 425.675 469.718 425.072 469.328 424.304C468.944 423.53 468.752 422.639 468.752 421.631C468.752 420.617 468.95 419.726 469.346 418.958C469.742 418.184 470.297 417.584 471.011 417.158C471.725 416.726 472.559 416.51 473.513 416.51C474.485 416.51 475.328 416.729 476.042 417.167C476.756 417.605 477.308 418.208 477.698 418.976C478.088 419.744 478.283 420.629 478.283 421.631C478.283 422.645 478.085 423.539 477.689 424.313C477.299 425.081 476.747 425.684 476.033 426.122C475.319 426.554 474.479 426.77 473.513 426.77ZM473.513 424.997C474.443 424.997 475.136 424.685 475.592 424.061C476.054 423.431 476.285 422.621 476.285 421.631C476.285 420.617 476.051 419.807 475.583 419.201C475.121 418.589 474.431 418.283 473.513 418.283C472.883 418.283 472.364 418.427 471.956 418.715C471.548 418.997 471.245 419.39 471.047 419.894C470.849 420.392 470.75 420.971 470.75 421.631C470.75 422.651 470.984 423.467 471.452 424.079C471.92 424.691 472.607 424.997 473.513 424.997ZM480.261 426.5V416.78H487.101V418.553H482.142V426.5H480.261ZM492.849 426.77C491.877 426.77 491.034 426.551 490.32 426.113C489.606 425.675 489.054 425.072 488.664 424.304C488.28 423.53 488.088 422.639 488.088 421.631C488.088 420.617 488.286 419.726 488.682 418.958C489.078 418.184 489.633 417.584 490.347 417.158C491.061 416.726 491.895 416.51 492.849 416.51C493.821 416.51 494.664 416.729 495.378 417.167C496.092 417.605 496.644 418.208 497.034 418.976C497.424 419.744 497.619 420.629 497.619 421.631C497.619 422.645 497.421 423.539 497.025 424.313C496.635 425.081 496.083 425.684 495.369 426.122C494.655 426.554 493.815 426.77 492.849 426.77ZM492.849 424.997C493.779 424.997 494.472 424.685 494.928 424.061C495.39 423.431 495.621 422.621 495.621 421.631C495.621 420.617 495.387 419.807 494.919 419.201C494.457 418.589 493.767 418.283 492.849 418.283C492.219 418.283 491.7 418.427 491.292 418.715C490.884 418.997 490.581 419.39 490.383 419.894C490.185 420.392 490.086 420.971 490.086 421.631C490.086 422.651 490.32 423.467 490.788 424.079C491.256 424.691 491.943 424.997 492.849 424.997ZM503.818 426.77C502.846 426.77 502.003 426.551 501.289 426.113C500.575 425.675 500.023 425.072 499.633 424.304C499.249 423.53 499.057 422.639 499.057 421.631C499.057 420.617 499.255 419.726 499.651 418.958C500.047 418.184 500.602 417.584 501.316 417.158C502.03 416.726 502.864 416.51 503.818 416.51C504.79 416.51 505.633 416.729 506.347 417.167C507.061 417.605 507.613 418.208 508.003 418.976C508.393 419.744 508.588 420.629 508.588 421.631C508.588 422.645 508.39 423.539 507.994 424.313C507.604 425.081 507.052 425.684 506.338 426.122C505.624 426.554 504.784 426.77 503.818 426.77ZM503.818 424.997C504.748 424.997 505.441 424.685 505.897 424.061C506.359 423.431 506.59 422.621 506.59 421.631C506.59 420.617 506.356 419.807 505.888 419.201C505.426 418.589 504.736 418.283 503.818 418.283C503.188 418.283 502.669 418.427 502.261 418.715C501.853 418.997 501.55 419.39 501.352 419.894C501.154 420.392 501.055 420.971 501.055 421.631C501.055 422.651 501.289 423.467 501.757 424.079C502.225 424.691 502.912 424.997 503.818 424.997ZM515.129 426.77C514.199 426.77 513.419 426.545 512.789 426.095C512.159 425.639 511.682 425.024 511.358 424.25C511.034 423.476 510.872 422.603 510.872 421.631C510.872 420.659 511.031 419.786 511.349 419.012C511.673 418.238 512.147 417.629 512.771 417.185C513.401 416.735 514.175 416.51 515.093 416.51C516.005 416.51 516.791 416.735 517.451 417.185C518.117 417.629 518.63 418.238 518.99 419.012C519.35 419.78 519.53 420.653 519.53 421.631C519.53 422.603 519.35 423.479 518.99 424.259C518.636 425.033 518.129 425.645 517.469 426.095C516.815 426.545 516.035 426.77 515.129 426.77ZM510.557 430.82V416.78H512.231V423.773H512.447V430.82H510.557ZM514.868 425.069C515.468 425.069 515.963 424.916 516.353 424.61C516.749 424.304 517.043 423.893 517.235 423.377C517.433 422.855 517.532 422.273 517.532 421.631C517.532 420.995 517.433 420.419 517.235 419.903C517.043 419.387 516.746 418.976 516.344 418.67C515.942 418.364 515.429 418.211 514.805 418.211C514.217 418.211 513.731 418.355 513.347 418.643C512.969 418.931 512.687 419.333 512.501 419.849C512.321 420.365 512.231 420.959 512.231 421.631C512.231 422.303 512.321 422.897 512.501 423.413C512.681 423.929 512.966 424.334 513.356 424.628C513.746 424.922 514.25 425.069 514.868 425.069ZM529.116 426.779C528.192 426.773 527.406 426.572 526.758 426.176C526.11 425.78 525.603 425.21 525.237 424.466C524.877 423.716 524.667 422.813 524.607 421.757C524.577 421.247 524.58 420.683 524.616 420.065C524.652 419.441 524.718 418.838 524.814 418.256C524.916 417.674 525.045 417.188 525.201 416.798C525.375 416.366 525.612 415.97 525.912 415.61C526.212 415.244 526.542 414.938 526.902 414.692C527.286 414.428 527.712 414.224 528.18 414.08C528.648 413.93 529.137 413.813 529.647 413.729C530.163 413.645 530.682 413.573 531.204 413.513C531.732 413.447 532.245 413.366 532.743 413.27L532.923 414.953C532.593 415.031 532.203 415.094 531.753 415.142C531.309 415.19 530.847 415.244 530.367 415.304C529.893 415.364 529.44 415.448 529.008 415.556C528.576 415.664 528.201 415.817 527.883 416.015C527.433 416.291 527.088 416.693 526.848 417.221C526.614 417.749 526.473 418.322 526.425 418.94C526.797 418.376 527.271 417.971 527.847 417.725C528.423 417.473 529.02 417.347 529.638 417.347C530.502 417.347 531.246 417.551 531.87 417.959C532.5 418.367 532.983 418.922 533.319 419.624C533.655 420.326 533.823 421.121 533.823 422.009C533.823 422.969 533.625 423.809 533.229 424.529C532.839 425.243 532.29 425.801 531.582 426.203C530.874 426.599 530.052 426.791 529.116 426.779ZM529.215 425.006C530.079 425.006 530.73 424.739 531.168 424.205C531.612 423.671 531.834 422.96 531.834 422.072C531.834 421.16 531.606 420.443 531.15 419.921C530.694 419.399 530.049 419.138 529.215 419.138C528.369 419.138 527.721 419.399 527.271 419.921C526.827 420.443 526.605 421.16 526.605 422.072C526.605 422.996 526.83 423.716 527.28 424.232C527.73 424.748 528.375 425.006 529.215 425.006ZM538.553 426.77C537.833 426.77 537.23 426.638 536.744 426.374C536.258 426.104 535.889 425.75 535.637 425.312C535.391 424.868 535.268 424.382 535.268 423.854C535.268 423.362 535.355 422.93 535.529 422.558C535.703 422.186 535.961 421.871 536.303 421.613C536.645 421.349 537.065 421.136 537.563 420.974C537.995 420.848 538.484 420.737 539.03 420.641C539.576 420.545 540.149 420.455 540.749 420.371C541.355 420.287 541.955 420.203 542.549 420.119L541.865 420.497C541.877 419.735 541.715 419.171 541.379 418.805C541.049 418.433 540.479 418.247 539.669 418.247C539.159 418.247 538.691 418.367 538.265 418.607C537.839 418.841 537.542 419.231 537.374 419.777L535.619 419.237C535.859 418.403 536.315 417.74 536.987 417.248C537.665 416.756 538.565 416.51 539.687 416.51C540.557 416.51 541.313 416.66 541.955 416.96C542.603 417.254 543.077 417.722 543.377 418.364C543.533 418.682 543.629 419.018 543.665 419.372C543.701 419.726 543.719 420.107 543.719 420.515V426.5H542.054V424.277L542.378 424.565C541.976 425.309 541.463 425.864 540.839 426.23C540.221 426.59 539.459 426.77 538.553 426.77ZM538.886 425.231C539.42 425.231 539.879 425.138 540.263 424.952C540.647 424.76 540.956 424.517 541.19 424.223C541.424 423.929 541.577 423.623 541.649 423.305C541.751 423.017 541.808 422.693 541.82 422.333C541.838 421.973 541.847 421.685 541.847 421.469L542.459 421.694C541.865 421.784 541.325 421.865 540.839 421.937C540.353 422.009 539.912 422.081 539.516 422.153C539.126 422.219 538.778 422.3 538.472 422.396C538.214 422.486 537.983 422.594 537.779 422.72C537.581 422.846 537.422 422.999 537.302 423.179C537.188 423.359 537.131 423.578 537.131 423.836C537.131 424.088 537.194 424.322 537.32 424.538C537.446 424.748 537.638 424.916 537.896 425.042C538.154 425.168 538.484 425.231 538.886 425.231ZM550.394 415.664C549.92 415.664 549.485 415.547 549.089 415.313C548.699 415.079 548.387 414.767 548.153 414.377C547.919 413.987 547.802 413.552 547.802 413.072H549.296C549.296 413.372 549.404 413.63 549.62 413.846C549.836 414.062 550.094 414.17 550.394 414.17C550.7 414.17 550.958 414.062 551.168 413.846C551.384 413.63 551.492 413.372 551.492 413.072H552.986C552.986 413.552 552.869 413.987 552.635 414.377C552.401 414.767 552.086 415.079 551.69 415.313C551.3 415.547 550.868 415.664 550.394 415.664ZM554.246 416.78V426.5H552.437V419.741L547.577 426.5H546.047V416.78H547.856V423.404L552.725 416.78H554.246ZM555.681 426.5L559.317 421.586L555.762 416.78H557.994L560.415 420.119L562.809 416.78H565.041L561.486 421.586L565.131 426.5H562.89L560.415 423.053L557.922 426.5H555.681ZM566.57 426.5V416.78H573.41V418.553H568.451V426.5H566.57ZM577.741 429.74V426.5L574.213 416.78H576.112L578.695 424.142L581.278 416.78H583.177L579.649 426.5V429.74H577.741ZM589.136 415.664C588.662 415.664 588.227 415.547 587.831 415.313C587.441 415.079 587.129 414.767 586.895 414.377C586.661 413.987 586.544 413.552 586.544 413.072H588.038C588.038 413.372 588.146 413.63 588.362 413.846C588.578 414.062 588.836 414.17 589.136 414.17C589.442 414.17 589.7 414.062 589.91 413.846C590.126 413.63 590.234 413.372 590.234 413.072H591.728C591.728 413.552 591.611 413.987 591.377 414.377C591.143 414.767 590.828 415.079 590.432 415.313C590.042 415.547 589.61 415.664 589.136 415.664ZM592.988 416.78V426.5H591.179V419.741L586.319 426.5H584.789V416.78H586.598V423.404L591.467 416.78H592.988ZM603.103 426.779C602.179 426.773 601.393 426.572 600.745 426.176C600.097 425.78 599.59 425.21 599.224 424.466C598.864 423.716 598.654 422.813 598.594 421.757C598.564 421.247 598.567 420.683 598.603 420.065C598.639 419.441 598.705 418.838 598.801 418.256C598.903 417.674 599.032 417.188 599.188 416.798C599.362 416.366 599.599 415.97 599.899 415.61C600.199 415.244 600.529 414.938 600.889 414.692C601.273 414.428 601.699 414.224 602.167 414.08C602.635 413.93 603.124 413.813 603.634 413.729C604.15 413.645 604.669 413.573 605.191 413.513C605.719 413.447 606.232 413.366 606.73 413.27L606.91 414.953C606.58 415.031 606.19 415.094 605.74 415.142C605.296 415.19 604.834 415.244 604.354 415.304C603.88 415.364 603.427 415.448 602.995 415.556C602.563 415.664 602.188 415.817 601.87 416.015C601.42 416.291 601.075 416.693 600.835 417.221C600.601 417.749 600.46 418.322 600.412 418.94C600.784 418.376 601.258 417.971 601.834 417.725C602.41 417.473 603.007 417.347 603.625 417.347C604.489 417.347 605.233 417.551 605.857 417.959C606.487 418.367 606.97 418.922 607.306 419.624C607.642 420.326 607.81 421.121 607.81 422.009C607.81 422.969 607.612 423.809 607.216 424.529C606.826 425.243 606.277 425.801 605.569 426.203C604.861 426.599 604.039 426.791 603.103 426.779ZM603.202 425.006C604.066 425.006 604.717 424.739 605.155 424.205C605.599 423.671 605.821 422.96 605.821 422.072C605.821 421.16 605.593 420.443 605.137 419.921C604.681 419.399 604.036 419.138 603.202 419.138C602.356 419.138 601.708 419.399 601.258 419.921C600.814 420.443 600.592 421.16 600.592 422.072C600.592 422.996 600.817 423.716 601.267 424.232C601.717 424.748 602.362 425.006 603.202 425.006ZM612.539 426.77C611.819 426.77 611.216 426.638 610.73 426.374C610.244 426.104 609.875 425.75 609.623 425.312C609.377 424.868 609.254 424.382 609.254 423.854C609.254 423.362 609.341 422.93 609.515 422.558C609.689 422.186 609.947 421.871 610.289 421.613C610.631 421.349 611.051 421.136 611.549 420.974C611.981 420.848 612.47 420.737 613.016 420.641C613.562 420.545 614.135 420.455 614.735 420.371C615.341 420.287 615.941 420.203 616.535 420.119L615.851 420.497C615.863 419.735 615.701 419.171 615.365 418.805C615.035 418.433 614.465 418.247 613.655 418.247C613.145 418.247 612.677 418.367 612.251 418.607C611.825 418.841 611.528 419.231 611.36 419.777L609.605 419.237C609.845 418.403 610.301 417.74 610.973 417.248C611.651 416.756 612.551 416.51 613.673 416.51C614.543 416.51 615.299 416.66 615.941 416.96C616.589 417.254 617.063 417.722 617.363 418.364C617.519 418.682 617.615 419.018 617.651 419.372C617.687 419.726 617.705 420.107 617.705 420.515V426.5H616.04V424.277L616.364 424.565C615.962 425.309 615.449 425.864 614.825 426.23C614.207 426.59 613.445 426.77 612.539 426.77ZM612.872 425.231C613.406 425.231 613.865 425.138 614.249 424.952C614.633 424.76 614.942 424.517 615.176 424.223C615.41 423.929 615.563 423.623 615.635 423.305C615.737 423.017 615.794 422.693 615.806 422.333C615.824 421.973 615.833 421.685 615.833 421.469L616.445 421.694C615.851 421.784 615.311 421.865 614.825 421.937C614.339 422.009 613.898 422.081 613.502 422.153C613.112 422.219 612.764 422.3 612.458 422.396C612.2 422.486 611.969 422.594 611.765 422.72C611.567 422.846 611.408 422.999 611.288 423.179C611.174 423.359 611.117 423.578 611.117 423.836C611.117 424.088 611.18 424.322 611.306 424.538C611.432 424.748 611.624 424.916 611.882 425.042C612.14 425.168 612.47 425.231 612.872 425.231ZM624.38 415.664C623.906 415.664 623.471 415.547 623.075 415.313C622.685 415.079 622.373 414.767 622.139 414.377C621.905 413.987 621.788 413.552 621.788 413.072H623.282C623.282 413.372 623.39 413.63 623.606 413.846C623.822 414.062 624.08 414.17 624.38 414.17C624.686 414.17 624.944 414.062 625.154 413.846C625.37 413.63 625.478 413.372 625.478 413.072H626.972C626.972 413.552 626.855 413.987 626.621 414.377C626.387 414.767 626.072 415.079 625.676 415.313C625.286 415.547 624.854 415.664 624.38 415.664ZM628.232 416.78V426.5H626.423V419.741L621.563 426.5H620.033V416.78H621.842V423.404L626.711 416.78H628.232ZM630.738 426.5V416.78H632.619V420.749H637.362V416.78H639.243V426.5H637.362V422.522H632.619V426.5H630.738ZM644.514 426.77C643.794 426.77 643.191 426.638 642.705 426.374C642.219 426.104 641.85 425.75 641.598 425.312C641.352 424.868 641.229 424.382 641.229 423.854C641.229 423.362 641.316 422.93 641.49 422.558C641.664 422.186 641.922 421.871 642.264 421.613C642.606 421.349 643.026 421.136 643.524 420.974C643.956 420.848 644.445 420.737 644.991 420.641C645.537 420.545 646.11 420.455 646.71 420.371C647.316 420.287 647.916 420.203 648.51 420.119L647.826 420.497C647.838 419.735 647.676 419.171 647.34 418.805C647.01 418.433 646.44 418.247 645.63 418.247C645.12 418.247 644.652 418.367 644.226 418.607C643.8 418.841 643.503 419.231 643.335 419.777L641.58 419.237C641.82 418.403 642.276 417.74 642.948 417.248C643.626 416.756 644.526 416.51 645.648 416.51C646.518 416.51 647.274 416.66 647.916 416.96C648.564 417.254 649.038 417.722 649.338 418.364C649.494 418.682 649.59 419.018 649.626 419.372C649.662 419.726 649.68 420.107 649.68 420.515V426.5H648.015V424.277L648.339 424.565C647.937 425.309 647.424 425.864 646.8 426.23C646.182 426.59 645.42 426.77 644.514 426.77ZM644.847 425.231C645.381 425.231 645.84 425.138 646.224 424.952C646.608 424.76 646.917 424.517 647.151 424.223C647.385 423.929 647.538 423.623 647.61 423.305C647.712 423.017 647.769 422.693 647.781 422.333C647.799 421.973 647.808 421.685 647.808 421.469L648.42 421.694C647.826 421.784 647.286 421.865 646.8 421.937C646.314 422.009 645.873 422.081 645.477 422.153C645.087 422.219 644.739 422.3 644.433 422.396C644.175 422.486 643.944 422.594 643.74 422.72C643.542 422.846 643.383 422.999 643.263 423.179C643.149 423.359 643.092 423.578 643.092 423.836C643.092 424.088 643.155 424.322 643.281 424.538C643.407 424.748 643.599 424.916 643.857 425.042C644.115 425.168 644.445 425.231 644.847 425.231Z" fill="#667085"/>
<defs>
<clipPath id="clip0_1866_253423">
<rect width="390" height="390" fill="white" transform="translate(216 16.5)"/>
</clipPath>
</defs>
</svg>
